<svg xmlns="http://www.w3.org/2000/svg" width="24" height="31" viewBox="-1 -1 26 33" fill="#A78BFA" stroke="#A78BFA">
  <path fill-rule="evenodd" clip-rule="evenodd" d="M7.30596 1.09393C2.73532 3.17957 0.527529 9.35458 0.527529 11.4067L0.00582352 28.9386C-0.0894957 30.5873 1.00894 31 1.57008 31L6 31C6.81483 31 7.23369 30.5948 7.53812 30.3002C7.71191 30.1321 7.84841 30 8 30C8.14402 30 8.3078 30.1192 8.52227 30.2753C8.92896 30.5713 9.5179 31 10.5 31L13.5 31C14.1076 31 14.7458 30.6308 15.2466 30.3411L15.2466 30.3411C15.5701 30.154 15.8363 30 16 30C16.1616 30 16.3417 30.1501 16.5624 30.334C16.9112 30.6248 17.3614 31 18 31L22.4268 31C23.2611 31 24.0959 30.2854 23.9911 28.9386C23.6434 24.4737 22.9485 11.9374 22.9485 10.3918C22.9485 6.95362 20.7979 4.35979 19.9854 3.37982L19.9853 3.37971C19.9212 3.30243 19.8654 3.23519 19.8197 3.17836C17.7343 0.586197 12.5196 -1.28512 7.30596 1.09393ZM7.69713 2.02335C3.50738 3.97444 1.48357 9.75106 1.48357 11.6708L1.00534 28.0716C0.917962 29.6139 1.92486 30 2.43924 30H5.785C6.03748 30 6.58294 29.597 7.09794 29.2165L7.09795 29.2165C7.55846 28.8763 7.99459 28.5541 8.1751 28.5541C8.35714 28.5541 8.69085 28.8786 9.0421 29.2201L9.04212 29.2202C9.42865 29.596 9.83643 29.9925 10.0867 30H13.9104C14.161 29.9924 14.569 29.5958 14.9557 29.2199C15.3069 28.8784 15.6406 28.5541 15.8226 28.5541C15.9707 28.5541 16.2193 28.7712 16.5239 29.0371C17.0054 29.4575 17.6267 30 18.2121 30H21.5579C22.3226 30 23.0879 29.3315 22.9918 28.0716C22.6732 23.8947 22.0361 12.1673 22.0361 10.7214C22.0361 7.505 20.0647 5.07852 19.3199 4.16177C19.2611 4.08943 19.21 4.02649 19.1681 3.9733C17.2565 1.54838 12.4763 -0.202211 7.69713 2.02335ZM9.99629 10.5917C10.0407 10.0611 9.70323 8.99985 7.99814 8.99985C6.61276 8.99985 6.0888 10.0611 5.99999 10.5917V13.7754C6.1332 14.1835 6.71933 14.9999 7.99814 14.9999C9.27696 14.9999 9.86308 14.1835 9.99629 13.7754V10.5917ZM8.99814 10.994C9.02034 10.615 8.85161 9.85699 7.99907 9.85699C7.30637 9.85699 7.04439 10.615 6.99999 10.994V13.2681C7.0666 13.5596 7.35966 14.1427 7.99907 14.1427C8.63848 14.1427 8.93154 13.5596 8.99814 13.2681V10.994ZM12 22.9999C13.1046 22.9999 14 22.1044 14 20.9999C14 19.8953 13.1046 18.9999 12 18.9999C10.8954 18.9999 9.99999 19.8953 9.99999 20.9999C9.99999 22.1044 10.8954 22.9999 12 22.9999ZM12 21.9999C12.5523 21.9999 13 21.5521 13 20.9999C13 20.4476 12.5523 19.9999 12 19.9999C11.4477 19.9999 11 20.4476 11 20.9999C11 21.5521 11.4477 21.9999 12 21.9999ZM17.9963 10.5918C18.0407 10.0612 17.7032 9 15.9982 9C14.6128 9 14.0888 10.0612 14 10.5918V13.7755C14.1332 14.1837 14.7193 15 15.9982 15C17.277 15 17.8631 14.1837 17.9963 13.7755V10.5918ZM16.9982 10.9944C17.0204 10.6154 16.8516 9.85742 15.9991 9.85742C15.3064 9.85742 15.0444 10.6154 15 10.9944V13.2685C15.0666 13.56 15.3597 14.1431 15.9991 14.1431C16.6385 14.1431 16.9315 13.56 16.9982 13.2685V10.9944Z" fill="#A78BFA"/>
</svg>