<svg width="28" height="31" viewBox="0 0 28 31" stroke="none" fill="#A78BFA" xmlns="http://www.w3.org/2000/svg">
<path d="M2.86399 26.7956C12.0927 17.5669 5.53434 5.75322 1.10156 1C15.5855 15.484 20.0076 12.0614 22.8916 10.453C20.1145 12.0018 12.2209 17.4387 2.86399 26.7956Z" />
<path d="M3.50488 28.558C8.11924 23.4309 24.0132 10.7735 26.8971 10.7735C22.411 16.7017 20.1679 24.0718 21.2894 30C16.8032 25.5138 6.22863 25.8343 3.50488 28.558Z" />
<path d="M2.86399 26.7956C12.0927 17.5669 5.53434 5.75322 1.10156 1C15.5855 15.484 20.0076 12.0614 22.8916 10.453C20.1145 12.0018 12.2209 17.4387 2.86399 26.7956Z"  stroke-linejoin="round"/>
<path d="M3.50488 28.558C8.11924 23.4309 24.0132 10.7735 26.8971 10.7735C22.411 16.7017 20.1679 24.0718 21.2894 30C16.8032 25.5138 6.22863 25.8343 3.50488 28.558Z"  stroke-linejoin="round"/>
</svg>
