<svg width="30" height="29" viewBox="0 0 30 29" fill="#A78BFA" xmlns="http://www.w3.org/2000/svg">
<path d="M0.500001 14.5031C0.498885 11.9079 1.19458 9.36005 2.51446 7.12543C3.83434 4.89082 5.73001 3.05141 8.00357 1.79921C10.2771 0.547022 12.8452 -0.0720349 15.4397 0.00666983C18.0343 0.0853746 20.5601 0.858955 22.7535 2.24665L24.6135 0.388423C24.7981 0.203929 25.0333 0.078375 25.2893 0.0276723C25.5454 -0.0230304 25.8107 0.00340096 26.0517 0.103617C26.2927 0.203832 26.4985 0.373321 26.643 0.590602C26.7876 0.807884 26.8644 1.06318 26.8636 1.32413V6.59571C26.8636 6.94523 26.7248 7.28044 26.4776 7.5276C26.2303 7.77475 25.8951 7.9136 25.5455 7.9136H20.2727C20.0121 7.91354 19.7573 7.83622 19.5405 7.6914C19.3238 7.54659 19.1549 7.34078 19.0552 7.1C18.9554 6.85922 18.9293 6.59428 18.9801 6.33867C19.031 6.08306 19.1565 5.84826 19.3408 5.66395L20.8277 4.17737C19.0234 3.15734 16.9831 2.62807 14.9104 2.64234C12.8377 2.65662 10.8049 3.21394 9.01487 4.25873C7.22481 5.30352 5.74 6.79925 4.70853 8.59677C3.67706 10.3943 3.13499 12.4307 3.13636 14.5031C3.13636 14.8526 2.99749 15.1878 2.75028 15.435C2.50307 15.6821 2.16779 15.821 1.81818 15.821C1.46858 15.821 1.13329 15.6821 0.886088 15.435C0.638881 15.1878 0.500001 14.8526 0.500001 14.5031ZM28.1818 13.1852C27.8322 13.1852 27.4969 13.324 27.2497 13.5712C27.0025 13.8183 26.8636 14.1535 26.8636 14.5031C26.8601 17.6477 25.6091 20.6626 23.385 22.8862C21.1609 25.1099 18.1454 26.3606 15 26.3641C12.9572 26.3678 10.9488 25.8381 9.17364 24.8275L10.6592 23.3422C10.8435 23.1579 10.969 22.9231 11.0199 22.6675C11.0707 22.4119 11.0446 22.1469 10.9448 21.9061C10.8451 21.6654 10.6762 21.4596 10.4595 21.3147C10.2427 21.1699 9.98794 21.0926 9.72727 21.0925H4.45455C4.10494 21.0925 3.76966 21.2314 3.52245 21.4785C3.27524 21.7257 3.13636 22.0609 3.13636 22.4104V27.682C3.1363 27.9426 3.21353 28.1974 3.3583 28.4142C3.50307 28.631 3.70887 28.7999 3.94968 28.8997C4.10962 28.9664 4.28127 29.0005 4.45455 28.9999C4.80412 28.9998 5.13935 28.8609 5.3865 28.6138L7.24646 26.7595C9.56351 28.2322 12.2544 29.0097 15 28.9999C18.8442 28.9954 22.5297 27.4666 25.248 24.7489C27.9663 22.0312 29.4955 18.3465 29.5 14.5031C29.5 14.1535 29.3611 13.8183 29.1139 13.5712C28.8667 13.324 28.5314 13.1852 28.1818 13.1852Z" />
</svg>
