
<svg width="30" height="29" viewBox="-1 -1 32 31" fill="#A78BFA" xmlns="http://www.w3.org/2000/svg" stroke="#A78BFA">

<path d="M28.5464 7.27339L26.2106 6.81177L25.0669 4.64426C24.8538 4.24115 24.4624 4 24.0199 4C23.5773 4 23.1856 4.2408 22.9722 4.64426L21.8288 6.81177L19.493 7.27339C19.058 7.35936 18.7167 7.67186 18.5798 8.10993C18.4429 8.54764 18.5424 9.00925 18.8457 9.34458L20.4741 11.1457L20.1746 13.5983C20.1191 14.0553 20.2995 14.4898 20.658 14.7602C21.0158 15.0309 21.4686 15.0755 21.8693 14.8782L24.0195 13.8241L26.1698 14.8782C26.3355 14.9596 26.5097 14.9995 26.6826 14.9995C26.9286 14.9995 27.1715 14.9185 27.3814 14.7598C27.7399 14.4894 27.9203 14.0549 27.8644 13.5983L27.5649 11.1457L29.1934 9.34494C29.4967 9.00925 29.5961 8.54764 29.4593 8.10993C29.3224 7.67186 28.9814 7.35936 28.5464 7.27339ZM28.6816 8.84444L26.9396 10.7708C26.8679 10.85 26.8339 10.9588 26.8469 11.0669L27.1674 13.6903C27.1903 13.8787 27.1162 14.0574 26.9687 14.1687C26.8209 14.2807 26.6346 14.2989 26.4696 14.2176L24.1694 13.0899C24.1218 13.0667 24.0706 13.055 24.0195 13.055C23.9684 13.055 23.9173 13.0667 23.8696 13.0899L21.5695 14.2176C21.4045 14.2989 21.2182 14.2804 21.0707 14.169C20.9232 14.0574 20.8487 13.8787 20.8717 13.6903L21.1921 11.0669C21.2052 10.9588 21.1712 10.85 21.0995 10.7708L19.3575 8.84409C19.2326 8.70603 19.1915 8.51589 19.2481 8.33574C19.3043 8.15523 19.445 8.02645 19.624 7.99114L22.1225 7.49742C22.2257 7.47708 22.3146 7.41002 22.365 7.31441L23.588 4.996C23.6758 4.82976 23.8374 4.73059 24.0195 4.73059C24.2017 4.73059 24.3633 4.82976 24.4507 4.996L25.6744 7.31441C25.7248 7.41002 25.814 7.47708 25.9169 7.49742L28.4154 7.99114C28.5944 8.02645 28.7347 8.15523 28.791 8.33574C28.8476 8.51589 28.8064 8.70603 28.6816 8.84444Z" />
<path d="M5.86928 28.8787L8.0195 27.8242L10.1701 28.8787C10.3354 28.9597 10.5097 29 10.6826 29C10.9282 29 11.1714 28.919 11.3817 28.7599C11.7398 28.4895 11.9203 28.055 11.8644 27.5984L11.5649 25.1458L13.1937 23.3446C13.4969 23.0093 13.5961 22.5477 13.4592 22.1096C13.3223 21.6719 12.981 21.3594 12.5463 21.2734L10.2105 20.8118L9.06682 18.645C8.85379 18.2412 8.46237 18.0004 8.01984 18C7.57731 18 7.18555 18.2412 6.97217 18.6446L5.8288 20.8118L3.49299 21.2734C3.058 21.3594 2.71667 21.6719 2.5798 22.11C2.44292 22.5477 2.5424 23.0097 2.84566 23.345L4.47445 25.1458L4.17462 27.5984C4.11905 28.0554 4.29949 28.4895 4.65763 28.7603C5.01543 29.0303 5.4686 29.0756 5.86928 28.8787ZM5.07066 28.1692C4.92315 28.0575 4.84871 27.8788 4.87169 27.6904L5.19244 25.067C5.20548 24.9589 5.17152 24.8501 5.09982 24.7705L3.35748 22.8441C3.23261 22.7061 3.19145 22.5159 3.24805 22.3358C3.30431 22.1553 3.44496 22.0265 3.62403 21.9912L6.12244 21.4975C6.2257 21.4771 6.31455 21.4101 6.36498 21.3144L7.58828 18.9964C7.67611 18.8301 7.83734 18.7306 8.0195 18.7306C8.20165 18.7306 8.36323 18.8301 8.45071 18.9964L9.67435 21.3144C9.72478 21.4101 9.81397 21.4771 9.91689 21.4975L12.4153 21.9912C12.5944 22.0265 12.7347 22.1553 12.7909 22.3358C12.8475 22.5159 12.8067 22.7064 12.6818 22.8441L10.9395 24.7705C10.8678 24.8501 10.8339 24.9589 10.8469 25.067L11.1673 27.6904C11.1903 27.8788 11.1162 28.0575 10.9687 28.1692C10.8208 28.2805 10.6345 28.2987 10.4699 28.218L8.16941 27.09C8.12172 27.0668 8.07061 27.0551 8.0195 27.0551C7.96838 27.0551 7.91727 27.0668 7.86958 27.09L5.5698 28.218C5.40479 28.2987 5.21817 28.2805 5.07066 28.1692Z" />
<path d="M28.4054 19.903L25.5947 19.3471L24.2183 16.738C23.9744 16.2758 23.5262 16 23.0194 16C22.5128 16 22.0647 16.2758 21.8208 16.738L20.4447 19.3471L17.6337 19.903C17.1356 20.0016 16.7451 20.3597 16.5885 20.8609C16.4319 21.362 16.5457 21.8908 16.8928 22.2743L18.8527 24.4429L18.4922 27.3951C18.4282 27.918 18.635 28.4155 19.045 28.7254C19.455 29.035 19.9729 29.0865 20.4317 28.8611L23.0197 27.5918L25.6074 28.8611C25.7969 28.9541 25.9962 28.9997 26.1941 28.9997C26.4755 28.9997 26.7533 28.9071 26.994 28.7254C27.4041 28.4155 27.6108 27.918 27.5468 27.3951L27.1863 24.4429L29.1463 22.2746C29.4934 21.8908 29.6072 21.362 29.4506 20.8609C29.294 20.3597 28.9034 20.0016 28.4054 19.903ZM28.6189 21.7588L26.542 24.0565C26.4681 24.1381 26.4331 24.2502 26.4465 24.3617L26.8286 27.49C26.8587 27.7363 26.7615 27.9702 26.5685 28.1162C26.3762 28.2621 26.1316 28.2857 25.9163 28.1801L23.1742 26.8351C23.125 26.8112 23.0724 26.7991 23.0197 26.7991C22.967 26.7991 22.9144 26.8112 22.8652 26.8351L20.1227 28.1801C19.9078 28.2857 19.6632 28.2621 19.4706 28.1162C19.2776 27.9702 19.1804 27.7363 19.2104 27.49L19.5925 24.3617C19.606 24.2502 19.571 24.1381 19.4971 24.0565L17.4202 21.7584C17.2569 21.5779 17.2031 21.3293 17.277 21.0936C17.3505 20.8576 17.5343 20.6892 17.7687 20.6428L20.7473 20.0538C20.8537 20.0328 20.9452 19.9637 20.9972 19.8652L22.4556 17.1005C22.5701 16.8828 22.7811 16.753 23.0194 16.753C23.2579 16.753 23.469 16.8828 23.5835 17.1005L25.0422 19.8652C25.0942 19.9637 25.1857 20.0328 25.2921 20.0538L28.2704 20.6428C28.5047 20.6892 28.6885 20.8576 28.7621 21.0936C28.8359 21.3293 28.7822 21.5779 28.6189 21.7588Z" />
<path d="M0.624866 0.105335C0.48442 0.245782 0.48442 0.473305 0.624866 0.613752L17.9058 17.8947C17.976 17.9649 18.068 18 18.16 18C18.252 18 18.344 17.9649 18.4142 17.8947C18.5546 17.7542 18.5546 17.5267 18.4142 17.3862L1.13328 0.105335C0.992837 -0.0351117 0.765313 -0.0351117 0.624866 0.105335Z" />
<path d="M8.62589 3.10635C8.48408 3.24816 8.48408 3.47789 8.62589 3.61969L15.8998 10.8936C15.9707 10.9645 16.0636 11 16.1565 11C16.2494 11 16.3423 10.9645 16.4132 10.8936C16.555 10.7518 16.555 10.5221 16.4132 10.3803L9.13922 3.10635C8.99742 2.96455 8.76769 2.96455 8.62589 3.10635Z" />
<path d="M7.85569 12.8531C7.69254 12.9664 7.67454 13.1717 7.81546 13.3117L12.6341 18.0999C12.7045 18.1699 12.8013 18.2103 12.9009 18.2191C13.0005 18.2278 13.1029 18.2049 13.1844 18.1482C13.3476 18.0348 13.3656 17.8296 13.2247 17.6895L8.40608 12.9014C8.26515 12.7613 8.01885 12.7397 7.85569 12.8531Z" />
<path d="M3.60404 9.08451C3.49136 9.19718 3.49136 9.37972 3.60404 9.49239L5.02714 10.9155C5.08347 10.9718 5.15728 11 5.23108 11C5.30488 11 5.37869 10.9718 5.43502 10.9155C5.5477 10.8028 5.5477 10.6203 5.43502 10.5076L4.01193 9.08451C3.89925 8.97183 3.71671 8.97183 3.60404 9.08451Z" />
<path d="M19.1723 5C19.2612 5 19.35 4.96609 19.4178 4.89828C19.5534 4.76266 19.5534 4.54296 19.4178 4.40734L15.1122 0.101716C14.9766 -0.0339052 14.7569 -0.0339052 14.6212 0.101716C14.4856 0.237336 14.4856 0.457042 14.6212 0.592663L18.9269 4.89828C18.9947 4.96609 19.0835 5 19.1723 5Z" />
<path d="M3.25563 17.9672C3.33358 17.9651 3.41073 17.9333 3.46862 17.8722C3.58442 17.75 3.57921 17.5572 3.457 17.4414L1.00293 15.1162C0.880711 15.0004 0.687924 15.0056 0.57213 15.1279C0.456336 15.2501 0.461537 15.4429 0.583752 15.5587L3.03783 17.8838C3.09893 17.9417 3.17768 17.9693 3.25563 17.9672Z" />
</svg>
