<svg width="283" height="116" viewBox="0 0 283 116" fill="none" xmlns="http://www.w3.org/2000/svg">
<g clip-path="url(#clip0_4680_2429)">
<path d="M100 43.2079L108.492 46.6693C109.276 46.9888 109.668 47.1484 109.998 47.3931C110.291 47.6099 110.548 47.875 110.757 48.1778C110.994 48.5194 111.149 48.9244 111.458 49.7346L114.807 58.511L118.156 49.7346C118.465 48.9244 118.62 48.5194 118.857 48.1778C119.066 47.875 119.323 47.6099 119.616 47.3931C119.946 47.1484 120.338 46.9888 121.122 46.6693L129.614 43.2079L121.122 39.7465C120.338 39.427 119.946 39.2672 119.616 39.0226C119.323 38.8058 119.066 38.5407 118.857 38.2379C118.62 37.8964 118.465 37.4913 118.156 36.6812L114.807 27.9048L111.458 36.6812C111.149 37.4913 110.994 37.8964 110.757 38.2379C110.548 38.5407 110.291 38.8058 109.998 39.0226C109.668 39.2672 109.276 39.427 108.492 39.7465L100 43.2079Z" fill="#441989"/>
<path d="M21 9.86199L26.6319 11.4292C27.3191 11.6204 27.6627 11.716 27.9437 11.9047C28.1922 12.0717 28.4041 12.2908 28.5658 12.5477C28.7483 12.838 28.8409 13.1932 29.0259 13.9034L30.5423 19.724L32.0587 13.9034C32.2437 13.1932 32.3362 12.838 32.5188 12.5477C32.6804 12.2908 32.8923 12.0717 33.141 11.9047C33.4218 11.716 33.7654 11.6204 34.4527 11.4292L40.0846 9.86199L34.4527 8.29481C33.7654 8.1036 33.4218 8.00794 33.141 7.81925C32.8923 7.65221 32.6804 7.43319 32.5188 7.1763C32.3362 6.88596 32.2437 6.53083 32.0587 5.82056L30.5423 -4.31081e-07L29.0259 5.82056C28.8409 6.53083 28.7483 6.88596 28.5658 7.1763C28.4041 7.43319 28.1922 7.65221 27.9437 7.81925C27.6627 8.00794 27.3191 8.1036 26.6319 8.29481L21 9.86199Z" fill="#441989"/>
<path d="M4.17106e-07 20.197L5.63186 21.7641C6.31911 21.9553 6.66273 22.051 6.94365 22.2397C7.19222 22.4067 7.40413 22.6257 7.56576 22.8827C7.74833 23.173 7.84089 23.5281 8.02591 24.2384L9.54228 30.0589L11.0587 24.2384C11.2437 23.5281 11.3362 23.173 11.5188 22.8827C11.6804 22.6257 11.8923 22.4067 12.141 22.2397C12.4218 22.051 12.7654 21.9553 13.4527 21.7641L19.0846 20.197L13.4527 18.6298C12.7654 18.4386 12.4218 18.3429 12.141 18.1542C11.8923 17.9872 11.6804 17.7682 11.5188 17.5113C11.3362 17.2209 11.2437 16.8658 11.0587 16.1555L9.54228 10.335L8.02591 16.1555C7.84089 16.8658 7.74833 17.2209 7.56576 17.5113C7.40413 17.7682 7.19222 17.9872 6.94365 18.1542C6.66273 18.3429 6.31911 18.4386 5.63186 18.6298L4.17106e-07 20.197Z" fill="#441989"/>
<path d="M2 107.011L7.63186 108.579C8.31911 108.77 8.66273 108.865 8.94365 109.054C9.19222 109.221 9.40413 109.44 9.56576 109.697C9.74833 109.987 9.84089 110.343 10.0259 111.053L11.5423 116.873L13.0587 111.053C13.2437 110.343 13.3362 109.987 13.5188 109.697C13.6804 109.44 13.8923 109.221 14.141 109.054C14.4218 108.865 14.7654 108.77 15.4527 108.579L21.0846 107.011L15.4527 105.444C14.7654 105.253 14.4218 105.157 14.141 104.969C13.8923 104.802 13.6804 104.583 13.5188 104.326C13.3362 104.035 13.2437 103.68 13.0587 102.97L11.5423 97.1494L10.0259 102.97C9.84089 103.68 9.74833 104.035 9.56576 104.326C9.40413 104.583 9.19222 104.802 8.94365 104.969C8.66273 105.157 8.31911 105.253 7.63186 105.444L2 107.011Z" fill="#441989"/>
<path d="M120 58.4367L125.632 60.0039C126.319 60.1951 126.663 60.2908 126.944 60.4794C127.192 60.6464 127.404 60.8655 127.566 61.1225C127.748 61.4127 127.841 61.7679 128.026 62.4781L129.542 68.2987L131.059 62.4781C131.244 61.7679 131.336 61.4127 131.519 61.1225C131.68 60.8655 131.892 60.6464 132.141 60.4794C132.422 60.2908 132.765 60.1951 133.453 60.0039L139.085 58.4367L133.453 56.8695C132.765 56.6783 132.422 56.5826 132.141 56.394C131.892 56.2269 131.68 56.0079 131.519 55.751C131.336 55.4607 131.244 55.1055 131.059 54.3953L129.542 48.5747L128.026 54.3953C127.841 55.1055 127.748 55.4607 127.566 55.751C127.404 56.0079 127.192 56.2269 126.944 56.394C126.663 56.5826 126.319 56.6783 125.632 56.8695L120 58.4367Z" fill="#441989"/>
<path d="M262 105.978L267.632 107.545C268.319 107.737 268.663 107.832 268.944 108.021C269.192 108.188 269.404 108.407 269.566 108.664C269.748 108.954 269.841 109.309 270.026 110.02L271.542 115.84L273.059 110.02C273.244 109.309 273.336 108.954 273.519 108.664C273.68 108.407 273.892 108.188 274.141 108.021C274.422 107.832 274.765 107.737 275.453 107.545L281.085 105.978L275.453 104.411C274.765 104.22 274.422 104.124 274.141 103.935C273.892 103.768 273.68 103.549 273.519 103.293C273.336 103.002 273.244 102.647 273.059 101.937L271.542 96.1162L270.026 101.937C269.841 102.647 269.748 103.002 269.566 103.293C269.404 103.549 269.192 103.768 268.944 103.935C268.663 104.124 268.319 104.22 267.632 104.411L262 105.978Z" fill="#441989"/>
</g>
<defs>
<clipPath id="clip0_4680_2429">
<rect width="283" height="116" fill="white"/>
</clipPath>
</defs>
</svg>
