<svg width="393" height="787" viewBox="0 0 393 787" fill="none" xmlns="http://www.w3.org/2000/svg">
<g filter="url(#filter0_d_4583_2302)">
<path d="M303 38.807L311.492 42.1562C312.276 42.4653 312.668 42.6198 312.998 42.8565C313.291 43.0663 313.548 43.3228 313.757 43.6158C313.994 43.9463 314.149 44.3382 314.458 45.1222L317.807 53.614L321.156 45.1222C321.465 44.3382 321.62 43.9463 321.857 43.6158C322.066 43.3228 322.323 43.0663 322.616 42.8565C322.946 42.6198 323.338 42.4653 324.122 42.1562L332.614 38.807L324.122 35.4578C323.338 35.1487 322.946 34.9941 322.616 34.7574C322.323 34.5476 322.066 34.2911 321.857 33.9982C321.62 33.6677 321.465 33.2757 321.156 32.4919L317.807 24L314.458 32.4919C314.149 33.2757 313.994 33.6677 313.757 33.9982C313.548 34.2911 313.291 34.5476 312.998 34.7574C312.668 34.9941 312.276 35.1487 311.492 35.4578L303 38.807Z" fill="#4B189E"/>
</g>
<g filter="url(#filter1_d_4583_2302)">
<path d="M88 198.807L96.4919 202.156C97.2757 202.465 97.6677 202.62 97.9982 202.857C98.2911 203.066 98.5476 203.323 98.7574 203.616C98.9941 203.946 99.1487 204.338 99.4578 205.122L102.807 213.614L106.156 205.122C106.465 204.338 106.62 203.946 106.857 203.616C107.066 203.323 107.323 203.066 107.616 202.857C107.946 202.62 108.338 202.465 109.122 202.156L117.614 198.807L109.122 195.458C108.338 195.149 107.946 194.994 107.616 194.757C107.323 194.548 107.066 194.291 106.857 193.998C106.62 193.668 106.465 193.276 106.156 192.492L102.807 184L99.4578 192.492C99.1487 193.276 98.9941 193.668 98.7574 193.998C98.5476 194.291 98.2911 194.548 97.9982 194.757C97.6677 194.994 97.2757 195.149 96.4919 195.458L88 198.807Z" fill="#4B189E"/>
</g>
<g filter="url(#filter2_d_4583_2302)">
<path d="M333 200.807L341.492 204.156C342.276 204.465 342.668 204.62 342.998 204.857C343.291 205.066 343.548 205.323 343.757 205.616C343.994 205.946 344.149 206.338 344.458 207.122L347.807 215.614L351.156 207.122C351.465 206.338 351.62 205.946 351.857 205.616C352.066 205.323 352.323 205.066 352.616 204.857C352.946 204.62 353.338 204.465 354.122 204.156L362.614 200.807L354.122 197.458C353.338 197.149 352.946 196.994 352.616 196.757C352.323 196.548 352.066 196.291 351.857 195.998C351.62 195.668 351.465 195.276 351.156 194.492L347.807 186L344.458 194.492C344.149 195.276 343.994 195.668 343.757 195.998C343.548 196.291 343.291 196.548 342.998 196.757C342.668 196.994 342.276 197.149 341.492 197.458L333 200.807Z" fill="#4B189E"/>
</g>
<g filter="url(#filter3_d_4583_2302)">
<path d="M190 64.807L198.492 68.1562C199.276 68.4653 199.668 68.6198 199.998 68.8565C200.291 69.0663 200.548 69.3228 200.757 69.6158C200.994 69.9463 201.149 70.3382 201.458 71.1222L204.807 79.614L208.156 71.1222C208.465 70.3382 208.62 69.9463 208.857 69.6158C209.066 69.3228 209.323 69.0663 209.616 68.8565C209.946 68.6198 210.338 68.4653 211.122 68.1562L219.614 64.807L211.122 61.4578C210.338 61.1487 209.946 60.9941 209.616 60.7574C209.323 60.5476 209.066 60.2911 208.857 59.9982C208.62 59.6677 208.465 59.2757 208.156 58.4919L204.807 50L201.458 58.4919C201.149 59.2757 200.994 59.6677 200.757 59.9982C200.548 60.2911 200.291 60.5476 199.998 60.7574C199.668 60.9941 199.276 61.1487 198.492 61.4578L190 64.807Z" fill="#4B189E"/>
</g>
<g filter="url(#filter4_d_4583_2302)">
<path d="M29 44.807L37.4919 48.1562C38.2757 48.4653 38.6677 48.6198 38.9982 48.8565C39.2911 49.0663 39.5476 49.3228 39.7574 49.6158C39.9941 49.9463 40.1487 50.3382 40.4578 51.1222L43.807 59.614L47.1562 51.1222C47.4653 50.3382 47.6198 49.9463 47.8565 49.6158C48.0663 49.3228 48.3228 49.0663 48.6158 48.8565C48.9463 48.6198 49.3382 48.4653 50.1222 48.1562L58.614 44.807L50.1222 41.4578C49.3382 41.1487 48.9463 40.9941 48.6158 40.7574C48.3228 40.5476 48.0663 40.2911 47.8565 39.9982C47.6198 39.6677 47.4653 39.2757 47.1562 38.4919L43.807 30L40.4578 38.4919C40.1487 39.2757 39.9941 39.6677 39.7574 39.9982C39.5476 40.2911 39.2911 40.5476 38.9982 40.7574C38.6677 40.9941 38.2757 41.1487 37.4919 41.4578L29 44.807Z" fill="#4B189E"/>
</g>
<g filter="url(#filter5_d_4583_2302)">
<path d="M211.063 166.179L216.694 167.695C217.382 167.88 217.725 167.973 218.006 168.156C218.255 168.317 218.467 168.529 218.628 168.778C218.811 169.059 218.903 169.402 219.088 170.089L220.605 175.721L222.121 170.089C222.306 169.402 222.399 169.059 222.581 168.778C222.743 168.529 222.955 168.317 223.203 168.156C223.484 167.973 223.828 167.88 224.515 167.695L230.147 166.179L224.515 164.663C223.828 164.478 223.484 164.385 223.203 164.202C222.955 164.041 222.743 163.829 222.581 163.58C222.399 163.299 222.306 162.956 222.121 162.269L220.605 156.637L219.088 162.269C218.903 162.956 218.811 163.299 218.628 163.58C218.467 163.829 218.255 164.041 218.006 164.202C217.725 164.385 217.382 164.478 216.694 164.663L211.063 166.179Z" fill="#4B189E"/>
</g>
<g filter="url(#filter6_d_4583_2302)">
<path d="M152.492 221.458L158.124 222.975C158.811 223.16 159.155 223.252 159.436 223.435C159.684 223.596 159.896 223.808 160.058 224.057C160.241 224.338 160.333 224.681 160.518 225.369L162.034 231.001L163.551 225.369C163.736 224.681 163.828 224.338 164.011 224.057C164.173 223.808 164.385 223.596 164.633 223.435C164.914 223.252 165.258 223.16 165.945 222.975L171.577 221.458L165.945 219.942C165.258 219.757 164.914 219.664 164.633 219.482C164.385 219.32 164.173 219.108 164.011 218.86C163.828 218.579 163.736 218.235 163.551 217.548L162.034 211.916L160.518 217.548C160.333 218.235 160.241 218.579 160.058 218.86C159.896 219.108 159.684 219.32 159.436 219.482C159.155 219.664 158.811 219.757 158.124 219.942L152.492 221.458Z" fill="#4B189E"/>
</g>
<g filter="url(#filter7_d_4583_2302)">
<path d="M121 35.5423L126.632 37.0587C127.319 37.2437 127.663 37.3362 127.944 37.5188C128.192 37.6804 128.404 37.8923 128.566 38.141C128.748 38.4218 128.841 38.7654 129.026 39.4527L130.542 45.0846L132.059 39.4527C132.244 38.7654 132.336 38.4218 132.519 38.141C132.68 37.8923 132.892 37.6804 133.141 37.5188C133.422 37.3362 133.765 37.2437 134.453 37.0587L140.085 35.5423L134.453 34.0259C133.765 33.8409 133.422 33.7483 133.141 33.5658C132.892 33.4041 132.68 33.1922 132.519 32.9437C132.336 32.6627 132.244 32.3191 132.059 31.6319L130.542 26L129.026 31.6319C128.841 32.3191 128.748 32.6627 128.566 32.9437C128.404 33.1922 128.192 33.4041 127.944 33.5658C127.663 33.7483 127.319 33.8409 126.632 34.0259L121 35.5423Z" fill="#4B189E"/>
</g>
<g filter="url(#filter8_d_4583_2302)">
<path d="M56 59.5423L61.6319 61.0587C62.3191 61.2437 62.6627 61.3362 62.9437 61.5188C63.1922 61.6804 63.4041 61.8923 63.5658 62.141C63.7483 62.4218 63.8409 62.7654 64.0259 63.4527L65.5423 69.0846L67.0587 63.4527C67.2437 62.7654 67.3362 62.4218 67.5188 62.141C67.6804 61.8923 67.8923 61.6804 68.141 61.5188C68.4218 61.3362 68.7654 61.2437 69.4527 61.0587L75.0846 59.5423L69.4527 58.0259C68.7654 57.8409 68.4218 57.7483 68.141 57.5658C67.8923 57.4041 67.6804 57.1922 67.5188 56.9437C67.3362 56.6627 67.2437 56.3191 67.0587 55.6319L65.5423 50L64.0259 55.6319C63.8409 56.3191 63.7483 56.6627 63.5658 56.9437C63.4041 57.1922 63.1922 57.4041 62.9437 57.5658C62.6627 57.7483 62.3191 57.8409 61.6319 58.0259L56 59.5423Z" fill="#4B189E"/>
</g>
<g filter="url(#filter9_d_4583_2302)">
<path d="M283 29.5423L288.632 31.0587C289.319 31.2437 289.663 31.3362 289.944 31.5188C290.192 31.6804 290.404 31.8923 290.566 32.141C290.748 32.4218 290.841 32.7654 291.026 33.4527L292.542 39.0846L294.059 33.4527C294.244 32.7654 294.336 32.4218 294.519 32.141C294.68 31.8923 294.892 31.6804 295.141 31.5188C295.422 31.3362 295.765 31.2437 296.453 31.0587L302.085 29.5423L296.453 28.0259C295.765 27.8409 295.422 27.7483 295.141 27.5658C294.892 27.4041 294.68 27.1922 294.519 26.9437C294.336 26.6627 294.244 26.3191 294.059 25.6319L292.542 20L291.026 25.6319C290.841 26.3191 290.748 26.6627 290.566 26.9437C290.404 27.1922 290.192 27.4041 289.944 27.5658C289.663 27.7483 289.319 27.8409 288.632 28.0259L283 29.5423Z" fill="#4B189E"/>
</g>
<g filter="url(#filter10_d_4583_2302)">
<path d="M34 168.542L39.6319 170.059C40.3191 170.244 40.6627 170.336 40.9437 170.519C41.1922 170.68 41.4041 170.892 41.5658 171.141C41.7483 171.422 41.8409 171.765 42.0259 172.453L43.5423 178.085L45.0587 172.453C45.2437 171.765 45.3362 171.422 45.5188 171.141C45.6804 170.892 45.8923 170.68 46.141 170.519C46.4218 170.336 46.7654 170.244 47.4527 170.059L53.0846 168.542L47.4527 167.026C46.7654 166.841 46.4218 166.748 46.141 166.566C45.8923 166.404 45.6804 166.192 45.5188 165.944C45.3362 165.663 45.2437 165.319 45.0587 164.632L43.5423 159L42.0259 164.632C41.8409 165.319 41.7483 165.663 41.5658 165.944C41.4041 166.192 41.1922 166.404 40.9437 166.566C40.6627 166.748 40.3191 166.841 39.6319 167.026L34 168.542Z" fill="#4B189E"/>
</g>
<path fill-rule="evenodd" clip-rule="evenodd" d="M0 543V338V316C0 315.326 0.0277431 314.659 0.0821488 314H0V231.356C5.2332 230.553 10.9542 231.041 17.0273 233.515C25.2337 236.558 33.6185 244.318 33.6185 257.402C34.2088 257.503 34.8871 257.558 35.6379 257.618C39.425 257.925 45.0578 258.381 50.5665 265.618C55.2049 263.184 60.0217 262.271 66.2657 263.944C66.7764 263.534 67.3175 262.956 67.9425 262.288L67.9426 262.288L67.9427 262.288C71.0296 258.989 76.1657 253.501 89.8145 255.272C102.945 256.976 105.157 267.647 104.622 272.769C111.362 273.118 123.264 276.252 128.469 285.409C138.291 283.657 140.867 284.544 140.982 285.321C141.288 278.673 145.732 265.235 161.22 263.524C176.821 261.801 184.312 271.421 186.107 276.446C190.936 274.831 202.117 273.243 208.209 279.811C208.631 279.463 209.097 279.054 209.613 278.6C214.091 274.663 222.348 267.404 238.667 268.37C237.182 263.524 238.11 244.142 266.34 249.526C266.462 249.366 266.597 249.185 266.746 248.986C270.221 244.328 281.165 229.66 306.457 237.277C323.729 242.479 323.729 254.703 323.729 260.832C330.105 260.294 343.193 262.663 344.53 276.446C348.059 276.446 355.599 277.9 357.531 283.714C358.248 283.489 359.156 283.11 360.239 282.658C366.415 280.079 378.289 275.121 393 282.729V314H392.918C392.972 314.659 393 315.326 393 316V338V543C393 556.255 382.255 567 369 567H24C10.7452 567 0 556.255 0 543Z" fill="#4C1D95"/>
<path fill-rule="evenodd" clip-rule="evenodd" d="M0.000307083 338L0 757.779C42.3671 771.215 95.8695 781.285 145.5 773.499C253.5 756.558 303.719 715.057 353.5 663.999C371.584 645.452 384.125 627.908 393 611.928V316C393 315.425 392.98 314.855 392.94 314.291L393 314.301V250.592C386.183 241.639 373.927 232.119 359.13 239.035C352.378 241.907 345.479 249.23 345.479 261.58C344.993 261.675 344.435 261.727 343.817 261.784C340.701 262.074 336.067 262.504 331.534 269.335C327.718 267.037 323.755 266.175 318.617 267.755C318.197 267.368 317.753 266.823 317.239 266.194L317.238 266.193L317.238 266.192L317.237 266.192C314.698 263.078 310.472 257.898 299.242 259.57C288.438 261.178 286.618 271.249 287.059 276.084C286.502 276.117 285.902 276.143 285.269 276.171C278.187 276.483 266.978 276.975 265.498 289.166L247.864 288.683C245.925 279.959 235.53 269.304 213.731 284.611C205.706 282.667 203.612 283.622 203.52 284.458C203.276 277.379 199.737 263.068 187.402 261.246C174.977 259.411 169.011 269.655 167.581 275.007C163.735 273.287 154.83 271.595 149.979 278.591C149.642 278.22 149.271 277.784 148.86 277.301C145.294 273.108 138.718 265.378 125.72 266.406C126.904 261.246 126.164 240.605 103.681 246.338C103.584 246.168 103.476 245.975 103.358 245.763C100.59 240.803 91.8737 225.183 71.731 233.294C57.9748 238.834 57.9748 251.852 57.9748 258.379C52.8963 257.806 42.4732 260.329 41.4082 275.007C38.5978 275.007 32.5924 276.555 31.054 282.747C30.4828 282.507 29.7596 282.104 28.8968 281.622C23.5913 278.66 13.0056 272.75 0.000307083 283.865V317L0.000506401 317L0.000307083 338ZM393 682.926C358.353 722.858 290.938 752.907 257 765C236.748 772.216 232 775.333 250 783.5C269.753 792.462 338.682 782.507 393 766.916V682.926Z" fill="#8B5CF6"/>
<defs>
<filter id="filter0_d_4583_2302" x="222.7" y="-56.3" width="190.214" height="190.214" filterUnits="userSpaceOnUse" color-interpolation-filters="sRGB">
<feFlood flood-opacity="0" result="BackgroundImageFix"/>
<feColorMatrix in="SourceAlpha" type="matrix" values="0 0 0 0 0 0 0 0 0 0 0 0 0 0 0 0 0 0 127 0" result="hardAlpha"/>
<feOffset/>
<feGaussianBlur stdDeviation="40.15"/>
<feComposite in2="hardAlpha" operator="out"/>
<feColorMatrix type="matrix" values="0 0 0 0 1 0 0 0 0 1 0 0 0 0 1 0 0 0 1 0"/>
<feBlend mode="normal" in2="BackgroundImageFix" result="effect1_dropShadow_4583_2302"/>
<feBlend mode="normal" in="SourceGraphic" in2="effect1_dropShadow_4583_2302" result="shape"/>
</filter>
<filter id="filter1_d_4583_2302" x="7.7" y="103.7" width="190.214" height="190.214" filterUnits="userSpaceOnUse" color-interpolation-filters="sRGB">
<feFlood flood-opacity="0" result="BackgroundImageFix"/>
<feColorMatrix in="SourceAlpha" type="matrix" values="0 0 0 0 0 0 0 0 0 0 0 0 0 0 0 0 0 0 127 0" result="hardAlpha"/>
<feOffset/>
<feGaussianBlur stdDeviation="40.15"/>
<feComposite in2="hardAlpha" operator="out"/>
<feColorMatrix type="matrix" values="0 0 0 0 1 0 0 0 0 1 0 0 0 0 1 0 0 0 1 0"/>
<feBlend mode="normal" in2="BackgroundImageFix" result="effect1_dropShadow_4583_2302"/>
<feBlend mode="normal" in="SourceGraphic" in2="effect1_dropShadow_4583_2302" result="shape"/>
</filter>
<filter id="filter2_d_4583_2302" x="252.7" y="105.7" width="190.214" height="190.214" filterUnits="userSpaceOnUse" color-interpolation-filters="sRGB">
<feFlood flood-opacity="0" result="BackgroundImageFix"/>
<feColorMatrix in="SourceAlpha" type="matrix" values="0 0 0 0 0 0 0 0 0 0 0 0 0 0 0 0 0 0 127 0" result="hardAlpha"/>
<feOffset/>
<feGaussianBlur stdDeviation="40.15"/>
<feComposite in2="hardAlpha" operator="out"/>
<feColorMatrix type="matrix" values="0 0 0 0 1 0 0 0 0 1 0 0 0 0 1 0 0 0 1 0"/>
<feBlend mode="normal" in2="BackgroundImageFix" result="effect1_dropShadow_4583_2302"/>
<feBlend mode="normal" in="SourceGraphic" in2="effect1_dropShadow_4583_2302" result="shape"/>
</filter>
<filter id="filter3_d_4583_2302" x="109.7" y="-30.3" width="190.214" height="190.214" filterUnits="userSpaceOnUse" color-interpolation-filters="sRGB">
<feFlood flood-opacity="0" result="BackgroundImageFix"/>
<feColorMatrix in="SourceAlpha" type="matrix" values="0 0 0 0 0 0 0 0 0 0 0 0 0 0 0 0 0 0 127 0" result="hardAlpha"/>
<feOffset/>
<feGaussianBlur stdDeviation="40.15"/>
<feComposite in2="hardAlpha" operator="out"/>
<feColorMatrix type="matrix" values="0 0 0 0 1 0 0 0 0 1 0 0 0 0 1 0 0 0 1 0"/>
<feBlend mode="normal" in2="BackgroundImageFix" result="effect1_dropShadow_4583_2302"/>
<feBlend mode="normal" in="SourceGraphic" in2="effect1_dropShadow_4583_2302" result="shape"/>
</filter>
<filter id="filter4_d_4583_2302" x="-51.3" y="-50.3" width="190.214" height="190.214" filterUnits="userSpaceOnUse" color-interpolation-filters="sRGB">
<feFlood flood-opacity="0" result="BackgroundImageFix"/>
<feColorMatrix in="SourceAlpha" type="matrix" values="0 0 0 0 0 0 0 0 0 0 0 0 0 0 0 0 0 0 127 0" result="hardAlpha"/>
<feOffset/>
<feGaussianBlur stdDeviation="40.15"/>
<feComposite in2="hardAlpha" operator="out"/>
<feColorMatrix type="matrix" values="0 0 0 0 1 0 0 0 0 1 0 0 0 0 1 0 0 0 1 0"/>
<feBlend mode="normal" in2="BackgroundImageFix" result="effect1_dropShadow_4583_2302"/>
<feBlend mode="normal" in="SourceGraphic" in2="effect1_dropShadow_4583_2302" result="shape"/>
</filter>
<filter id="filter5_d_4583_2302" x="130.762" y="76.3367" width="179.684" height="179.684" filterUnits="userSpaceOnUse" color-interpolation-filters="sRGB">
<feFlood flood-opacity="0" result="BackgroundImageFix"/>
<feColorMatrix in="SourceAlpha" type="matrix" values="0 0 0 0 0 0 0 0 0 0 0 0 0 0 0 0 0 0 127 0" result="hardAlpha"/>
<feOffset/>
<feGaussianBlur stdDeviation="40.15"/>
<feComposite in2="hardAlpha" operator="out"/>
<feColorMatrix type="matrix" values="0 0 0 0 1 0 0 0 0 1 0 0 0 0 1 0 0 0 1 0"/>
<feBlend mode="normal" in2="BackgroundImageFix" result="effect1_dropShadow_4583_2302"/>
<feBlend mode="normal" in="SourceGraphic" in2="effect1_dropShadow_4583_2302" result="shape"/>
</filter>
<filter id="filter6_d_4583_2302" x="72.1922" y="131.616" width="179.684" height="179.684" filterUnits="userSpaceOnUse" color-interpolation-filters="sRGB">
<feFlood flood-opacity="0" result="BackgroundImageFix"/>
<feColorMatrix in="SourceAlpha" type="matrix" values="0 0 0 0 0 0 0 0 0 0 0 0 0 0 0 0 0 0 127 0" result="hardAlpha"/>
<feOffset/>
<feGaussianBlur stdDeviation="40.15"/>
<feComposite in2="hardAlpha" operator="out"/>
<feColorMatrix type="matrix" values="0 0 0 0 1 0 0 0 0 1 0 0 0 0 1 0 0 0 1 0"/>
<feBlend mode="normal" in2="BackgroundImageFix" result="effect1_dropShadow_4583_2302"/>
<feBlend mode="normal" in="SourceGraphic" in2="effect1_dropShadow_4583_2302" result="shape"/>
</filter>
<filter id="filter7_d_4583_2302" x="40.7" y="-54.3" width="179.684" height="179.684" filterUnits="userSpaceOnUse" color-interpolation-filters="sRGB">
<feFlood flood-opacity="0" result="BackgroundImageFix"/>
<feColorMatrix in="SourceAlpha" type="matrix" values="0 0 0 0 0 0 0 0 0 0 0 0 0 0 0 0 0 0 127 0" result="hardAlpha"/>
<feOffset/>
<feGaussianBlur stdDeviation="40.15"/>
<feComposite in2="hardAlpha" operator="out"/>
<feColorMatrix type="matrix" values="0 0 0 0 1 0 0 0 0 1 0 0 0 0 1 0 0 0 1 0"/>
<feBlend mode="normal" in2="BackgroundImageFix" result="effect1_dropShadow_4583_2302"/>
<feBlend mode="normal" in="SourceGraphic" in2="effect1_dropShadow_4583_2302" result="shape"/>
</filter>
<filter id="filter8_d_4583_2302" x="-24.3" y="-30.3" width="179.684" height="179.684" filterUnits="userSpaceOnUse" color-interpolation-filters="sRGB">
<feFlood flood-opacity="0" result="BackgroundImageFix"/>
<feColorMatrix in="SourceAlpha" type="matrix" values="0 0 0 0 0 0 0 0 0 0 0 0 0 0 0 0 0 0 127 0" result="hardAlpha"/>
<feOffset/>
<feGaussianBlur stdDeviation="40.15"/>
<feComposite in2="hardAlpha" operator="out"/>
<feColorMatrix type="matrix" values="0 0 0 0 1 0 0 0 0 1 0 0 0 0 1 0 0 0 1 0"/>
<feBlend mode="normal" in2="BackgroundImageFix" result="effect1_dropShadow_4583_2302"/>
<feBlend mode="normal" in="SourceGraphic" in2="effect1_dropShadow_4583_2302" result="shape"/>
</filter>
<filter id="filter9_d_4583_2302" x="202.7" y="-60.3" width="179.684" height="179.684" filterUnits="userSpaceOnUse" color-interpolation-filters="sRGB">
<feFlood flood-opacity="0" result="BackgroundImageFix"/>
<feColorMatrix in="SourceAlpha" type="matrix" values="0 0 0 0 0 0 0 0 0 0 0 0 0 0 0 0 0 0 127 0" result="hardAlpha"/>
<feOffset/>
<feGaussianBlur stdDeviation="40.15"/>
<feComposite in2="hardAlpha" operator="out"/>
<feColorMatrix type="matrix" values="0 0 0 0 1 0 0 0 0 1 0 0 0 0 1 0 0 0 1 0"/>
<feBlend mode="normal" in2="BackgroundImageFix" result="effect1_dropShadow_4583_2302"/>
<feBlend mode="normal" in="SourceGraphic" in2="effect1_dropShadow_4583_2302" result="shape"/>
</filter>
<filter id="filter10_d_4583_2302" x="-46.3" y="78.7" width="179.684" height="179.684" filterUnits="userSpaceOnUse" color-interpolation-filters="sRGB">
<feFlood flood-opacity="0" result="BackgroundImageFix"/>
<feColorMatrix in="SourceAlpha" type="matrix" values="0 0 0 0 0 0 0 0 0 0 0 0 0 0 0 0 0 0 127 0" result="hardAlpha"/>
<feOffset/>
<feGaussianBlur stdDeviation="40.15"/>
<feComposite in2="hardAlpha" operator="out"/>
<feColorMatrix type="matrix" values="0 0 0 0 1 0 0 0 0 1 0 0 0 0 1 0 0 0 1 0"/>
<feBlend mode="normal" in2="BackgroundImageFix" result="effect1_dropShadow_4583_2302"/>
<feBlend mode="normal" in="SourceGraphic" in2="effect1_dropShadow_4583_2302" result="shape"/>
</filter>
</defs>
</svg>
