<svg width="331" height="146" viewBox="0 0 331 146" fill="none" xmlns="http://www.w3.org/2000/svg">
<g style="mix-blend-mode:soft-light" opacity="0.61">
<path d="M20.7719 41.543L25.4702 29.6302C25.9039 28.5306 26.1206 27.9807 26.4527 27.5171C26.747 27.1062 27.1068 26.7463 27.5179 26.452C27.9815 26.12 28.5313 25.9031 29.6311 25.4694L41.5437 20.7711L29.6311 16.0727C28.5313 15.6391 27.9815 15.4224 27.5179 15.0902C27.1068 14.796 26.747 14.4362 26.4527 14.0251C26.1206 13.5614 25.9039 13.0117 25.4702 11.9119L20.7719 -0.000749497L16.0735 11.9119C15.6398 13.0117 15.423 13.5614 15.091 14.0251C14.7966 14.4362 14.4368 14.796 14.0258 15.0902C13.5622 15.4224 13.0124 15.6391 11.9127 16.0727L-1.81593e-06 20.7711L11.9127 25.4694C13.0124 25.9031 13.5622 26.12 14.0258 26.452C14.4368 26.7463 14.7966 27.1062 15.091 27.5171C15.423 27.9807 15.6398 28.5306 16.0735 29.6302L20.7719 41.543Z" fill="#F9FAFB"/>
<path d="M317.386 145.771L319.514 137.871C319.773 136.907 319.903 136.425 320.159 136.031C320.386 135.682 320.683 135.385 321.032 135.158C321.426 134.902 321.908 134.772 322.872 134.512L330.773 132.385L322.872 130.258C321.908 129.998 321.426 129.869 321.032 129.612C320.683 129.386 320.386 129.088 320.159 128.74C319.903 128.346 319.773 127.864 319.514 126.899L317.386 118.999L315.259 126.899C315 127.864 314.87 128.346 314.614 128.74C314.387 129.088 314.09 129.386 313.741 129.612C313.347 129.869 312.865 129.998 311.901 130.258L304 132.385L311.901 134.512C312.865 134.772 313.347 134.902 313.741 135.158C314.09 135.385 314.387 135.682 314.614 136.031C314.87 136.425 315 136.907 315.259 137.871L317.386 145.771Z" fill="#F9FAFB"/>
</g>
</svg>
