<svg width="193" height="216" viewBox="0 0 193 216" fill="none" xmlns="http://www.w3.org/2000/svg">
<g style="mix-blend-mode:soft-light" opacity="0.61">
<g filter="url(#filter0_d_4422_3080)">
<path d="M101.772 122.543L106.47 110.631C106.904 109.531 107.121 108.981 107.453 108.518C107.747 108.107 108.107 107.747 108.518 107.452C108.982 107.12 109.531 106.904 110.631 106.47L122.544 101.772L110.631 97.0732C109.531 96.6396 108.982 96.4228 108.518 96.0907C108.107 95.7965 107.747 95.4366 107.453 95.0256C107.121 94.5619 106.904 94.0122 106.47 92.9124L101.772 80.9997L97.0735 92.9124C96.6398 94.0122 96.423 94.5619 96.091 95.0256C95.7966 95.4366 95.4368 95.7965 95.0258 96.0907C94.5622 96.4228 94.0124 96.6396 92.9127 97.0732L81 101.772L92.9127 106.47C94.0124 106.904 94.5622 107.12 95.0258 107.452C95.4368 107.747 95.7966 108.107 96.091 108.518C96.423 108.981 96.6398 109.531 97.0735 110.631L101.772 122.543Z" fill="#F9FAFB"/>
</g>
<g filter="url(#filter1_d_4422_3080)">
<path d="M125.386 134.771L127.514 126.871C127.773 125.907 127.903 125.425 128.159 125.031C128.386 124.682 128.683 124.385 129.032 124.158C129.426 123.902 129.908 123.772 130.872 123.512L138.773 121.385L130.872 119.258C129.908 118.998 129.426 118.869 129.032 118.612C128.683 118.386 128.386 118.088 128.159 117.74C127.903 117.346 127.773 116.864 127.514 115.899L125.386 107.999L123.259 115.899C123 116.864 122.87 117.346 122.614 117.74C122.387 118.088 122.09 118.386 121.741 118.612C121.347 118.869 120.865 118.998 119.901 119.258L112 121.385L119.901 123.512C120.865 123.772 121.347 123.902 121.741 124.158C122.09 124.385 122.387 124.682 122.614 125.031C122.87 125.425 123 125.907 123.259 126.871L125.386 134.771Z" fill="#F9FAFB"/>
</g>
</g>
<defs>
<filter id="filter0_d_4422_3080" x="0.699997" y="0.699509" width="202.144" height="202.144" filterUnits="userSpaceOnUse" color-interpolation-filters="sRGB">
<feFlood flood-opacity="0" result="BackgroundImageFix"/>
<feColorMatrix in="SourceAlpha" type="matrix" values="0 0 0 0 0 0 0 0 0 0 0 0 0 0 0 0 0 0 127 0" result="hardAlpha"/>
<feOffset/>
<feGaussianBlur stdDeviation="40.15"/>
<feComposite in2="hardAlpha" operator="out"/>
<feColorMatrix type="matrix" values="0 0 0 0 1 0 0 0 0 1 0 0 0 0 1 0 0 0 1 0"/>
<feBlend mode="normal" in2="BackgroundImageFix" result="effect1_dropShadow_4422_3080"/>
<feBlend mode="normal" in="SourceGraphic" in2="effect1_dropShadow_4422_3080" result="shape"/>
</filter>
<filter id="filter1_d_4422_3080" x="31.7" y="27.699" width="187.372" height="187.372" filterUnits="userSpaceOnUse" color-interpolation-filters="sRGB">
<feFlood flood-opacity="0" result="BackgroundImageFix"/>
<feColorMatrix in="SourceAlpha" type="matrix" values="0 0 0 0 0 0 0 0 0 0 0 0 0 0 0 0 0 0 127 0" result="hardAlpha"/>
<feOffset/>
<feGaussianBlur stdDeviation="40.15"/>
<feComposite in2="hardAlpha" operator="out"/>
<feColorMatrix type="matrix" values="0 0 0 0 1 0 0 0 0 1 0 0 0 0 1 0 0 0 1 0"/>
<feBlend mode="normal" in2="BackgroundImageFix" result="effect1_dropShadow_4422_3080"/>
<feBlend mode="normal" in="SourceGraphic" in2="effect1_dropShadow_4422_3080" result="shape"/>
</filter>
</defs>
</svg>
