<svg width="347" height="171" viewBox="0 0 347 171" fill="none" xmlns="http://www.w3.org/2000/svg">
<g clip-path="url(#clip0_4772_2087)">
<path d="M166 41.807L174.492 45.1562C175.276 45.4653 175.668 45.6198 175.998 45.8565C176.291 46.0663 176.548 46.3228 176.757 46.6158C176.994 46.9463 177.149 47.3382 177.458 48.1222L180.807 56.614L184.156 48.1222C184.465 47.3382 184.62 46.9463 184.857 46.6158C185.066 46.3228 185.323 46.0663 185.616 45.8565C185.946 45.6198 186.338 45.4653 187.122 45.1562L195.614 41.807L187.122 38.4578C186.338 38.1487 185.946 37.9941 185.616 37.7574C185.323 37.5476 185.066 37.2911 184.857 36.9982C184.62 36.6677 184.465 36.2757 184.156 35.4919L180.807 27L177.458 35.4919C177.149 36.2757 176.994 36.6677 176.757 36.9982C176.548 37.2911 176.291 37.5476 175.998 37.7574C175.668 37.9941 175.276 38.1487 174.492 38.4578L166 41.807Z" fill="#441989"/>
<path d="M87 9.54228L92.6319 11.0587C93.3191 11.2437 93.6627 11.3362 93.9437 11.5188C94.1922 11.6804 94.4041 11.8923 94.5658 12.141C94.7483 12.4218 94.8409 12.7654 95.0259 13.4527L96.5423 19.0846L98.0587 13.4527C98.2437 12.7654 98.3362 12.4218 98.5188 12.141C98.6804 11.8923 98.8923 11.6804 99.141 11.5188C99.4218 11.3362 99.7654 11.2437 100.453 11.0587L106.085 9.54228L100.453 8.02591C99.7654 7.84089 99.4218 7.74833 99.141 7.56576C98.8923 7.40413 98.6804 7.19222 98.5188 6.94365C98.3362 6.66273 98.2437 6.31911 98.0587 5.63186L96.5423 -4.17106e-07L95.0259 5.63186C94.8409 6.31911 94.7483 6.66273 94.5658 6.94365C94.4041 7.19222 94.1922 7.40413 93.9437 7.56576C93.6627 7.74833 93.3191 7.84089 92.6319 8.02591L87 9.54228Z" fill="#441989"/>
<path d="M66 19.5423L71.6319 21.0587C72.3191 21.2437 72.6627 21.3362 72.9437 21.5188C73.1922 21.6804 73.4041 21.8923 73.5658 22.141C73.7483 22.4218 73.8409 22.7654 74.0259 23.4527L75.5423 29.0846L77.0587 23.4527C77.2437 22.7654 77.3362 22.4218 77.5188 22.141C77.6804 21.8923 77.8923 21.6804 78.141 21.5188C78.4218 21.3362 78.7654 21.2437 79.4527 21.0587L85.0846 19.5423L79.4527 18.0259C78.7654 17.8409 78.4218 17.7483 78.141 17.5658C77.8923 17.4041 77.6804 17.1922 77.5188 16.9437C77.3362 16.6627 77.2437 16.3191 77.0587 15.6319L75.5423 10L74.0259 15.6319C73.8409 16.3191 73.7483 16.6627 73.5658 16.9437C73.4041 17.1922 73.1922 17.4041 72.9437 17.5658C72.6627 17.7483 72.3191 17.8409 71.6319 18.0259L66 19.5423Z" fill="#441989"/>
<path d="M-1 161.542L4.63186 163.059C5.31911 163.244 5.66273 163.336 5.94365 163.519C6.19222 163.68 6.40413 163.892 6.56576 164.141C6.74833 164.422 6.84089 164.765 7.02591 165.453L8.54228 171.085L10.0587 165.453C10.2437 164.765 10.3362 164.422 10.5188 164.141C10.6804 163.892 10.8923 163.68 11.141 163.519C11.4218 163.336 11.7654 163.244 12.4527 163.059L18.0846 161.542L12.4527 160.026C11.7654 159.841 11.4218 159.748 11.141 159.566C10.8923 159.404 10.6804 159.192 10.5188 158.944C10.3362 158.663 10.2437 158.319 10.0587 157.632L8.54228 152L7.02591 157.632C6.84089 158.319 6.74833 158.663 6.56576 158.944C6.40413 159.192 6.19222 159.404 5.94365 159.566C5.66273 159.748 5.31911 159.841 4.63186 160.026L-1 161.542Z" fill="#441989"/>
<path d="M186 56.5423L191.632 58.0587C192.319 58.2437 192.663 58.3362 192.944 58.5188C193.192 58.6804 193.404 58.8923 193.566 59.141C193.748 59.4218 193.841 59.7654 194.026 60.4527L195.542 66.0846L197.059 60.4527C197.244 59.7654 197.336 59.4218 197.519 59.141C197.68 58.8923 197.892 58.6804 198.141 58.5188C198.422 58.3362 198.765 58.2437 199.453 58.0587L205.085 56.5423L199.453 55.0259C198.765 54.8409 198.422 54.7483 198.141 54.5658C197.892 54.4041 197.68 54.1922 197.519 53.9437C197.336 53.6627 197.244 53.3191 197.059 52.6319L195.542 47L194.026 52.6319C193.841 53.3191 193.748 53.6627 193.566 53.9437C193.404 54.1922 193.192 54.4041 192.944 54.5658C192.663 54.7483 192.319 54.8409 191.632 55.0259L186 56.5423Z" fill="#441989"/>
<path d="M328 102.542L333.632 104.059C334.319 104.244 334.663 104.336 334.944 104.519C335.192 104.68 335.404 104.892 335.566 105.141C335.748 105.422 335.841 105.765 336.026 106.453L337.542 112.085L339.059 106.453C339.244 105.765 339.336 105.422 339.519 105.141C339.68 104.892 339.892 104.68 340.141 104.519C340.422 104.336 340.765 104.244 341.453 104.059L347.085 102.542L341.453 101.026C340.765 100.841 340.422 100.748 340.141 100.566C339.892 100.404 339.68 100.192 339.519 99.9437C339.336 99.6627 339.244 99.3191 339.059 98.6319L337.542 93L336.026 98.6319C335.841 99.3191 335.748 99.6627 335.566 99.9437C335.404 100.192 335.192 100.404 334.944 100.566C334.663 100.748 334.319 100.841 333.632 101.026L328 102.542Z" fill="#441989"/>
</g>
<defs>
<clipPath id="clip0_4772_2087">
<rect width="347" height="171" fill="white"/>
</clipPath>
</defs>
</svg>
