<svg width="393" height="95" viewBox="0 0 393 95" fill="none" xmlns="http://www.w3.org/2000/svg">
<g clip-path="url(#clip0_4831_2020)">
<path d="M243 25.891L251.492 29.3524C252.276 29.6719 252.668 29.8315 252.998 30.0762C253.291 30.293 253.548 30.5581 253.757 30.8609C253.994 31.2025 254.149 31.6075 254.458 32.4178L257.807 41.1941L261.156 32.4178C261.465 31.6075 261.62 31.2025 261.857 30.8609C262.066 30.5581 262.323 30.293 262.616 30.0762C262.946 29.8315 263.338 29.6719 264.122 29.3524L272.614 25.891L264.122 22.4296C263.338 22.1101 262.946 21.9504 262.616 21.7057C262.323 21.4889 262.066 21.2238 261.857 20.921C261.62 20.5795 261.465 20.1744 261.156 19.3643L257.807 10.5879L254.458 19.3643C254.149 20.1744 253.994 20.5795 253.757 20.921C253.548 21.2238 253.291 21.4889 252.998 21.7057C252.668 21.9504 252.276 22.1101 251.492 22.4296L243 25.891Z" fill="#441989"/>
<path d="M109 9.86199L114.632 11.4292C115.319 11.6204 115.663 11.716 115.944 11.9047C116.192 12.0717 116.404 12.2908 116.566 12.5477C116.748 12.838 116.841 13.1932 117.026 13.9034L118.542 19.724L120.059 13.9034C120.244 13.1932 120.336 12.838 120.519 12.5477C120.68 12.2908 120.892 12.0717 121.141 11.9047C121.422 11.716 121.765 11.6204 122.453 11.4292L128.085 9.86199L122.453 8.29481C121.765 8.1036 121.422 8.00794 121.141 7.81925C120.892 7.65221 120.68 7.43319 120.519 7.1763C120.336 6.88596 120.244 6.53083 120.059 5.82056L118.542 -4.31081e-07L117.026 5.82056C116.841 6.53083 116.748 6.88596 116.566 7.1763C116.404 7.43319 116.192 7.65221 115.944 7.81925C115.663 8.00794 115.319 8.1036 114.632 8.29481L109 9.86199Z" fill="#441989"/>
<path d="M88 20.197L93.6319 21.7641C94.3191 21.9553 94.6627 22.051 94.9437 22.2397C95.1922 22.4067 95.4041 22.6257 95.5658 22.8827C95.7483 23.173 95.8409 23.5281 96.0259 24.2384L97.5423 30.0589L99.0587 24.2384C99.2437 23.5281 99.3362 23.173 99.5188 22.8827C99.6804 22.6257 99.8923 22.4067 100.141 22.2397C100.422 22.051 100.765 21.9553 101.453 21.7641L107.085 20.197L101.453 18.6298C100.765 18.4386 100.422 18.3429 100.141 18.1542C99.8923 17.9872 99.6804 17.7682 99.5188 17.5113C99.3362 17.2209 99.2437 16.8658 99.0587 16.1555L97.5423 10.335L96.0259 16.1555C95.8409 16.8658 95.7483 17.2209 95.5658 17.5113C95.4041 17.7682 95.1922 17.9872 94.9437 18.1542C94.6627 18.3429 94.3191 18.4386 93.6319 18.6298L88 20.197Z" fill="#441989"/>
<path d="M341 13.4499L346.632 15.0171C347.319 15.2083 347.663 15.3039 347.944 15.4926C348.192 15.6596 348.404 15.8787 348.566 16.1356C348.748 16.4259 348.841 16.781 349.026 17.4913L350.542 23.3119L352.059 17.4913C352.244 16.781 352.336 16.4259 352.519 16.1356C352.68 15.8787 352.892 15.6596 353.141 15.4926C353.422 15.3039 353.765 15.2083 354.453 15.0171L360.085 13.4499L354.453 11.8827C353.765 11.6915 353.422 11.5958 353.141 11.4071C352.892 11.2401 352.68 11.0211 352.519 10.7642C352.336 10.4739 352.244 10.1187 352.059 9.40845L350.542 3.58789L349.026 9.40845C348.841 10.1187 348.748 10.4739 348.566 10.7642C348.404 11.0211 348.192 11.2401 347.944 11.4071C347.663 11.5958 347.319 11.6915 346.632 11.8827L341 13.4499Z" fill="#441989"/>
<path d="M263 41.1198L268.632 42.687C269.319 42.8782 269.663 42.9739 269.944 43.1626C270.192 43.3296 270.404 43.5486 270.566 43.8056C270.748 44.0958 270.841 44.451 271.026 45.1613L272.542 50.9818L274.059 45.1613C274.244 44.451 274.336 44.0958 274.519 43.8056C274.68 43.5486 274.892 43.3296 275.141 43.1626C275.422 42.9739 275.765 42.8782 276.453 42.687L282.085 41.1198L276.453 39.5526C275.765 39.3614 275.422 39.2658 275.141 39.0771C274.892 38.91 274.68 38.691 274.519 38.4341C274.336 38.1438 274.244 37.7886 274.059 37.0784L272.542 31.2578L271.026 37.0784C270.841 37.7886 270.748 38.1438 270.566 38.4341C270.404 38.691 270.192 38.91 269.944 39.0771C269.663 39.2658 269.319 39.3614 268.632 39.5526L263 41.1198Z" fill="#441989"/>
<path d="M338 85.4499L343.632 87.0171C344.319 87.2083 344.663 87.3039 344.944 87.4926C345.192 87.6596 345.404 87.8787 345.566 88.1356C345.748 88.4259 345.841 88.781 346.026 89.4913L347.542 95.3119L349.059 89.4913C349.244 88.781 349.336 88.4259 349.519 88.1356C349.68 87.8787 349.892 87.6596 350.141 87.4926C350.422 87.3039 350.765 87.2083 351.453 87.0171L357.085 85.4499L351.453 83.8827C350.765 83.6915 350.422 83.5958 350.141 83.4071C349.892 83.2401 349.68 83.0211 349.519 82.7642C349.336 82.4739 349.244 82.1187 349.059 81.4084L347.542 75.5879L346.026 81.4084C345.841 82.1187 345.748 82.4739 345.566 82.7642C345.404 83.0211 345.192 83.2401 344.944 83.4071C344.663 83.5958 344.319 83.6915 343.632 83.8827L338 85.4499Z" fill="#441989"/>
</g>
<defs>
<clipPath id="clip0_4831_2020">
<rect width="393" height="95" fill="white"/>
</clipPath>
</defs>
</svg>
