<svg width="518" height="507" viewBox="0 0 518 507" fill="none" xmlns="http://www.w3.org/2000/svg">
<path d="M166.57 39.8471C166.57 39.8471 145.07 20.9671 124.22 33.5971C98.9402 48.9171 107.21 72.8971 96.7402 86.4271C86.7902 99.2771 29.6902 86.8971 1.2602 183.567C-0.319796 189.237 6.27021 198.397 10.5102 204.047C12.6802 206.947 13.7702 210.507 13.6002 214.117L10.5602 277.507C10.7902 281.977 13.3602 286.047 17.3802 288.027C23.7402 291.147 32.5302 297.967 32.5302 311.737C32.5302 333.297 12.8702 332.587 12.8702 365.757C12.8702 398.927 71.8602 439.437 94.1402 450.107C116.41 460.767 114.04 492.047 159.06 503.417C198.45 513.367 216 488.567 211.43 487.967C210.02 487.777 201.02 485.497 201.02 485.497C201.02 485.497 365.88 528.647 392.18 462.957C396.1 453.167 405.23 446.517 415.66 444.957C443.51 440.777 457.99 422.227 465.41 345.627C466.43 334.427 470.07 325.147 499.54 305.747C513.62 296.477 520.24 279.147 515.52 262.967C509.23 241.437 490.97 204.307 443.07 136.927C432.59 121.177 449.65 121.617 454.9 122.047C460.15 122.477 469.78 117.237 459.71 88.7971C449.65 60.3571 343.16 -28.9029 337.11 13.5371C334.57 27.9771 322.42 20.5371 322.42 20.5371C322.42 20.5371 229.25 -29.5429 187.93 30.6571C193.8 31.8871 196.05 33.7371 196.05 33.7371C196.05 33.7371 192.49 31.4471 187.93 30.6571C176.17 28.6171 166.58 39.8371 166.58 39.8371L166.57 39.8471Z" fill="#8B5CF6"/>
<path d="M187.93 30.6571C229.25 -29.5429 322.42 20.5371 322.42 20.5371C322.42 20.5371 334.57 27.9771 337.11 13.5371C343.16 -28.9029 449.65 60.3571 459.71 88.7971C469.78 117.237 460.15 122.477 454.9 122.047C449.65 121.617 432.59 121.177 443.07 136.927C490.97 204.307 509.23 241.437 515.52 262.967C520.24 279.147 513.62 296.477 499.54 305.747C470.07 325.147 466.43 334.427 465.41 345.627C457.99 422.227 443.51 440.777 415.66 444.957C405.23 446.517 396.1 453.167 392.18 462.957C365.88 528.647 201.02 485.497 201.02 485.497C201.02 485.497 210.02 487.777 211.43 487.967C216 488.567 198.45 513.367 159.06 503.417C114.04 492.047 116.41 460.767 94.1402 450.107C71.8602 439.437 12.8702 398.927 12.8702 365.757C12.8702 332.587 32.5302 333.297 32.5302 311.737C32.5302 297.967 23.7402 291.147 17.3802 288.027C13.3602 286.047 10.7902 281.977 10.5602 277.507L13.6002 214.117C13.7702 210.507 12.6802 206.947 10.5102 204.047C6.27021 198.397 -0.319796 189.237 1.2602 183.567C29.6902 86.8971 86.7902 99.2771 96.7402 86.4271C107.21 72.8971 98.9402 48.9171 124.22 33.5971C145.07 20.9671 166.57 39.8471 166.57 39.8471L166.58 39.8371C166.58 39.8371 176.17 28.6171 187.93 30.6571ZM187.93 30.6571C193.8 31.8871 196.05 33.7371 196.05 33.7371C196.05 33.7371 192.49 31.4471 187.93 30.6571Z" stroke="#8B5CF6" stroke-miterlimit="10"/>
<path d="M167.93 28.2271C170.576 28.2271 172.72 26.0825 172.72 23.4371C172.72 20.7917 170.576 18.6471 167.93 18.6471C165.285 18.6471 163.14 20.7917 163.14 23.4371C163.14 26.0825 165.285 28.2271 167.93 28.2271Z" fill="#8B5CF6"/>
<path d="M73.7002 460.457C76.3456 460.457 78.4902 458.313 78.4902 455.667C78.4902 453.022 76.3456 450.877 73.7002 450.877C71.0547 450.877 68.9102 453.022 68.9102 455.667C68.9102 458.313 71.0547 460.457 73.7002 460.457Z" fill="#8B5CF6"/>
<path d="M416.33 480.537C423.145 480.537 428.67 475.012 428.67 468.197C428.67 461.382 423.145 455.857 416.33 455.857C409.515 455.857 403.99 461.382 403.99 468.197C403.99 475.012 409.515 480.537 416.33 480.537Z" fill="#8B5CF6"/>
<path d="M16.831 322.929C22.6459 322.414 26.8726 316.493 26.2715 309.704C25.6704 302.916 20.4692 297.83 14.6543 298.345C8.8394 298.86 4.61277 304.78 5.21386 311.569C5.81496 318.358 11.0161 323.444 16.831 322.929Z" fill="#8B5CF6"/>
<path d="M439.8 457.217C442.772 457.217 445.18 454.808 445.18 451.837C445.18 448.866 442.772 446.457 439.8 446.457C436.829 446.457 434.42 448.866 434.42 451.837C434.42 454.808 436.829 457.217 439.8 457.217Z" fill="#8B5CF6"/>
<path d="M99.0771 471.262C101.998 468.341 101.264 462.87 97.4367 459.043C93.6095 455.216 88.139 454.481 85.2179 457.402C82.2967 460.323 83.0312 465.794 86.8583 469.621C90.6855 473.448 96.156 474.183 99.0771 471.262Z" fill="#8B5CF6"/>
<path d="M480.39 161.717C483.107 161.717 485.31 158.834 485.31 155.277C485.31 151.72 483.107 148.837 480.39 148.837C477.673 148.837 475.47 151.72 475.47 155.277C475.47 158.834 477.673 161.717 480.39 161.717Z" fill="#8B5CF6"/>
<path d="M468.45 149.317C473.879 149.317 478.28 144.916 478.28 139.487C478.28 134.058 473.879 129.657 468.45 129.657C463.021 129.657 458.62 134.058 458.62 139.487C458.62 144.916 463.021 149.317 468.45 149.317Z" fill="#8B5CF6"/>
<path d="M146.67 20.6671C152.099 20.6671 156.5 16.266 156.5 10.8371C156.5 5.40812 152.099 1.00708 146.67 1.00708C141.241 1.00708 136.84 5.40812 136.84 10.8371C136.84 16.266 141.241 20.6671 146.67 20.6671Z" fill="#8B5CF6"/>
<path d="M423.64 292.537C423.32 286.367 424.11 276.687 434.32 264.127C440.91 256.027 442.21 245.147 437.73 235.717C433.32 226.447 423.84 220.447 413.58 220.447C413.25 220.447 412.92 220.447 412.59 220.467C409.99 220.557 407.84 220.647 405.93 220.737C406.17 219.087 406.26 217.407 406.19 215.687C405.98 210.677 406.22 201.157 408.57 184.237C409.4 178.267 411.14 171.907 412.99 165.367C413.15 164.797 413.72 163.497 414.18 162.467C416.54 157.097 422.8 142.837 412.58 129.287C412.5 129.177 412.41 129.057 412.32 128.947C401.53 115.197 387.86 102.707 385.22 100.337C380.84 96.4071 375.2 94.2471 369.33 94.2471C368.92 94.2471 368.52 94.2471 368.12 94.2771C367.51 93.1171 366.88 91.9271 366.24 90.6971C362.85 84.2071 357.73 80.8171 356.05 79.6971C349.46 75.3271 335.16 68.2671 329.31 65.9771C326.42 64.8471 323.38 64.2671 320.29 64.2671C316.46 64.2671 312.78 65.1471 309.46 66.7671C302.35 57.8071 293.69 54.8971 288.3 53.9671C279.83 52.5071 273.6 51.7771 269.72 51.7771C262.97 51.7871 256.56 54.5471 251.96 59.3671C246.17 54.4371 239.85 51.7571 232.45 51.7571C231.77 51.7571 231.08 51.7871 230.4 51.8371C229.97 51.8671 229.54 51.9171 229.11 51.9771L227.99 52.1271C221.58 52.9671 208.26 54.7171 190.61 60.3971C178.32 64.3471 168.66 73.5471 164.12 85.6271C163.92 86.1671 163.74 86.7171 163.56 87.2671C160.31 86.4371 157.27 86.1371 154.62 86.1371C150.58 86.1371 146.52 86.8171 142.55 88.1671C124.54 94.2871 112.6 105.707 104.22 114.967C93.5203 126.787 74.0103 150.857 63.5503 179.377C47.8703 222.127 47.1303 250.147 61.1503 270.227C61.7603 271.107 62.4003 271.947 63.0603 272.767C61.7603 273.867 60.5503 275.097 59.4703 276.467C54.6503 282.587 52.9303 290.437 54.7503 298.017C64.0803 336.837 80.5703 366.527 109.88 397.287C110.01 397.417 110.14 397.557 110.27 397.687C161.67 449.077 225.47 455.397 250.52 455.737H251.08C260.13 455.737 268.91 452.737 276.08 447.367C280.78 449.867 286.13 451.287 291.79 451.287C294.41 451.287 297.04 450.977 299.6 450.367C312.48 447.297 321.4 443.887 330.15 440.367C335.12 438.377 339.3 435.097 342.42 431.027C347.45 430.877 352.37 429.417 356.7 426.767C366.29 420.887 374.56 414.967 383.53 407.557C390.91 401.457 394.46 392.097 396.79 380.847C396.91 380.847 397.04 380.847 397.16 380.847C405.45 380.847 413.25 376.797 418.02 370.007C425.66 359.147 435.22 341.437 437.7 335.247C444.68 317.827 432.37 303.017 424.23 293.217C424.04 292.987 423.84 292.747 423.64 292.507V292.537Z" fill="#09090B"/>
<path d="M258.431 379.257C263.851 387.237 268.571 398.417 269.701 412.537C270.581 423.507 261.821 432.917 250.821 432.767C216.241 432.307 165.751 420.667 126.531 381.457C101.761 355.467 85.9911 329.607 77.1111 292.677C76.6811 290.897 78.4211 289.367 80.1411 290.007C93.9511 295.167 115.951 300.367 135.551 300.357C139.901 300.357 143.651 303.467 144.371 307.757C149.181 336.457 167.761 376.887 169.311 377.607C182.101 383.077 206.901 371.637 226.321 366.987C238.541 364.067 251.361 368.867 258.431 379.257Z" fill="#F9FAFB"/>
<path d="M267.481 280.187C306.091 315.807 323.431 366.177 325.411 413.097C325.521 415.697 323.991 418.077 321.581 419.047C313.471 422.307 305.701 425.287 294.261 428.017C287.921 429.527 281.701 425.017 281.311 418.517C277.601 356.407 245.921 325.607 217.191 296.797C214.771 294.367 215.921 290.227 219.251 289.407C231.601 286.377 248.451 281.137 257.351 278.087C260.851 276.887 264.751 277.677 267.471 280.187H267.481Z" fill="#F9FAFB"/>
<path d="M416.351 326.727C414.621 331.057 405.841 347.367 399.211 356.807C398.021 358.497 395.391 358.107 394.781 356.137C391.701 346.287 384.301 336.187 382.001 337.427C377.021 340.107 376.811 383.297 368.881 389.847C360.951 396.397 353.611 401.707 344.691 407.177C340.191 409.937 334.531 405.967 335.221 400.747C337.751 381.827 336.711 349.527 336.711 334.807C336.711 330.887 335.131 327.157 332.361 324.377C322.401 314.367 297.741 294.787 284.561 277.707C281.981 274.357 283.501 269.457 287.541 268.197C296.781 265.317 305.071 262.857 314.361 260.097C319.091 258.687 324.211 260.147 327.501 263.837C338.081 275.747 353.211 292.497 361.221 299.887C363.471 301.957 367.111 300.847 367.811 297.877C370.281 287.507 376.111 264.717 378.921 253.647C380.081 249.077 383.971 245.707 388.671 245.247C399.961 244.147 402.111 243.887 413.431 243.467C416.671 243.347 418.521 247.107 416.471 249.627C396.011 274.787 401.141 295.187 401.131 300.077C401.121 303.777 419.321 319.297 416.341 326.737L416.351 326.727Z" fill="#F9FAFB"/>
<path d="M149.951 109.967C174.781 101.527 184.541 161.447 188.021 179.247C195.981 219.977 211.431 271.537 157.771 273.267C92.6908 275.367 54.1008 271.957 85.1408 187.317C92.6208 166.937 106.881 146.307 121.261 130.417C127.891 123.097 136.721 114.447 149.941 109.957L149.951 109.967ZM137.081 237.627L142.071 219.317C142.721 217.377 144.011 215.707 145.731 214.587L158.711 206.747C159.971 205.927 160.011 204.097 158.791 203.227L145.481 194.317C143.921 193.187 142.751 191.597 142.161 189.757L137.111 172.317C136.481 170.377 133.741 170.347 133.061 172.267L127.521 189.987C126.891 191.777 125.721 193.317 124.171 194.407L111.131 203.247C109.901 204.107 109.921 205.937 111.171 206.777L124.101 215.097C125.701 216.167 126.911 217.707 127.581 219.507L133.051 237.687C133.751 239.577 136.441 239.537 137.081 237.627Z" fill="#F9FAFB"/>
<path d="M232.181 74.7971C243.191 73.9471 264.871 123.657 274.521 146.877C275.061 148.187 277.021 147.717 276.921 146.297C275.101 120.537 272.231 104.577 268.281 76.3371C268.161 75.4471 268.901 74.7871 269.801 74.7871C272.381 74.7871 278.611 75.6471 284.441 76.6471C289.791 77.5671 292.851 82.0971 294.831 87.1471C304.721 112.397 328.231 178.047 332.371 221.487C332.811 226.097 329.821 230.337 325.341 231.537C322.121 232.397 316.151 234.367 312.651 235.447C305.521 237.647 298.131 233.907 293.221 228.297C278.751 211.767 271.861 202.577 255.201 188.487C254.171 187.617 252.651 188.667 253.101 189.937C257.281 201.577 263.311 212.067 267.141 237.677C268.141 244.377 264.151 250.827 257.701 252.887C251.201 254.957 244.771 256.937 237.481 258.987C226.041 262.197 214.691 253.607 214.601 241.727C214.101 179.147 205.841 141.467 187.151 110.257C180.841 99.7271 185.981 86.0571 197.671 82.2971C214.441 76.9071 226.611 75.5271 232.191 74.7771L232.181 74.7971Z" fill="#F9FAFB"/>
<path d="M343.341 98.8772C344.351 99.5472 345.301 100.297 345.861 101.367C354.451 117.787 367.441 141.647 369.771 141.237C370.891 141.047 370.941 128.417 368.481 118.377C368.281 117.567 369.241 116.907 369.861 117.467C374.741 121.847 385.831 132.457 394.231 143.157C397.301 147.217 392.761 152.457 390.881 159.087C388.821 166.337 386.841 173.607 385.801 181.077C384.201 192.557 382.781 206.217 383.221 216.667C383.311 218.837 381.731 220.737 379.571 220.967C373.701 221.597 360.631 223.537 354.881 224.867C352.031 225.527 349.851 222.787 350.751 220.007C354.521 208.317 359.571 190.917 360.341 177.147C360.971 165.747 359.671 163.677 355.981 158.167C340.021 134.307 330.701 116.127 318.741 89.7272C318.101 88.3172 319.491 86.8472 320.931 87.4172C325.811 89.3272 338.461 95.6572 343.341 98.8872V98.8772Z" fill="#F9FAFB"/>
</svg>
