<svg width="393" height="154" viewBox="0 0 393 154" fill="none" xmlns="http://www.w3.org/2000/svg">
<g clip-path="url(#clip0_4422_6094)">
<path d="M142.953 83.9864C114.086 51.6455 65.3312 41.0456 44.5619 39.7882L-55.4995 137.107C60.4273 62.3094 125.436 103.588 164.5 118.607C235.399 145.867 287.186 157.302 300.501 148.108C246.908 151.751 164.629 108.271 142.953 83.9864Z" fill="#2E1065"/>
<path d="M262.5 49.1074L286.223 32.6078C337.875 80.6991 402.882 75.325 404 55.1079C401.175 106.177 329.5 82.6079 262.5 49.1074Z" fill="#6D28D9"/>
<path d="M357.282 41.8475L333.501 78.1074C267.001 54.475 210 85.6074 217 104.607C181 60.1074 322.809 38.2285 357.282 41.8475Z" fill="#6D28D9"/>
<path d="M70.6247 78.5217C31.0247 78.5217 3.458 98.855 -5.37534 109.022C-10.8738 115.352 -136.8 134.208 -37.9996 46.6077C85.5004 -62.8923 262.455 -0.477192 309.625 -0.477568C356.127 -0.477938 380.127 -5.47757 402.125 -0.477568C421.285 3.87735 438.125 52.7223 402.125 71.5217C357.125 95.021 332.528 76.2774 303.125 68.0237C274.625 60.0235 172.449 76.2581 232.627 112.024C285.627 143.524 373.791 134.022 410.625 117.522L429.125 133.522C406.458 140.355 369.627 154.022 303.125 154.022C216.627 154.021 120.125 78.5217 70.6247 78.5217Z" fill="#8B5CF6"/>
</g>
<defs>
<clipPath id="clip0_4422_6094">
<rect width="393" height="154" fill="white"/>
</clipPath>
</defs>
</svg>
