<svg width="16" height="13" viewBox="0 0 16 13" fill="none" xmlns="http://www.w3.org/2000/svg">
<path d="M13.0819 4.39429C12.7357 4.39429 12.3933 4.48585 12.0963 4.65799L10.723 5.45641L9.74693 3.14904C9.45561 2.45866 8.76895 2.01367 7.99905 2.01367C7.22916 2.01367 6.54249 2.45866 6.25118 3.14904L5.2751 5.45641L3.90177 4.65799C3.60478 4.48585 3.2624 4.39429 2.91623 4.39429C1.8588 4.39429 1 5.22751 1 6.24934V6.30244C1 6.52769 1.04162 6.74927 1.12485 6.95986L2.98433 11.7046C3.28699 12.4792 4.06634 12.9993 4.92325 12.9993C5.35833 12.9993 5.77449 12.8693 6.12823 12.6257C6.64086 12.2705 7.24429 12.0837 7.87421 12.0837H7.98392C8.61194 12.0837 9.22673 12.254 9.75828 12.5763L9.95311 12.6935C10.2823 12.8931 10.6625 12.9993 11.0522 12.9993H11.0767C11.9318 12.9993 12.7111 12.4792 13.0157 11.7046L14.8752 6.95986C14.9584 6.74927 15 6.52769 15 6.30061V6.24751C15 5.22384 14.1393 4.39246 13.0838 4.39246L13.0819 4.39429ZM13.8631 6.30428C13.8631 6.39584 13.8461 6.4874 13.8121 6.57347L11.9526 11.3182C11.8164 11.668 11.4626 11.9042 11.0767 11.9042H11.0522C10.8762 11.9042 10.7041 11.8566 10.5547 11.7669L10.3598 11.6497C9.64667 11.2175 8.8257 10.9904 7.98392 10.9904H7.87421C7.00595 10.9904 6.17362 11.2486 5.46804 11.7376C5.30915 11.8475 5.11998 11.9061 4.92325 11.9061C4.53547 11.9061 4.18362 11.6698 4.04743 11.3201L2.18795 6.5753C2.1539 6.48923 2.13687 6.3995 2.13687 6.30611V6.253C2.13687 5.83548 2.48683 5.4967 2.91812 5.4967C3.05999 5.4967 3.19808 5.53332 3.32104 5.60474L5.26186 6.73279C5.40373 6.81519 5.57587 6.83351 5.73287 6.78223C5.88988 6.73096 6.01662 6.61742 6.07904 6.46909L7.30482 3.5684C7.42021 3.29371 7.6945 3.11608 8.00095 3.11608C8.30739 3.11608 8.58168 3.29371 8.69707 3.5684L9.92285 6.46909C9.98527 6.61742 10.112 6.73096 10.269 6.78223C10.426 6.83351 10.5982 6.81519 10.74 6.73279L12.6809 5.60474C12.8019 5.53332 12.9419 5.4967 13.0838 5.4967C13.5151 5.4967 13.865 5.83548 13.865 6.253V6.30611L13.8631 6.30428Z" fill="#8B5CF6"/>
<path d="M7.99913 8.97375C8.31255 8.97375 8.56662 8.72778 8.56662 8.42437C8.56662 8.12096 8.31255 7.875 7.99913 7.875C7.68572 7.875 7.43164 8.12096 7.43164 8.42437C7.43164 8.72778 7.68572 8.97375 7.99913 8.97375Z" fill="#8B5CF6"/>
</svg>
