<svg width="16" height="13" viewBox="0 0 16 13" fill="none" xmlns="http://www.w3.org/2000/svg">
<g clip-path="url(#clip0_2687_5358)">
<path d="M12.7765 4.39429C12.4512 4.39429 12.1294 4.48585 11.8503 4.65799L10.5597 5.45641L9.64232 3.14904C9.36854 2.45866 8.72321 2.01367 7.99965 2.01367C7.2761 2.01367 6.63076 2.45866 6.35699 3.14904L5.43965 5.45641L4.14899 4.65799C3.86987 4.48585 3.5481 4.39429 3.22276 4.39429C2.22899 4.39429 1.42188 5.22751 1.42188 6.24934V6.30244C1.42188 6.52769 1.46099 6.74927 1.53921 6.95986L3.28676 11.7046C3.57121 12.4792 4.30365 12.9993 5.10899 12.9993C5.51788 12.9993 5.90899 12.8693 6.24143 12.6257C6.72321 12.2705 7.29032 12.0837 7.88232 12.0837H7.98543C8.57565 12.0837 9.15343 12.254 9.65299 12.5763L9.8361 12.6935C10.1454 12.8931 10.5028 12.9993 10.869 12.9993H10.8921C11.6957 12.9993 12.4281 12.4792 12.7143 11.7046L14.4619 6.95986C14.5401 6.74927 14.5792 6.52769 14.5792 6.30061V6.24751C14.5792 5.22384 13.7703 4.39246 12.7783 4.39246L12.7765 4.39429ZM13.5108 6.30428C13.5108 6.39584 13.4948 6.4874 13.4628 6.57347L11.7152 11.3182C11.5872 11.668 11.2548 11.9042 10.8921 11.9042H10.869C10.7037 11.9042 10.5419 11.8566 10.4014 11.7669L10.2183 11.6497C9.5481 11.2175 8.77654 10.9904 7.98543 10.9904H7.88232C7.06632 10.9904 6.2841 11.2486 5.62099 11.7376C5.47165 11.8475 5.29388 11.9061 5.10899 11.9061C4.74454 11.9061 4.41387 11.6698 4.28587 11.3201L2.53832 6.5753C2.50632 6.48923 2.49032 6.3995 2.49032 6.30611V6.253C2.49032 5.83548 2.81921 5.4967 3.22454 5.4967C3.35787 5.4967 3.48765 5.53332 3.60321 5.60474L5.42721 6.73279C5.56054 6.81519 5.72232 6.83351 5.86987 6.78223C6.01743 6.73096 6.13654 6.61742 6.19521 6.46909L7.34721 3.5684C7.45565 3.29371 7.71343 3.11608 8.00143 3.11608C8.28943 3.11608 8.54721 3.29371 8.65565 3.5684L9.80765 6.46909C9.86632 6.61742 9.98543 6.73096 10.133 6.78223C10.2805 6.83351 10.4423 6.81519 10.5757 6.73279L12.3997 5.60474C12.5134 5.53332 12.645 5.4967 12.7783 5.4967C13.1837 5.4967 13.5125 5.83548 13.5125 6.253V6.30611L13.5108 6.30428Z" fill="#8B5CF6"/>
<path d="M0.711111 4.39468C1.10385 4.39468 1.42222 4.06673 1.42222 3.66218C1.42222 3.25764 1.10385 2.92969 0.711111 2.92969C0.318375 2.92969 0 3.25764 0 3.66218C0 4.06673 0.318375 4.39468 0.711111 4.39468Z" fill="#8B5CF6"/>
<path d="M15.2892 4.39468C15.682 4.39468 16.0003 4.06673 16.0003 3.66218C16.0003 3.25764 15.682 2.92969 15.2892 2.92969C14.8965 2.92969 14.5781 3.25764 14.5781 3.66218C14.5781 4.06673 14.8965 4.39468 15.2892 4.39468Z" fill="#8B5CF6"/>
<path d="M8.00013 1.09875C8.29468 1.09875 8.53346 0.852784 8.53346 0.549373C8.53346 0.245963 8.29468 0 8.00013 0C7.70558 0 7.4668 0.245963 7.4668 0.549373C7.4668 0.852784 7.70558 1.09875 8.00013 1.09875Z" fill="#8B5CF6"/>
<path d="M7.62072 7.4271C7.78961 7.11501 7.87406 6.95898 8.00032 6.95898C8.12659 6.95898 8.21104 7.11501 8.37992 7.4271L8.42361 7.50785C8.47157 7.59653 8.49557 7.64085 8.53299 7.6701C8.57041 7.69936 8.61699 7.71025 8.71019 7.73195L8.79504 7.75173C9.12299 7.82818 9.28699 7.86637 9.32601 7.99561C9.36504 8.12485 9.25321 8.25949 9.02966 8.52882L8.97179 8.5985C8.90828 8.675 8.8765 8.71327 8.86219 8.76061C8.84792 8.80795 8.85272 8.85899 8.86232 8.96113L8.87108 9.05406C8.90486 9.4134 8.92179 9.59305 8.81966 9.67293C8.71748 9.75278 8.56397 9.67998 8.2569 9.53435L8.17748 9.49668C8.09019 9.45529 8.04659 9.4346 8.00032 9.4346C7.95406 9.4346 7.91046 9.45529 7.82317 9.49668L7.74375 9.53435C7.43668 9.67998 7.28317 9.75278 7.18099 9.67293C7.07888 9.59305 7.09577 9.4134 7.12957 9.05406L7.13832 8.96113C7.14792 8.85899 7.15272 8.80795 7.13846 8.76061C7.12415 8.71327 7.09238 8.675 7.02885 8.5985L6.971 8.52882C6.74742 8.25949 6.63564 8.12485 6.67465 7.99561C6.71366 7.86637 6.87764 7.82818 7.20561 7.75173L7.29046 7.73195C7.38366 7.71025 7.43024 7.69936 7.46766 7.6701C7.50508 7.64085 7.52908 7.59653 7.57704 7.50785L7.62072 7.4271Z" fill="#8B5CF6"/>
</g>
<defs>
<clipPath id="clip0_2687_5358">
<rect width="16" height="13" fill="white"/>
</clipPath>
</defs>
</svg>
