<svg width="272" height="311" viewBox="0 0 272 311" fill="none" xmlns="http://www.w3.org/2000/svg">
<g clip-path="url(#clip0_4422_6100)">
<path d="M108.711 183.987C108.711 187.022 107.811 189.988 106.125 192.512C104.438 195.035 102.041 197.002 99.2372 198.163C96.4329 199.325 93.3473 199.628 90.3704 199.036C87.3935 198.444 84.6592 196.982 82.5132 194.836C80.3671 192.69 78.9058 189.955 78.314 186.978C77.7223 184.002 78.0266 180.916 79.1885 178.113C80.3504 175.309 82.3178 172.913 84.8418 171.227C87.3657 169.541 90.333 168.642 93.3682 168.642C95.3833 168.642 97.3786 169.039 99.2403 169.811C101.102 170.582 102.793 171.712 104.218 173.137C105.643 174.562 106.773 176.253 107.544 178.115C108.315 179.977 108.711 181.972 108.711 183.987Z" fill="#F9FAFB"/>
<path d="M94.3876 183.55C97.416 183.55 99.8709 181.095 99.8709 178.067C99.8709 175.039 97.416 172.584 94.3876 172.584C91.3593 172.584 88.9043 175.039 88.9043 178.067C88.9043 181.095 91.3593 183.55 94.3876 183.55Z" fill="#4C1D95"/>
<path d="M99.8709 193.036C101.842 193.036 103.44 191.438 103.44 189.467C103.44 187.496 101.842 185.898 99.8709 185.898C97.8997 185.898 96.3018 187.496 96.3018 189.467C96.3018 191.438 97.8997 193.036 99.8709 193.036Z" fill="#4C1D95"/>
<path d="M161.854 191.815C161.717 191.593 161.586 191.366 161.47 191.133C161.596 191.374 161.724 191.601 161.854 191.815Z" fill="#F9FAFB"/>
<path d="M189.539 179.87C189.541 181.254 189.206 182.618 188.563 183.844C188.556 183.859 188.549 183.874 188.54 183.888C188.481 183.996 188.42 184.103 188.359 184.211C188.324 184.272 188.289 184.333 188.251 184.392C186.895 186.68 184.968 188.577 182.658 189.896C180.347 191.215 177.734 191.911 175.074 191.915C172.414 191.919 169.798 191.232 167.484 189.921C165.169 188.61 163.235 186.719 161.872 184.435C161.866 184.428 161.861 184.42 161.857 184.412C161.727 184.191 161.599 183.963 161.473 183.73C161.446 183.684 161.423 183.634 161.4 183.585C160.837 182.411 160.548 181.124 160.555 179.822C160.562 178.52 160.865 177.236 161.441 176.068C162.624 178.334 164.355 180.268 166.475 181.695C168.596 183.122 171.04 183.997 173.584 184.24C174.065 184.287 174.555 184.31 175.041 184.31C175.528 184.31 176.017 184.287 176.498 184.24C179.044 183.998 181.488 183.124 183.61 181.696C185.731 180.268 187.462 178.333 188.645 176.066C189.234 177.247 189.54 178.55 189.539 179.87Z" fill="#F9FAFB"/>
<path d="M151.121 190.996C150.427 197.775 142.569 204.429 134.204 204.426C125.84 204.423 117.988 197.775 117.306 190.996C117.23 190.247 116.886 186.556 118.873 185.274C120.056 184.514 121.495 184.916 121.597 184.945C123.873 185.612 124.205 188.342 125.889 190.996C126.247 191.561 129.863 197.009 134.216 197.003C138.569 196.997 142.249 191.468 142.549 190.996C144.16 188.494 144.533 186.137 146.841 185.274C147.132 185.172 148.469 184.663 149.565 185.274C151.566 186.405 151.17 190.501 151.121 190.996Z" fill="#F9FAFB"/>
<path d="M192.208 137.96L187.415 139.583C187.353 139.604 187.296 139.64 187.249 139.687C187.203 139.734 187.168 139.791 187.147 139.853L185.527 144.646C185.499 144.731 185.444 144.805 185.371 144.858C185.298 144.911 185.211 144.939 185.121 144.939C185.031 144.939 184.943 144.911 184.87 144.858C184.797 144.805 184.743 144.731 184.714 144.646L183.094 139.853C183.073 139.79 183.038 139.733 182.991 139.686C182.944 139.639 182.887 139.603 182.823 139.583L178.019 137.96C177.933 137.931 177.859 137.877 177.807 137.804C177.754 137.731 177.726 137.643 177.726 137.553C177.726 137.463 177.754 137.376 177.807 137.303C177.859 137.23 177.933 137.175 178.019 137.147L182.812 135.53C182.874 135.509 182.931 135.473 182.978 135.427C183.025 135.381 183.06 135.324 183.083 135.262L184.72 130.467C184.748 130.381 184.803 130.307 184.876 130.255C184.949 130.202 185.037 130.174 185.126 130.174C185.216 130.174 185.304 130.202 185.377 130.255C185.45 130.307 185.505 130.381 185.533 130.467L187.153 135.262C187.175 135.324 187.21 135.38 187.257 135.426C187.303 135.473 187.359 135.508 187.421 135.53L192.214 137.147C192.299 137.176 192.373 137.231 192.425 137.304C192.477 137.378 192.505 137.466 192.504 137.556C192.503 137.645 192.474 137.733 192.421 137.806C192.368 137.878 192.293 137.932 192.208 137.96Z" fill="#F9FAFB"/>
<path d="M46.704 192.572L41.9112 194.192C41.848 194.213 41.7906 194.248 41.7435 194.295C41.6964 194.342 41.6611 194.4 41.6402 194.463L40.0232 199.255C39.9941 199.341 39.9391 199.414 39.866 199.466C39.7928 199.519 39.7052 199.547 39.6153 199.547C39.5254 199.547 39.4378 199.519 39.3647 199.466C39.2916 199.414 39.2366 199.341 39.2074 199.255L37.5846 194.463C37.5642 194.4 37.5294 194.343 37.4828 194.296C37.4363 194.249 37.3793 194.213 37.3165 194.192L32.5237 192.572C32.4383 192.544 32.3641 192.49 32.3114 192.417C32.2588 192.344 32.2305 192.256 32.2305 192.166C32.2305 192.076 32.2588 191.988 32.3114 191.915C32.3641 191.842 32.4383 191.788 32.5237 191.76L37.3165 190.14C37.379 190.119 37.4358 190.084 37.4823 190.038C37.5288 189.991 37.5639 189.934 37.5846 189.872L39.2045 185.079C39.2337 184.994 39.2886 184.921 39.3618 184.868C39.4349 184.816 39.5225 184.788 39.6124 184.788C39.7023 184.788 39.7899 184.816 39.863 184.868C39.9362 184.921 39.9912 184.994 40.0203 185.079L41.6373 189.872C41.6587 189.934 41.6943 189.991 41.7414 190.038C41.7884 190.084 41.8455 190.119 41.9083 190.14L46.7011 191.76C46.7866 191.788 46.8611 191.842 46.9139 191.915C46.9668 191.987 46.9955 192.075 46.9958 192.165C46.9961 192.255 46.9681 192.343 46.9157 192.416C46.8634 192.489 46.7893 192.544 46.704 192.572Z" fill="#F9FAFB"/>
<path d="M188.639 239.071L183.846 240.691C183.783 240.712 183.727 240.747 183.68 240.793C183.633 240.84 183.598 240.896 183.578 240.959L181.958 245.751C181.929 245.836 181.874 245.91 181.801 245.962C181.727 246.015 181.64 246.043 181.55 246.043C181.46 246.043 181.372 246.015 181.299 245.962C181.226 245.91 181.171 245.836 181.142 245.751L179.525 240.959C179.503 240.897 179.467 240.84 179.42 240.794C179.374 240.747 179.317 240.712 179.254 240.691L174.461 239.071C174.376 239.043 174.302 238.988 174.249 238.915C174.196 238.842 174.168 238.755 174.168 238.665C174.168 238.575 174.196 238.487 174.249 238.414C174.302 238.341 174.376 238.287 174.461 238.258L179.254 236.636C179.317 236.615 179.374 236.58 179.421 236.534C179.468 236.487 179.504 236.43 179.525 236.368L181.142 231.575C181.171 231.49 181.226 231.416 181.299 231.364C181.372 231.312 181.46 231.284 181.55 231.284C181.64 231.284 181.727 231.312 181.801 231.364C181.874 231.416 181.929 231.49 181.958 231.575L183.578 236.368C183.598 236.43 183.632 236.488 183.679 236.534C183.726 236.581 183.783 236.616 183.846 236.636L188.639 238.258C188.724 238.287 188.798 238.341 188.851 238.414C188.904 238.487 188.932 238.575 188.932 238.665C188.932 238.755 188.904 238.842 188.851 238.915C188.798 238.988 188.724 239.043 188.639 239.071Z" fill="#F9FAFB"/>
<path d="M202.102 154.283L198.655 155.448C198.61 155.462 198.569 155.487 198.535 155.52C198.502 155.554 198.477 155.595 198.463 155.64L197.298 159.087C197.276 159.147 197.237 159.199 197.185 159.236C197.133 159.273 197.07 159.293 197.006 159.293C196.942 159.293 196.88 159.273 196.828 159.236C196.776 159.199 196.736 159.147 196.715 159.087L195.55 155.64C195.534 155.596 195.508 155.555 195.474 155.522C195.44 155.488 195.399 155.463 195.354 155.448L191.908 154.283C191.847 154.262 191.795 154.222 191.758 154.17C191.721 154.118 191.701 154.055 191.701 153.992C191.701 153.928 191.721 153.865 191.758 153.813C191.795 153.761 191.847 153.721 191.908 153.7L195.354 152.535C195.399 152.519 195.44 152.493 195.474 152.459C195.508 152.425 195.533 152.385 195.55 152.34L196.715 148.893C196.736 148.833 196.776 148.781 196.828 148.744C196.88 148.707 196.942 148.687 197.006 148.687C197.07 148.687 197.133 148.707 197.185 148.744C197.237 148.781 197.276 148.833 197.298 148.893L198.463 152.34C198.478 152.385 198.503 152.426 198.537 152.46C198.57 152.493 198.611 152.519 198.655 152.535L202.102 153.7C202.162 153.721 202.215 153.761 202.252 153.813C202.289 153.865 202.309 153.928 202.309 153.992C202.309 154.055 202.289 154.118 202.252 154.17C202.215 154.222 202.162 154.262 202.102 154.283Z" fill="#F9FAFB"/>
<path d="M88.6949 136.821L85.2481 137.986C85.203 138.002 85.162 138.028 85.1282 138.061C85.0944 138.095 85.0687 138.136 85.0529 138.181L83.8875 141.628C83.8663 141.688 83.8269 141.74 83.7747 141.777C83.7225 141.814 83.6601 141.834 83.5962 141.834C83.5322 141.834 83.4698 141.814 83.4176 141.777C83.3654 141.74 83.326 141.688 83.3048 141.628L82.1394 138.181C82.1238 138.137 82.0984 138.096 82.0651 138.062C82.0319 138.028 81.9916 138.002 81.9471 137.986L78.4974 136.824C78.4371 136.802 78.3848 136.763 78.3478 136.711C78.3109 136.659 78.291 136.596 78.291 136.532C78.291 136.468 78.3109 136.406 78.3478 136.354C78.3848 136.302 78.4371 136.262 78.4974 136.241L81.9471 135.076C81.9917 135.06 82.0322 135.035 82.0655 135.002C82.0989 134.969 82.1241 134.928 82.1394 134.883L82.8882 132.666L83.3048 131.437C83.326 131.377 83.3654 131.324 83.4176 131.287C83.4698 131.25 83.5322 131.231 83.5962 131.231C83.6601 131.231 83.7225 131.25 83.7747 131.287C83.8269 131.324 83.8663 131.377 83.8875 131.437L85.05 134.883C85.0643 134.929 85.0896 134.97 85.1236 135.004C85.1577 135.037 85.1994 135.062 85.2452 135.076L88.692 136.241C88.7514 136.262 88.8029 136.302 88.8393 136.353C88.8758 136.405 88.8955 136.467 88.8958 136.53C88.8961 136.593 88.877 136.655 88.8411 136.707C88.8052 136.759 88.7541 136.799 88.6949 136.821Z" fill="#F9FAFB"/>
<path d="M253.897 167.381C253.023 166.184 251.962 164.759 250.753 163.268L255.319 161.927L270 146.452L254.267 143.614L255.252 136.331L254.759 127.653L251.863 101.319L217.573 123.015L216.819 124.69C212.501 116.905 206.237 109.858 201.429 104.448C195.893 98.2312 186.658 87.8249 170.671 81.9051C157.985 77.2089 146.82 77.5177 141.456 77.6692C136.241 77.8149 127.515 78.0538 117.274 81.8032C105.876 85.9663 97.2548 92.6086 92.0278 97.4475C90.0797 99.2433 88.2317 101.145 86.4921 103.143L87.8673 95.7141L72.5477 82.4295L57.371 92.7222L57.0622 97.1096L40.1635 79.0181L12.3506 68L8.85432 95.6996L14.6814 107.239L1.64034 108.235L2.56102 124.314L10.3286 132.36L5.24442 134.647L0 143.746L7.66559 155.807L17.7931 158.21L21.4176 157.825C18.405 160.512 16.316 163.218 14.7368 165.249C10.1233 171.25 6.76828 178.121 4.87241 185.449C2.97654 192.778 2.57885 200.413 3.70314 207.899C4.2101 211.261 5.55034 220.196 11.5435 229.498C14.1657 233.577 17.1318 236.828 19.5063 239.441C21.1962 241.297 23.7397 244.103 23.8767 245.111C23.6981 245.377 23.5035 245.632 23.2939 245.874C22.3587 247.039 20.9456 248.819 20.3804 251.968C19.8704 254.914 20.2277 257.945 21.4089 260.691C23.7922 266.147 29.5028 270.013 35.6241 270.305C39.2137 270.474 41.3464 269.253 42.9081 268.362C43.3885 268.063 43.8946 267.807 44.4202 267.598C44.5601 267.552 44.7116 267.502 44.8631 267.467C45.1617 267.394 45.4657 267.346 45.7721 267.321C47.156 267.211 47.7067 267.45 50.5241 268.997C52.2052 269.923 54.3118 271.077 57.3302 272.399C61.4791 274.217 67.1606 276.705 74.392 277.643C77.052 277.975 79.7343 278.092 82.4131 277.993C85.4374 277.932 86.125 277.993 87.2146 278.779C88.1674 279.47 89.0473 281.145 90.9469 284.865C92.0123 286.942 92.9153 289.099 93.6478 291.315C94.4636 293.646 95.2357 295.86 97.3334 299.062C100.052 303.204 102.846 305.762 105.873 306.928C107.616 307.615 109.469 307.978 111.342 308C112.976 308.01 114.594 307.677 116.091 307.021C123.777 303.574 124.724 292.854 125.123 288.274C125.301 286.269 125.318 284.254 125.175 282.246C125.135 281.752 125.123 281.256 125.138 280.76L125.178 280.699C126.422 278.951 131.25 278.992 134.135 279.021C137.083 279.053 141.535 279.094 142.683 280.728C142.709 280.769 142.727 280.795 142.736 280.813C142.744 281.299 142.72 281.786 142.666 282.27C142.464 284.295 142.47 286.337 142.683 288.361C142.867 290.068 144.749 305.104 154.366 307.298C158.501 308.239 161.904 306.301 164.389 304.888C168.692 302.441 170.851 299.187 173.13 295.741C175.595 292.162 177.464 288.208 178.666 284.032C179.18 282.232 179.523 280.388 179.691 278.523C179.706 278.363 179.726 278.188 179.744 278.028C181.526 278.215 183.316 278.312 185.107 278.319C186.936 278.438 188.771 278.421 190.597 278.27C195.521 277.841 200.412 276.338 204.669 274.584C204.922 274.483 205.172 274.378 205.421 274.27L206.391 273.85L206.869 273.632C211.283 271.61 215.082 269.195 218.637 266.931C221.917 264.849 225.077 262.583 228.103 260.146C231.275 257.585 234.304 254.852 237.176 251.96C239.705 249.425 241.922 247.007 243.964 244.77C244.419 244.274 244.863 243.789 245.296 243.313C246.219 242.302 247.105 241.329 247.953 240.371C252.42 235.342 255.913 230.835 258.885 224.452C259.273 223.615 259.643 222.77 259.995 221.918C260.006 221.894 260.016 221.87 260.024 221.845C261.302 218.571 262.34 215.208 263.13 211.783C263.845 208.695 264.262 205.546 264.374 202.378C264.564 197.755 264.18 193.125 263.232 188.596C261.655 180.944 258.473 173.713 253.897 167.381ZM244.687 153.75L246.488 151.087L250.403 152.972C250.391 153.047 250.357 153.118 250.305 153.174C250.253 153.231 250.186 153.271 250.112 153.289L243.702 155.201L244.687 153.75ZM242.254 154.755C242.249 154.756 242.244 154.756 242.24 154.755C241.878 154.481 241.514 154.213 241.138 153.954C240.577 153.565 239.994 153.187 239.39 152.818C239.338 152.783 239.282 152.751 239.227 152.718L239.332 152.692L242.036 151.987L244.559 151.332L242.254 154.755ZM246.042 128.244L246.479 135.97L244.652 149.476L244.611 149.767L244.503 149.794L237.843 151.521L237.511 151.606L242.828 142.382L242.409 132.966L245.348 121.896L246.042 128.244ZM227.841 141.316L232.884 138.793L241.001 134.1L241.357 142.062L236.153 151.093C233.981 150.113 231.679 149.453 229.318 149.132C228.697 149.051 228.103 148.998 227.529 148.943C226.57 148.894 225.618 148.748 224.688 148.506L227.841 141.316ZM227.351 132.867L231.031 130.88L231.754 137.741L227.905 139.667L227.351 132.867ZM244.728 116.183L244.917 117.908L241.048 132.384L233.126 136.966L232.389 129.942L242.586 117.526L244.728 116.183ZM238.67 120.014L231.171 129.153L226.801 131.504L224.805 128.783L238.67 120.014ZM221.288 136.072L223.971 130.117L225.874 132.716L226.538 140.657L223.43 147.775C221.888 146.28 221.888 143.271 221.888 141.823V141.464C221.876 139.653 221.68 137.847 221.306 136.075L221.288 136.072ZM78.3749 99.0411L78.2467 99.7374L72.5477 101.142L72.0233 93.5437L78.3749 99.0411ZM70.3626 120.419C70.0042 120.477 69.64 120.541 69.2642 120.617L67.7753 104.09L72.0699 102.761H72.102L77.6144 101.404L70.3626 120.419ZM76.7724 107.696L75.2661 115.778L73.4597 119.929C73.0314 120.002 72.5565 120.072 72.0262 120.151H72.0117L76.7724 107.696ZM65.7941 97.5699L70.6161 94.2983L71.1172 101.529L67.1577 102.753L65.5261 101.354L65.7941 97.5699ZM65.4008 103.163L66.2894 103.927L67.819 120.929C67.2635 121.063 66.6866 121.221 66.0884 121.404C65.73 121.514 65.3716 121.634 65.0191 121.765L64.4888 116.096L65.4008 103.163ZM36.7109 88.1279L63.0524 116.308L63.4225 120.232L61.5112 118.088L61.3276 117.905L38.2347 94.9101L36.7109 89.0514L36.4196 88.1774L36.7109 88.1279ZM31.2567 137.464L34.8258 140.279L17.0443 142.872L14.9116 139.88L24.0864 135.763V135.813L31.2567 137.464ZM32.0638 136.247L26.2366 131.049L28.955 132.451L37.0023 132.876L39.2224 141.057L37.1829 140.285L32.0638 136.247ZM22.181 127.318L22.0702 121.558H29.9602L36.2069 131.376L29.3425 131.014L22.181 127.318ZM38.7271 133.631L38.2522 131.883L31.6734 121.535L18.3962 95.2072L22.4956 97.1329L44.8893 128.197L41.122 129.689L38.7271 133.631ZM42.0398 130.717L45.2273 129.613L44.9505 130.994L44.6358 140.264L45.3613 141.453C45.1253 142.082 44.9476 142.647 44.796 143.16L40.9181 141.703L39.3331 135.88L42.0398 130.717ZM24.1826 96.9639L31.111 94.9829L51.27 119.827L49.2655 120.119L48.2865 120.553C47.4921 122.732 46.6976 124.909 45.9032 127.084L24.1826 96.9639ZM33.1797 95.216L37.2237 95.9676L59.0201 117.683L55.7365 117.354L52.753 119.37L33.1797 95.216ZM46.3432 133.089L49.7171 133.872C49.146 134.649 48.5885 135.449 48.0447 136.273C47.3252 137.36 46.6798 138.493 46.113 139.667L46.3432 133.089ZM46.3927 131.606V131.221L46.8589 128.891L49.0061 122.039L56.7184 126.473C54.4793 128.285 52.4522 130.344 50.6756 132.611L46.3927 131.606ZM50.7863 121.369L52.8258 121.077L56.1182 118.849L60.6313 119.303L63.3933 122.409C61.4817 123.241 59.6665 124.28 57.9799 125.505L50.7863 121.369ZM35.2949 89.4447L36.5856 94.3624L31.956 93.5175L30.9275 89.3486L34.9628 88.4921L35.2949 89.4447ZM34.1295 86.0362L34.4908 87.1054L30.2195 88.0056L21.5924 81.0632L34.1295 86.0362ZM19.4888 81.2438L29.3949 89.2029L30.4875 93.637L23.0376 95.7753L17.9563 93.3922L19.4888 81.2438ZM20.6047 121.156L20.6863 125.919L15.0777 120.075L15.3399 118.036L14.999 116.943L20.6047 121.156ZM21.0214 128.36H21.0505L28.9783 135.434L24.4506 134.394L11.5668 121.057H13.9997L21.0214 128.36ZM13.2218 116.125L13.8569 118.184L13.6704 119.612H11.0482L10.8559 116.308L13.2218 116.125ZM10.215 143.51L11.3804 141.47L13.5452 140.5L15.6691 143.454L12.7556 147.504L10.215 143.51ZM13.9851 148.305L16.316 145.051L17.3648 149.109L13.9851 148.305ZM18.9382 149.287L17.6387 144.264L36.3788 141.529L44.394 144.558C44.1374 145.357 43.6775 146.075 43.0596 146.641L42.9722 146.732L18.9382 149.287ZM254.689 209.723C253.976 212.834 253.028 215.886 251.851 218.853L251.761 219.072C249.94 223.549 247.129 228.752 242.79 233.204C242.522 233.495 242.242 233.763 241.951 234.049L241.639 234.349L238.7 237.606C238.382 237.958 238.05 238.32 237.712 238.69L237.581 238.832C235.795 240.784 233.866 242.891 231.704 245.084C228.316 248.553 224.688 251.78 220.848 254.742C218.753 256.35 216.478 257.947 213.995 259.531L213.5 259.843C207.181 263.863 200.584 267.933 191.217 269.166C189.309 269.419 187.385 269.545 185.46 269.544C184.813 269.504 184.201 269.448 183.613 269.396C182.443 269.269 181.267 269.211 180.09 269.221H179.985C177.692 269.3 175.367 269.9 173.308 272.021C171.42 273.97 171.213 275.977 171.047 277.594C170.931 278.954 170.683 280.3 170.304 281.611C169.214 285.451 165.89 290.867 165.89 290.867C162.795 295.915 161.441 296.9 160.52 297.445C159.599 297.99 158.271 298.744 156.761 298.447C154.393 297.984 153.175 295.292 152.682 294.17C151.945 292.542 151.77 290.826 151.418 287.394C151.374 286.957 151.322 286.383 151.307 285.672C151.296 284.76 151.334 283.848 151.421 282.94C151.587 280.921 151.794 278.404 149.882 275.68C146.156 270.366 139 270.296 134.266 270.249C129.374 270.2 121.979 270.127 118.093 275.613C116.237 278.235 116.374 280.609 116.493 282.709C116.61 284.296 116.599 285.888 116.461 287.473C115.718 295.892 113.926 298.395 112.557 299.006C112.076 299.222 110.981 299.467 109.011 298.715C107.846 298.269 106.258 296.635 104.681 294.229C103.172 291.93 102.642 290.441 101.94 288.402C101.073 285.819 100.014 283.304 98.7698 280.88C96.439 276.37 95.0609 273.649 92.36 271.697C89.3648 269.518 86.6348 269.224 83.8349 269.224C83.3105 269.224 82.786 269.224 82.2557 269.247C80.0091 269.329 77.7595 269.232 75.5283 268.956C69.538 268.184 64.7219 266.075 60.8498 264.379C58.181 263.214 56.2755 262.165 54.7459 261.32L53.9883 260.909C55.0855 259.407 55.9563 257.752 56.5727 255.998C56.959 254.905 56.8954 253.703 56.3957 252.657C55.896 251.611 55.0012 250.806 53.9082 250.42C52.8152 250.034 51.6135 250.097 50.5674 250.597C49.5213 251.097 48.7166 251.991 48.3302 253.084C48.0561 253.983 47.6506 254.836 47.1269 255.616C46.5113 256.436 45.771 257.155 44.933 257.746C43.6755 258.748 42.2913 259.581 40.8161 260.222C38.7329 261.122 37.5937 261.614 36.0437 261.556C33.2816 261.448 30.4438 259.639 29.4299 257.186C28.9861 256.004 28.8371 254.731 28.9958 253.478C29.1648 252.519 29.4649 252.14 30.1233 251.319C31.021 250.284 31.7185 249.092 32.1803 247.802C33.9722 242.349 30.0826 238.072 25.9628 233.548C23.6902 231.051 21.1175 228.228 18.8828 224.755C13.9064 217.029 12.7643 209.443 12.3389 206.588C11.3941 200.272 11.7314 193.83 13.3307 187.647C14.9301 181.464 17.7587 175.666 21.6478 170.6C23.798 167.824 26.7465 164.019 31.7171 160.986C34.922 159.032 37.3315 158.417 39.6478 157.823C41.8475 157.257 44.1026 156.681 46.4335 155.137C47.4923 154.433 48.4695 153.615 49.347 152.695C51.8847 150.073 52.5053 147.949 53.0531 146.085C53.2871 145.224 53.5851 144.382 53.9446 143.565C54.3527 142.692 54.826 141.85 55.3606 141.048C59.259 135.087 63.7488 131.282 68.7018 129.738C68.8941 129.677 69.0864 129.622 69.2846 129.569C70.6102 129.229 71.956 128.972 73.314 128.8C75.4118 128.489 77.6844 128.157 79.9016 127.052C81.3287 126.349 82.613 125.387 83.6892 124.215C85.237 122.522 86.3946 120.51 87.0806 118.321L87.1126 118.216C89.6416 110.709 102.904 96.3317 120.278 89.9837C129.19 86.7295 136.725 86.5198 141.713 86.3799C146.526 86.2459 156.546 85.9663 167.644 90.074C181.582 95.2393 189.6 104.259 194.906 110.231C200.78 116.841 209.095 126.196 212.046 135.285C212.729 137.289 213.098 139.386 213.142 141.502V141.794C213.142 144.066 213.142 150.108 217.512 154.181C220.592 157.056 224.146 157.386 226.742 157.624C227.252 157.671 227.733 157.715 228.173 157.773C233.277 158.455 237.572 161.718 241.01 165.324C243.379 167.815 245.345 170.472 246.887 172.555C250.736 177.856 253.417 183.913 254.753 190.326C256.726 199.873 255.205 207.587 254.689 209.723Z" fill="#F9FAFB"/>
<path d="M264.598 202.37C264.137 209.053 262.613 215.619 260.082 221.822C261.36 218.547 262.398 215.184 263.188 211.759C263.903 208.672 264.32 205.522 264.432 202.355L264.598 202.37Z" fill="#F9FAFB"/>
<path d="M241.506 220.039C240.614 221.896 239.577 223.68 238.403 225.373C236.8 227.702 234.968 229.865 232.934 231.829L232.622 232.12C231.779 232.905 230.66 233.325 229.509 233.29C228.358 233.254 227.267 232.766 226.474 231.93C225.681 231.095 225.25 229.98 225.275 228.828C225.299 227.677 225.778 226.581 226.606 225.781C226.88 225.521 227.151 225.256 227.41 224.988C228.807 223.58 230.074 222.049 231.198 220.414C232.104 219.11 232.906 217.737 233.595 216.307C234.968 213.393 235.402 212.429 235.402 211.232C235.402 211.205 235.361 207.98 233.275 206.57C232.238 205.862 231.032 205.83 229.968 205.804C227.85 205.746 226.23 206.535 225.263 207.01C223.165 208.03 221.941 209.309 219.96 211.471C218.953 212.564 218.038 213.738 217.224 214.981C216.796 215.602 216.327 216.283 215.718 217.105C215.718 217.105 215.357 217.594 214.946 218.124C212.965 220.682 211.974 221.958 211.117 222.585C209.506 223.75 206.531 224.703 204.888 223.386C203.525 222.293 203.475 219.972 203.86 218.489C204.425 216.298 205.978 215.747 208.664 211.945L210.019 210.031C210.893 208.779 211.356 208.141 211.668 207.742C212.169 207.095 212.758 206.39 213.512 205.565C215.59 203.299 217.737 200.956 221.426 199.156C222.777 198.498 225.939 196.954 230.201 197.07C231.769 197.111 235.026 197.198 238.179 199.337C243.994 203.278 244.157 210.46 244.157 211.252C244.14 214.457 243.091 216.68 241.506 220.039Z" fill="#F9FAFB"/>
<g style="mix-blend-mode:soft-light" opacity="0.61">
<path d="M62.7726 10L58.0742 21.9127C57.6405 23.0124 57.4238 23.5622 57.0917 24.0259C56.7974 24.4368 56.4376 24.7966 56.0266 25.091C55.5629 25.423 55.0131 25.6398 53.9134 26.0735L42.0007 30.7719L53.9134 35.4702C55.0131 35.9039 55.5629 36.1206 56.0266 36.4527C56.4376 36.747 56.7974 37.1068 57.0917 37.5179C57.4238 37.9815 57.6405 38.5313 58.0742 39.6311L62.7726 51.5437L67.4709 39.6311C67.9046 38.5313 68.1214 37.9815 68.4535 37.5179C68.7478 37.1068 69.1076 36.747 69.5186 36.4527C69.9822 36.1206 70.532 35.9039 71.6317 35.4702L83.5444 30.7719L71.6317 26.0735C70.532 25.6398 69.9822 25.423 69.5186 25.091C69.1076 24.7966 68.7478 24.4368 68.4535 24.0259C68.1214 23.5622 67.9046 23.0124 67.4709 21.9127L62.7726 10Z" fill="#F9FAFB"/>
<path d="M28.3866 0L26.2594 7.90061C25.9999 8.86471 25.87 9.34675 25.6139 9.74085C25.3872 10.0895 25.0899 10.3868 24.7411 10.6136C24.3471 10.8697 23.865 10.9995 22.9009 11.2591L15.0003 13.3863L22.9009 15.5135C23.865 15.7731 24.3471 15.9029 24.7411 16.1591C25.0899 16.3857 25.3872 16.6831 25.6139 17.0318C25.87 17.4259 25.9999 17.9079 26.2594 18.872L28.3866 26.7726L30.5139 18.872C30.7734 17.9079 30.9033 17.4259 31.1594 17.0318C31.3861 16.6831 31.6834 16.3857 32.0321 16.1591C32.4262 15.9029 32.9082 15.7731 33.8723 15.5135L41.7729 13.3863L33.8723 11.2591C32.9082 10.9995 32.4262 10.8697 32.0321 10.6136C31.6834 10.3868 31.3861 10.0895 31.1594 9.74085C30.9033 9.34675 30.7734 8.86471 30.5139 7.90061L28.3866 0Z" fill="#F9FAFB"/>
<path d="M258.387 263L256.259 270.901C256 271.865 255.87 272.347 255.614 272.741C255.387 273.09 255.09 273.387 254.741 273.614C254.347 273.87 253.865 274 252.901 274.259L245 276.386L252.901 278.514C253.865 278.773 254.347 278.903 254.741 279.159C255.09 279.386 255.387 279.683 255.614 280.032C255.87 280.426 256 280.908 256.259 281.872L258.387 289.773L260.514 281.872C260.773 280.908 260.903 280.426 261.159 280.032C261.386 279.683 261.683 279.386 262.032 279.159C262.426 278.903 262.908 278.773 263.872 278.514L271.773 276.386L263.872 274.259C262.908 274 262.426 273.87 262.032 273.614C261.683 273.387 261.386 273.09 261.159 272.741C260.903 272.347 260.773 271.865 260.514 270.901L258.387 263Z" fill="#F9FAFB"/>
<path d="M236.387 284L234.259 291.901C234 292.865 233.87 293.347 233.614 293.741C233.387 294.09 233.09 294.387 232.741 294.614C232.347 294.87 231.865 295 230.901 295.259L223 297.386L230.901 299.514C231.865 299.773 232.347 299.903 232.741 300.159C233.09 300.386 233.387 300.683 233.614 301.032C233.87 301.426 234 301.908 234.259 302.872L236.387 310.773L238.514 302.872C238.773 301.908 238.903 301.426 239.159 301.032C239.386 300.683 239.683 300.386 240.032 300.159C240.426 299.903 240.908 299.773 241.872 299.514L249.773 297.386L241.872 295.259C240.908 295 240.426 294.87 240.032 294.614C239.683 294.387 239.386 294.09 239.159 293.741C238.903 293.347 238.773 292.865 238.514 291.901L236.387 284Z" fill="#F9FAFB"/>
</g>
</g>
<defs>
<clipPath id="clip0_4422_6100">
<rect width="272" height="311" fill="white"/>
</clipPath>
</defs>
</svg>
