<svg width="111" height="99" viewBox="0 0 111 99" fill="none" xmlns="http://www.w3.org/2000/svg">
<g clip-path="url(#clip0_4422_3170)">
<path d="M44.6935 47.8447C44.6935 49.0966 44.3235 50.3204 43.6302 51.3613C42.937 52.4022 41.9516 53.2135 40.7987 53.6925C39.6459 54.1715 38.3773 54.2968 37.1535 54.0525C35.9297 53.8082 34.8056 53.2052 33.9233 52.3199C33.0411 51.4346 32.4403 50.3066 32.197 49.0788C31.9537 47.8509 32.0788 46.5782 32.5565 45.4216C33.0342 44.2651 33.843 43.2766 34.8806 42.5813C35.9183 41.8859 37.1381 41.5149 38.3859 41.5151C39.2144 41.5151 40.0347 41.6789 40.8 41.997C41.5654 42.3151 42.2608 42.7813 42.8465 43.3691C43.4322 43.9569 43.8968 44.6546 44.2137 45.4225C44.5307 46.1905 44.6937 47.0135 44.6935 47.8447Z" fill="#F9FAFB"/>
<path d="M38.805 47.6644C40.05 47.6644 41.0593 46.6519 41.0593 45.4028C41.0593 44.1537 40.05 43.1411 38.805 43.1411C37.56 43.1411 36.5508 44.1537 36.5508 45.4028C36.5508 46.6519 37.56 47.6644 38.805 47.6644Z" fill="#8B5CF6"/>
<path d="M41.0593 51.5773C41.8697 51.5773 42.5266 50.9182 42.5266 50.1052C42.5266 49.2921 41.8697 48.6331 41.0593 48.6331C40.249 48.6331 39.592 49.2921 39.592 50.1052C39.592 50.9182 40.249 51.5773 41.0593 51.5773Z" fill="#8B5CF6"/>
<path d="M78.2739 47.8447C78.2739 49.0965 77.9039 50.3203 77.2106 51.3612C76.5174 52.402 75.5321 53.2133 74.3793 53.6924C73.2266 54.1714 71.9581 54.2968 70.7343 54.0526C69.5105 53.8083 68.3864 53.2055 67.5041 52.3203C66.6218 51.4351 66.0209 50.3073 65.7775 49.0795C65.534 47.8517 65.659 46.579 66.1365 45.4225C66.614 44.2659 67.4226 43.2774 68.4601 42.5819C69.4975 41.8864 70.7173 41.5151 71.9651 41.5151C72.7935 41.5151 73.6139 41.6789 74.3793 41.9969C75.1448 42.315 75.8402 42.7813 76.4261 43.369C77.0119 43.9568 77.4766 44.6545 77.7936 45.4225C78.1107 46.1904 78.2739 47.0135 78.2739 47.8447Z" fill="#F9FAFB"/>
<path d="M72.3841 47.6644C73.6291 47.6644 74.6384 46.6519 74.6384 45.4028C74.6384 44.1537 73.6291 43.1411 72.3841 43.1411C71.1391 43.1411 70.1299 44.1537 70.1299 45.4028C70.1299 46.6519 71.1391 47.6644 72.3841 47.6644Z" fill="#8B5CF6"/>
<path d="M74.6382 51.5773C75.4486 51.5773 76.1055 50.9182 76.1055 50.1052C76.1055 49.2921 75.4486 48.6331 74.6382 48.6331C73.8278 48.6331 73.1709 49.2921 73.1709 50.1052C73.1709 50.9182 73.8278 51.5773 74.6382 51.5773Z" fill="#8B5CF6"/>
<path d="M62.1286 50.736C61.8435 53.5325 58.613 56.2772 55.1742 56.276C51.7353 56.2748 48.5072 53.5325 48.2269 50.736C48.1958 50.4272 48.0545 48.9046 48.8714 48.3758C49.3577 48.0622 49.9494 48.228 49.9913 48.24C50.9268 48.5152 51.0633 49.6412 51.7556 50.736C51.903 50.9692 53.3894 53.2164 55.179 53.214C56.9685 53.2116 58.4813 50.9307 58.6047 50.736C59.267 49.7037 59.4204 48.7315 60.369 48.3758C60.4888 48.3338 61.0386 48.1235 61.489 48.3758C62.3118 48.8421 62.1489 50.5317 62.1286 50.736Z" fill="#F9FAFB"/>
<path d="M79.0201 28.8597L77.0497 29.5279C77.0241 29.5369 77.0008 29.5516 76.9817 29.571C76.9626 29.5904 76.9482 29.6138 76.9395 29.6397L76.2735 31.6165C76.2619 31.6517 76.2395 31.6824 76.2095 31.7041C76.1795 31.7258 76.1434 31.7375 76.1064 31.7375C76.0695 31.7375 76.0334 31.7258 76.0034 31.7041C75.9734 31.6824 75.951 31.6517 75.9394 31.6165L75.2734 29.6397C75.2647 29.6137 75.2501 29.5901 75.2307 29.5707C75.2114 29.5513 75.1879 29.5367 75.162 29.5279L73.1916 28.8597C73.1565 28.848 73.126 28.8255 73.1043 28.7955C73.0827 28.7654 73.071 28.7292 73.071 28.6921C73.071 28.655 73.0827 28.6188 73.1043 28.5887C73.126 28.5586 73.1565 28.5362 73.1916 28.5245L75.162 27.8563C75.1877 27.8476 75.2111 27.8331 75.2304 27.8139C75.2497 27.7948 75.2644 27.7714 75.2734 27.7457L75.9406 25.7677C75.9522 25.7325 75.9746 25.7018 76.0046 25.6801C76.0346 25.6584 76.0707 25.6467 76.1076 25.6467C76.1446 25.6467 76.1807 25.6584 76.2107 25.6801C76.2407 25.7018 76.2631 25.7325 76.2747 25.7677L76.9407 27.7457C76.9496 27.7713 76.9642 27.7945 76.9832 27.8136C77.0023 27.8328 77.0254 27.8473 77.0509 27.8563L79.0213 28.5245C79.0563 28.5363 79.0868 28.5589 79.1083 28.589C79.1299 28.6192 79.1414 28.6554 79.1412 28.6925C79.1411 28.7296 79.1293 28.7658 79.1076 28.7958C79.0858 28.8258 79.0552 28.8482 79.0201 28.8597Z" fill="#F9FAFB"/>
<path d="M19.2019 51.3873L17.2315 52.0542C17.2056 52.063 17.1821 52.0776 17.1628 52.097C17.1434 52.1164 17.1288 52.14 17.1201 52.166L16.4553 54.1429C16.4433 54.1779 16.4207 54.2083 16.3907 54.2299C16.3606 54.2514 16.3246 54.263 16.2876 54.263C16.2507 54.263 16.2147 54.2514 16.1846 54.2299C16.1545 54.2083 16.1319 54.1779 16.1199 54.1429L15.4516 52.166C15.4431 52.1401 15.4287 52.1165 15.4096 52.0971C15.3904 52.0778 15.3671 52.0631 15.3414 52.0542L13.371 51.3873C13.336 51.3753 13.3057 51.3526 13.2842 51.3224C13.2628 51.2922 13.2512 51.2561 13.2512 51.219C13.2512 51.182 13.2628 51.1458 13.2842 51.1157C13.3057 51.0855 13.336 51.0628 13.371 51.0508L15.3414 50.3826C15.3672 50.3743 15.3906 50.3599 15.4097 50.3407C15.4289 50.3214 15.4432 50.2979 15.4516 50.2721L16.1176 48.2952C16.1295 48.2602 16.1521 48.2297 16.1822 48.2082C16.2123 48.1866 16.2483 48.175 16.2852 48.175C16.3222 48.175 16.3582 48.1866 16.3883 48.2082C16.4183 48.2297 16.441 48.2602 16.4529 48.2952L17.1177 50.2721C17.1263 50.298 17.1409 50.3215 17.1603 50.3407C17.1796 50.3599 17.2032 50.3742 17.2291 50.3826L19.1995 51.0508C19.2345 51.0626 19.265 51.085 19.2867 51.115C19.3084 51.145 19.3202 51.1811 19.3205 51.2182C19.3207 51.2552 19.3094 51.2915 19.2882 51.3218C19.2669 51.3521 19.2368 51.375 19.2019 51.3873Z" fill="#F9FAFB"/>
<path d="M77.5525 70.567L75.581 71.2351C75.5553 71.2437 75.5319 71.2581 75.5128 71.2773C75.4937 71.2965 75.4793 71.3199 75.4708 71.3457L74.8048 73.3238C74.7928 73.3588 74.7702 73.3892 74.7401 73.4108C74.7101 73.4323 74.674 73.4439 74.6371 73.4439C74.6001 73.4439 74.5641 73.4323 74.5341 73.4108C74.504 73.3892 74.4814 73.3588 74.4694 73.3238L73.8046 71.3457C73.7957 71.32 73.781 71.2967 73.7617 71.2775C73.7424 71.2583 73.719 71.2439 73.6932 71.2351L71.7228 70.567C71.6877 70.5553 71.6572 70.5328 71.6356 70.5027C71.6139 70.4726 71.6023 70.4364 71.6023 70.3993C71.6023 70.3622 71.6139 70.3261 71.6356 70.296C71.6572 70.2659 71.6877 70.2434 71.7228 70.2317L73.6932 69.5635C73.7191 69.5548 73.7427 69.5401 73.762 69.5207C73.7813 69.5014 73.7959 69.4777 73.8046 69.4518L74.4694 67.4749C74.4814 67.4398 74.504 67.4094 74.5341 67.3879C74.5641 67.3663 74.6001 67.3547 74.6371 67.3547C74.674 67.3547 74.7101 67.3663 74.7401 67.3879C74.7702 67.4094 74.7928 67.4398 74.8048 67.4749L75.4708 69.4518C75.4791 69.4778 75.4934 69.5014 75.5126 69.5208C75.5317 69.5402 75.5551 69.5549 75.581 69.5635L77.5513 70.2317C77.5865 70.2433 77.6171 70.2656 77.6388 70.2957C77.6606 70.3257 77.6724 70.3618 77.6725 70.3989C77.6726 70.436 77.6611 70.4722 77.6396 70.5024C77.618 70.5325 77.5876 70.5551 77.5525 70.567Z" fill="#F9FAFB"/>
<path d="M83.0877 35.5918L81.6707 36.0725C81.6521 36.0783 81.6352 36.0885 81.6214 36.1023C81.6076 36.1161 81.5974 36.1331 81.5917 36.1518L81.1126 37.5734C81.1038 37.5983 81.0876 37.6199 81.0662 37.6351C81.0447 37.6504 81.0191 37.6586 80.9928 37.6586C80.9665 37.6586 80.9408 37.6504 80.9194 37.6351C80.8979 37.6199 80.8817 37.5983 80.873 37.5734L80.3939 36.1518C80.3874 36.1333 80.3768 36.1166 80.3629 36.1028C80.349 36.0891 80.3321 36.0787 80.3136 36.0725L78.8966 35.5918C78.8718 35.583 78.8503 35.5668 78.8351 35.5452C78.8199 35.5237 78.8118 35.498 78.8118 35.4716C78.8118 35.4452 78.8199 35.4195 78.8351 35.398C78.8503 35.3764 78.8718 35.3602 78.8966 35.3514L80.3136 34.8707C80.3321 34.8641 80.3489 34.8534 80.3627 34.8395C80.3766 34.8256 80.3872 34.8088 80.3939 34.7902L80.873 33.3686C80.8817 33.3437 80.8979 33.3221 80.9194 33.3069C80.9408 33.2916 80.9665 33.2834 80.9928 33.2834C81.0191 33.2834 81.0447 33.2916 81.0662 33.3069C81.0876 33.3221 81.1038 33.3437 81.1126 33.3686L81.5917 34.7902C81.5979 34.8088 81.6082 34.8257 81.6219 34.8397C81.6356 34.8536 81.6523 34.8643 81.6707 34.8707L83.0877 35.3514C83.1125 35.3602 83.134 35.3764 83.1492 35.398C83.1644 35.4195 83.1726 35.4452 83.1726 35.4716C83.1726 35.498 83.1644 35.5237 83.1492 35.5452C83.134 35.5668 83.1125 35.583 83.0877 35.5918Z" fill="#F9FAFB"/>
<path d="M36.4647 28.3885L35.0477 28.8692C35.0291 28.8757 35.0122 28.8863 34.9984 28.9003C34.9845 28.9142 34.9739 28.9311 34.9674 28.9497L34.4883 30.3714C34.4796 30.3963 34.4634 30.4178 34.4419 30.4331C34.4204 30.4483 34.3948 30.4565 34.3685 30.4565C34.3422 30.4565 34.3166 30.4483 34.2951 30.4331C34.2737 30.4178 34.2574 30.3963 34.2487 30.3714L33.7696 28.9497C33.7632 28.9313 33.7528 28.9145 33.7391 28.9006C33.7254 28.8866 33.7088 28.8759 33.6905 28.8692L32.6029 28.5015L32.2724 28.3897C32.2476 28.381 32.2261 28.3647 32.2109 28.3432C32.1957 28.3217 32.1875 28.2959 32.1875 28.2695C32.1875 28.2432 32.1957 28.2174 32.2109 28.1959C32.2261 28.1744 32.2476 28.1581 32.2724 28.1494L33.6905 27.6687C33.7089 27.6624 33.7255 27.652 33.7392 27.6382C33.7529 27.6245 33.7633 27.6078 33.7696 27.5894L34.0774 26.6784L34.2487 26.1713C34.2574 26.1464 34.2737 26.1249 34.2951 26.1096C34.3166 26.0944 34.3422 26.0862 34.3685 26.0862C34.3948 26.0862 34.4204 26.0944 34.4419 26.1096C34.4634 26.1249 34.4796 26.1464 34.4883 26.1713L34.541 26.3287L34.7326 26.8996L34.9662 27.593C34.9721 27.6118 34.9825 27.6288 34.9965 27.6427C35.0105 27.6565 35.0276 27.6667 35.0465 27.6723L36.4635 28.153C36.4868 28.1625 36.5067 28.1787 36.5208 28.1996C36.5349 28.2205 36.5425 28.2451 36.5426 28.2703C36.5428 28.2956 36.5354 28.3203 36.5215 28.3413C36.5077 28.3623 36.4879 28.3788 36.4647 28.3885Z" fill="#F9FAFB"/>
<path d="M104.38 40.9947C104.02 40.5008 103.584 39.9131 103.087 39.2978L104.964 38.745L111 32.3615L104.532 31.191L104.937 28.1866L104.734 24.6067L103.544 13.7442L89.4468 22.6935L89.1366 23.3845C87.3614 20.1735 84.7862 17.2665 82.8098 15.0349C80.534 12.4704 76.737 8.17779 70.1646 5.73587C64.9494 3.79868 60.3595 3.92606 58.1543 3.98855C56.0103 4.04864 52.4229 4.14718 48.2126 5.69381C43.5268 7.41108 39.9825 10.151 37.8337 12.1471C37.0328 12.8879 36.273 13.6722 35.5578 14.4965L36.1232 11.4321L29.8252 5.95218L23.5859 10.1979L23.4589 12.0077L16.5117 4.54495L5.07747 0L3.64011 11.4261L6.03571 16.1861L0.674361 16.5971L1.05287 23.2295L4.2462 26.5487L2.15604 27.492L0 31.245L3.15141 36.2202L7.31496 37.2116L8.80502 37.053C7.56649 38.161 6.70767 39.2774 6.05847 40.115C4.16182 42.5907 2.78251 45.4249 2.0031 48.4478C1.22369 51.4708 1.06019 54.6205 1.5224 57.7084C1.73082 59.0952 2.28181 62.7809 4.74568 66.618C5.8237 68.3004 7.04306 69.6416 8.01926 70.7195C8.71398 71.485 9.75966 72.6423 9.81596 73.0581C9.74257 73.1679 9.66257 73.273 9.5764 73.373C9.19191 73.8537 8.61097 74.5879 8.3786 75.887C8.16893 77.1021 8.31583 78.3521 8.80142 79.485C9.78122 81.7358 12.1289 83.3305 14.6455 83.4507C16.1212 83.5204 16.998 83.0169 17.64 82.6491C17.8375 82.5259 18.0455 82.4206 18.2616 82.3343C18.3191 82.3151 18.3814 82.2946 18.4437 82.2802C18.5665 82.2501 18.6914 82.23 18.8174 82.2201C19.3864 82.1744 19.6128 82.273 20.771 82.9111C21.4622 83.2933 22.3282 83.7691 23.5691 84.3147C25.2747 85.0646 27.6105 86.0909 30.5834 86.4779C31.6769 86.6146 32.7797 86.6629 33.8809 86.6221C35.1242 86.5968 35.4069 86.6221 35.8549 86.9465C36.2466 87.2313 36.6083 87.9223 37.3893 89.4569C37.8273 90.3138 38.1985 91.2033 38.4996 92.1176C38.835 93.079 39.1524 93.9923 40.0149 95.313C41.1324 97.0219 42.2811 98.077 43.5256 98.5577C44.242 98.8411 45.0039 98.991 45.7739 98.9999C46.4457 99.0041 47.1109 98.8666 47.7263 98.5961C50.8861 97.1745 51.2754 92.7521 51.4395 90.863C51.5125 90.0361 51.5198 89.2046 51.461 88.3766C51.4446 88.1727 51.4394 87.9681 51.4454 87.7637L51.4622 87.7385C51.9737 87.0174 53.9584 87.0343 55.1443 87.0463C56.3564 87.0595 58.1867 87.0763 58.6586 87.7505C58.6694 87.7673 58.6766 87.7781 58.6802 87.7853C58.6835 87.986 58.6739 88.1867 58.6514 88.3862C58.5685 89.2219 58.5709 90.0639 58.6586 90.899C58.7341 91.6032 59.5078 97.8054 63.4618 98.7103C65.1614 99.0984 66.5605 98.2993 67.5822 97.7165C69.3513 96.707 70.2389 95.3647 71.1756 93.943C72.1889 92.4668 72.9574 90.8358 73.4514 89.1133C73.6629 88.3708 73.8041 87.6099 73.873 86.8408C73.879 86.7747 73.8874 86.7026 73.8946 86.6365C74.1126 86.5908 74.7271 86.6449 75.1463 86.6821C76.2135 86.8002 77.2894 86.8187 78.36 86.7374C83.4434 86.2952 88.4526 83.0505 89.4049 82.404C89.4672 82.3631 89.5247 82.3211 89.5893 82.2838C90.0924 81.9389 90.3284 81.7863 90.6674 81.7454C90.8285 81.7236 90.9924 81.7393 91.1465 81.7911C91.3843 81.8791 91.6116 81.9931 91.8244 82.1312L91.8388 82.1396L91.9059 82.1781C92.0436 82.2574 92.1347 82.3139 92.2317 82.3739C92.2497 82.3872 92.2688 82.3968 92.288 82.41C92.3072 82.4232 92.3275 82.4328 92.3479 82.4472C92.4485 82.5073 92.5539 82.5674 92.6629 82.6275L92.6773 82.6347L92.7971 82.6972L92.809 82.7044L92.8557 82.7284L92.9072 82.7549C93.1665 82.8867 93.4333 83.0031 93.7062 83.1034L93.8835 83.1635L94.0691 83.2188L94.1398 83.2392L94.1721 83.2488L94.3159 83.2837C94.3997 83.3029 94.4859 83.3209 94.5734 83.3389L94.7051 83.3606C94.7698 83.3714 94.8345 83.381 94.8992 83.3882C94.9639 83.3954 95.0034 83.4014 95.0561 83.4062L95.2154 83.4182C95.2645 83.4182 95.3148 83.4243 95.3651 83.4255H95.4562H95.4789C95.5137 83.4255 95.5496 83.4255 95.5843 83.4255C95.7209 83.4255 95.8586 83.4255 95.9976 83.4086L96.1641 83.3954C96.1952 83.3954 96.2275 83.3882 96.2599 83.3834C96.3593 83.3726 96.4659 83.357 96.5797 83.3401C96.5832 83.339 96.587 83.339 96.5905 83.3401C97.6314 83.1671 99.2256 82.6708 100.304 81.2527C101.648 79.5006 101.425 77.4492 101.318 76.4626C101.318 76.4254 101.31 76.3881 101.306 76.3545C101.303 76.3208 101.306 76.3076 101.297 76.2824C101.21 75.6704 101.062 75.0689 100.855 74.487V74.4786C100.758 74.2184 100.649 73.9633 100.526 73.7143C100.484 73.6133 100.461 73.5053 100.458 73.3958C100.433 72.6303 101.238 71.8263 102.015 71.0476C102.146 70.9178 102.274 70.788 102.396 70.6631C106.497 66.4414 107.786 61.0684 108.208 59.3019C108.536 57.9355 109.196 54.2678 108.25 49.7373C107.591 46.5813 106.272 43.6015 104.38 40.9947ZM100.594 35.3718L101.334 34.2734L102.944 35.0509C102.939 35.0821 102.924 35.1111 102.903 35.1343C102.882 35.1576 102.854 35.1741 102.824 35.1819L100.189 35.9702L100.594 35.3718ZM99.5934 35.7864C99.5914 35.7869 99.5893 35.7869 99.5874 35.7864C99.4388 35.6734 99.2891 35.5629 99.1346 35.4559C98.9038 35.2957 98.6643 35.1395 98.4159 34.9872C98.3944 34.9728 98.3716 34.9596 98.3489 34.9464L98.392 34.9356L99.5035 34.6447L100.191 34.4657L100.541 34.3744L99.5934 35.7864ZM101.15 24.8506L101.33 28.0376L100.807 31.9264L100.579 33.6088L100.562 33.729L100.518 33.7398L99.8305 33.9189L99.0268 34.128L97.7799 34.4525L97.6433 34.4873L99.8293 30.6826L99.6568 26.7986L100.865 22.232L101.15 24.8506ZM93.6679 30.2428L95.7412 29.2021L95.9089 29.1048L99.0783 27.2661L99.2244 30.5504L97.0852 34.2758C96.1923 33.8716 95.2458 33.5992 94.2751 33.467C94.02 33.4334 93.7757 33.4118 93.5397 33.3889C93.1453 33.3688 92.754 33.3084 92.3718 33.2087L93.6679 30.2428ZM93.4666 26.7578L94.9794 25.9382L95.2765 28.7683L93.6942 29.5626L93.4666 26.7578ZM100.61 19.8755L100.688 20.5869L99.0975 26.5583L95.8407 28.4486L95.5376 25.5512L99.7299 20.4294L100.61 19.8755ZM98.1201 21.4557L95.0369 25.2256L93.2402 26.1954L92.4197 25.0729L98.1201 21.4557ZM90.974 28.0797L92.0772 25.6233L92.8593 26.6953L93.1324 29.9712L91.8544 32.907C91.2207 32.2905 91.2207 31.0492 91.2207 30.4519V30.3041C91.2155 29.5568 91.1352 28.812 90.9812 28.0809L90.974 28.0797ZM32.2208 12.8045L32.1681 13.0917L29.8252 13.6709L29.6096 10.5368L32.2208 12.8045ZM28.9268 21.6228C28.7795 21.6468 28.6298 21.6732 28.4753 21.7045L27.8632 14.8871L29.6287 14.3391H29.6419L31.9082 13.7791L28.9268 21.6228ZM31.562 16.3748L30.9427 19.7084L30.2001 21.4209C30.024 21.4509 29.8288 21.4798 29.6108 21.5122H29.6048L31.562 16.3748ZM27.0487 12.1976L29.031 10.848L29.2371 13.8307L27.6093 14.3355L26.9385 13.7586L27.0487 12.1976ZM26.887 14.5049L27.2523 14.8198L27.8812 21.8331C27.6528 21.8883 27.4156 21.9536 27.1697 22.029C27.0223 22.0746 26.875 22.1239 26.7301 22.178L26.5121 19.8394L26.887 14.5049ZM15.0923 8.30277L25.9216 19.9271L26.0737 21.5459L25.2879 20.6614L25.2125 20.5857L15.7187 11.1004L15.0923 8.68372L14.9725 8.3232L15.0923 8.30277ZM12.85 28.6541L14.3173 29.815L7.00712 30.8845L6.13033 29.6503L9.9022 27.9523V27.9727L12.85 28.6541ZM13.1818 28.1518L10.7862 26.0079L11.9037 26.5859L15.212 26.7614L16.1248 30.1358L15.2863 29.8174L13.1818 28.1518ZM9.11884 24.4685L9.07332 22.0926H12.317L14.885 26.1425L12.063 25.9935L9.11884 24.4685ZM15.9211 27.0726L15.7259 26.3516L13.0213 22.083L7.5629 11.223L9.2482 12.0173L18.4545 24.8314L16.9057 25.4467L15.9211 27.0726ZM17.283 25.8709L18.5934 25.4154L18.4796 25.9851L18.3503 29.809L18.6485 30.2993C18.5515 30.5588 18.4784 30.792 18.4162 31.0035L16.8219 30.4026L16.1703 28.0004L17.283 25.8709ZM9.94173 11.9476L12.7901 11.1304L21.0777 21.3788L20.2536 21.499L19.8511 21.678C19.5245 22.5769 19.1979 23.475 18.8713 24.3723L9.94173 11.9476ZM13.6405 11.2266L15.3031 11.5366L24.2638 20.4943L22.9139 20.3585L21.6873 21.1901L13.6405 11.2266ZM19.0522 26.8491L20.4392 27.1724C20.2045 27.4928 19.9753 27.8229 19.7517 28.1626C19.4559 28.6108 19.1906 29.0786 18.9576 29.5626L19.0522 26.8491ZM19.0725 26.2374V26.0788L19.2642 25.1174L20.147 22.2909L23.3175 24.12C22.397 24.8674 21.5637 25.7168 20.8333 26.652L19.0725 26.2374ZM20.8788 22.0145L21.7173 21.8944L23.0708 20.975L24.9262 21.1625L26.0617 22.4436C25.2758 22.787 24.5296 23.2153 23.8362 23.721L20.8788 22.0145ZM14.5101 8.84595L15.0408 10.8745L13.1375 10.526L12.7146 8.80629L14.3736 8.45298L14.5101 8.84595ZM14.031 7.43992L14.1795 7.88096L12.4236 8.2523L8.87689 5.38857L14.031 7.43992ZM8.01207 5.46307L12.0846 8.74621L12.5338 10.5752L9.47099 11.4573L7.38203 10.4743L8.01207 5.46307ZM8.47083 21.9268L8.50437 23.8916L6.19861 21.481L6.30641 20.6398L6.16627 20.1891L8.47083 21.9268ZM8.64212 24.8987H8.65409L11.9133 27.8165L10.0519 27.3875L4.75526 21.8859H5.75542L8.64212 24.8987ZM5.43561 19.8514L5.69673 20.701L5.62007 21.2899H4.54205L4.463 19.9271L5.43561 19.8514ZM4.19948 31.1477L4.6786 30.3065L5.56857 29.9063L6.44176 31.1249L5.24396 32.7953L4.19948 31.1477ZM5.74943 33.1257L6.70767 31.7834L7.13888 33.4574L5.74943 33.1257ZM7.78569 33.5307L7.25147 31.4589L14.9557 30.3305L18.2509 31.5803C18.1454 31.9096 17.9563 32.2057 17.7023 32.4396L17.6663 32.4768L7.78569 33.5307ZM104.706 58.4607C104.346 59.9881 103.226 64.634 99.8138 68.1466C99.7036 68.2668 99.5886 68.3774 99.4688 68.4951C98.9489 69.0155 98.3009 69.6656 97.7811 70.4624C97.5236 70.2581 97.2648 70.0598 97.0073 69.8615C96.7761 69.6861 96.5366 69.501 96.2982 69.3159C94.9564 68.2508 93.7136 67.0658 92.585 65.7756C92.2696 65.4172 91.8251 65.1992 91.3495 65.1696C90.8738 65.1399 90.4059 65.3011 90.0487 65.6176C89.6915 65.9341 89.4742 66.38 89.4447 66.8572C89.4151 67.3344 89.5757 67.8039 89.8912 68.1623C91.1657 69.616 92.5689 70.951 94.0835 72.1508C94.3458 72.3575 94.5973 72.5486 94.8405 72.7336C95.9185 73.5568 96.7055 74.1529 97.2361 75.1876C97.2457 75.2044 97.2553 75.2248 97.2648 75.2441C97.3559 75.4274 97.4359 75.616 97.5044 75.8089V75.8185C97.6175 76.1391 97.7017 76.4693 97.7559 76.8051V76.8352C97.8242 77.4709 97.9284 78.4347 97.4661 79.0379C97.4661 79.0379 97.0444 79.5787 95.9149 79.7806C95.8124 79.798 95.7087 79.8072 95.6047 79.8082C95.3424 79.8154 94.8561 79.7866 93.9146 79.3107C93.4257 79.062 92.9606 78.7687 92.5252 78.4347C92.3395 78.3349 91.6148 77.8698 89.5846 75.8822C89.2421 75.549 88.7817 75.3659 88.3047 75.3732C87.8277 75.3805 87.3732 75.5777 87.041 75.9212C86.7089 76.2648 86.5264 76.7267 86.5337 77.2053C86.541 77.6838 86.7375 78.1399 87.08 78.4731C87.3299 78.7183 87.5655 78.9458 87.7867 79.1557L87.5782 79.2963L87.4094 79.4165C86.9051 79.7578 82.3546 82.7717 78.0665 83.1418C77.2043 83.2044 76.3382 83.1867 75.4793 83.089C74.1042 82.9688 72.5447 82.8282 71.2427 84.1705C70.4665 84.9745 70.3815 85.8025 70.3132 86.4694C70.2658 87.0306 70.1635 87.5856 70.0077 88.1266C69.5598 89.7105 68.1931 91.9445 68.1931 91.9445C66.921 94.0271 66.364 94.4333 65.9855 94.658C65.607 94.8828 65.0608 95.194 64.4404 95.0714C63.4666 94.8804 62.9659 93.77 62.7635 93.3073C62.4604 92.6355 62.3885 91.9277 62.2436 90.5121C62.2256 90.3318 62.2041 90.0951 62.1981 89.8018C62.1934 89.4255 62.209 89.0492 62.2448 88.6746C62.3131 87.8418 62.3981 86.8035 61.6124 85.6799C60.0804 83.4879 57.1386 83.4591 55.1922 83.4399C53.1811 83.4194 50.141 83.3894 48.5432 85.6523C47.7802 86.7338 47.8365 87.7132 47.8856 88.5797C47.9337 89.2339 47.9293 89.891 47.8724 90.5445C47.567 94.0175 46.8303 95.0498 46.2674 95.3022C46.0697 95.3911 45.6194 95.492 44.8096 95.182C44.3305 94.9981 43.6777 94.324 43.0297 93.3313C42.4093 92.3832 42.1913 91.7691 41.9026 90.9279C41.5489 89.8583 41.1152 88.8171 40.6054 87.813C39.6471 85.9527 39.0806 84.8303 37.9702 84.0251C36.7389 83.1262 35.6165 83.0049 34.4655 83.0049C34.2499 83.0049 34.0343 83.0048 33.8162 83.0145C32.8926 83.0483 31.9678 83.0082 31.0505 82.8943C28.5879 82.5758 26.6079 81.7058 25.016 81.0064C23.9188 80.5257 23.1355 80.0931 22.5066 79.7446L22.1952 79.5751C22.6463 78.9555 23.0042 78.2729 23.2577 77.549C23.4165 77.0982 23.3903 76.6025 23.1849 76.171C22.9795 75.7395 22.6116 75.4076 22.1623 75.2483C21.7129 75.0889 21.2189 75.1152 20.7888 75.3213C20.3588 75.5274 20.0279 75.8964 19.8691 76.3473C19.7564 76.7179 19.5897 77.0698 19.3744 77.3916C19.1213 77.7298 18.817 78.0263 18.4725 78.27C17.9555 78.6837 17.3864 79.0271 16.78 79.2915C15.9235 79.6628 15.4552 79.8659 14.818 79.8419C13.6825 79.7974 12.5158 79.0511 12.099 78.0393C11.9165 77.5515 11.8552 77.0264 11.9205 76.5095C11.99 76.1141 12.1133 75.9579 12.384 75.619C12.7531 75.1922 13.0398 74.7004 13.2297 74.1685C13.9663 71.9189 12.3673 70.1547 10.6736 68.2884C9.7393 67.2586 8.68164 66.0941 7.76293 64.6616C5.71709 61.4746 5.24756 58.3453 5.07268 57.1676C4.68423 54.5621 4.8229 51.9049 5.48041 49.3544C6.13792 46.8039 7.30079 44.4124 8.89964 42.3226C9.78362 41.1774 10.9958 39.6079 13.0392 38.3569C14.3568 37.5505 15.3474 37.297 16.2996 37.0518C17.204 36.8187 18.1311 36.5807 19.0893 35.9438C19.5246 35.6538 19.9263 35.316 20.2871 34.9368C21.3304 33.8552 21.5855 32.9791 21.8107 32.21C21.9069 31.8549 22.0294 31.5074 22.1772 31.1705C22.345 30.8102 22.5396 30.4632 22.7594 30.1322C24.362 27.6735 26.2078 26.104 28.2441 25.4671C28.3231 25.4419 28.4022 25.419 28.4837 25.3974C29.0286 25.2568 29.5819 25.1509 30.1402 25.0802C31.0026 24.9516 31.9369 24.8146 32.8484 24.3591C33.4352 24.0689 33.9631 23.672 34.4056 23.1886C35.0419 22.4903 35.5178 21.6604 35.7998 20.7575L35.813 20.7143C36.8527 17.6174 42.305 11.6868 49.4475 9.06827C53.1116 7.72594 56.2091 7.63941 58.2597 7.58173C60.2385 7.52645 64.3577 7.41108 68.9201 9.10553C74.6504 11.2362 77.9467 14.9568 80.1279 17.4203C82.5427 20.147 85.9612 24.0058 87.1746 27.7552C87.4551 28.5818 87.607 29.4467 87.625 30.3197V30.4399C87.625 31.3772 87.625 33.8696 89.4217 35.5496C90.6877 36.7358 92.149 36.8716 93.2163 36.9701C93.4259 36.9893 93.6235 37.0073 93.8044 37.0314C95.9029 37.3126 97.6685 38.6585 99.0819 40.1463C100.056 41.1738 100.864 42.2697 101.498 43.129C103.08 45.3157 104.182 47.8141 104.732 50.4595C105.543 54.3976 104.918 57.5798 104.706 58.4607Z" fill="#F9FAFB"/>
</g>
<defs>
<clipPath id="clip0_4422_3170">
<rect width="111" height="99" fill="white"/>
</clipPath>
</defs>
</svg>
