<svg width="393" height="335" viewBox="0 0 393 335" fill="none" xmlns="http://www.w3.org/2000/svg">
<g clip-path="url(#clip0_4697_3539)">
<path d="M366 38.843L374.492 42.4267C375.276 42.7574 375.668 42.9227 375.998 43.1761C376.291 43.4005 376.548 43.675 376.757 43.9885C376.994 44.3422 377.149 44.7615 377.458 45.6003L380.807 54.6866L384.156 45.6003C384.465 44.7615 384.62 44.3422 384.857 43.9885C385.066 43.675 385.323 43.4005 385.616 43.1761C385.946 42.9227 386.338 42.7574 387.122 42.4267L395.614 38.843L387.122 35.2594C386.338 34.9286 385.946 34.7632 385.616 34.51C385.323 34.2855 385.066 34.011 384.857 33.6976C384.62 33.344 384.465 32.9246 384.156 32.0858L380.807 22.9995L377.458 32.0858C377.149 32.9246 376.994 33.344 376.757 33.6976C376.548 34.011 376.291 34.2855 375.998 34.51C375.668 34.7632 375.276 34.9286 374.492 35.2594L366 38.843Z" fill="#491496" fill-opacity="0.6"/>
<path d="M116 188.844L124.492 192.427C125.276 192.758 125.668 192.923 125.998 193.177C126.291 193.401 126.548 193.675 126.757 193.989C126.994 194.343 127.149 194.762 127.458 195.601L130.807 204.687L134.156 195.601C134.465 194.762 134.62 194.343 134.857 193.989C135.066 193.675 135.323 193.401 135.616 193.177C135.946 192.923 136.338 192.758 137.122 192.427L145.614 188.844L137.122 185.26C136.338 184.929 135.946 184.764 135.616 184.51C135.323 184.286 135.066 184.012 134.857 183.698C134.62 183.344 134.465 182.925 134.156 182.086L130.807 173L127.458 182.086C127.149 182.925 126.994 183.344 126.757 183.698C126.548 184.012 126.291 184.286 125.998 184.51C125.668 184.764 125.276 184.929 124.492 185.26L116 188.844Z" fill="#491496" fill-opacity="0.6"/>
<path d="M341 179.864L349.492 183.448C350.276 183.778 350.668 183.944 350.998 184.197C351.291 184.422 351.548 184.696 351.757 185.009C351.994 185.363 352.149 185.782 352.458 186.621L355.807 195.708L359.156 186.621C359.465 185.782 359.62 185.363 359.857 185.009C360.066 184.696 360.323 184.422 360.616 184.197C360.946 183.944 361.338 183.778 362.122 183.448L370.614 179.864L362.122 176.28C361.338 175.95 360.946 175.784 360.616 175.531C360.323 175.306 360.066 175.032 359.857 174.719C359.62 174.365 359.465 173.946 359.156 173.107L355.807 164.021L352.458 173.107C352.149 173.946 351.994 174.365 351.757 174.719C351.548 175.032 351.291 175.306 350.998 175.531C350.668 175.784 350.276 175.95 349.492 176.28L341 179.864Z" fill="#491496" fill-opacity="0.6"/>
<path d="M198 42.343L206.492 45.9267C207.276 46.2574 207.668 46.4227 207.998 46.6761C208.291 46.9005 208.548 47.175 208.757 47.4885C208.994 47.8422 209.149 48.2615 209.458 49.1003L212.807 58.1866L216.156 49.1003C216.465 48.2615 216.62 47.8422 216.857 47.4885C217.066 47.175 217.323 46.9005 217.616 46.6761C217.946 46.4227 218.338 46.2574 219.122 45.9267L227.614 42.343L219.122 38.7594C218.338 38.4286 217.946 38.2632 217.616 38.01C217.323 37.7855 217.066 37.511 216.857 37.1976C216.62 36.844 216.465 36.4246 216.156 35.5858L212.807 26.4995L209.458 35.5858C209.149 36.4246 208.994 36.844 208.757 37.1976C208.548 37.511 208.291 37.7855 207.998 38.01C207.668 38.2632 207.276 38.4286 206.492 38.7594L198 42.343Z" fill="#491496" fill-opacity="0.6"/>
<path d="M78 46.843L86.4919 50.4267C87.2757 50.7574 87.6677 50.9227 87.9982 51.1761C88.2911 51.4005 88.5476 51.675 88.7574 51.9885C88.9941 52.3422 89.1487 52.7615 89.4578 53.6003L92.807 62.6866L96.1562 53.6003C96.4653 52.7615 96.6198 52.3422 96.8565 51.9885C97.0663 51.675 97.3228 51.4005 97.6158 51.1761C97.9463 50.9227 98.3382 50.7574 99.1222 50.4267L107.614 46.843L99.1222 43.2594C98.3382 42.9286 97.9463 42.7632 97.6158 42.51C97.3228 42.2855 97.0663 42.011 96.8565 41.6976C96.6198 41.344 96.4653 40.9246 96.1562 40.0858L92.807 30.9995L89.4578 40.0858C89.1487 40.9246 88.9941 41.344 88.7574 41.6976C88.5476 42.011 88.2911 42.2855 87.9982 42.51C87.6677 42.7632 87.2757 42.9286 86.4919 43.2594L78 46.843Z" fill="#491496" fill-opacity="0.6"/>
<g filter="url(#filter0_d_4697_3539)">
<path d="M219.063 142.812L224.694 144.434C225.382 144.632 225.725 144.731 226.006 144.927C226.255 145.1 226.467 145.326 226.628 145.592C226.811 145.893 226.903 146.261 227.088 146.996L228.605 153.022L230.121 146.996C230.306 146.261 230.399 145.893 230.581 145.592C230.743 145.326 230.955 145.1 231.203 144.927C231.484 144.731 231.828 144.632 232.515 144.434L238.147 142.812L232.515 141.189C231.828 140.991 231.484 140.892 231.203 140.697C230.955 140.524 230.743 140.297 230.581 140.031C230.399 139.731 230.306 139.363 230.121 138.628L228.605 132.602L227.088 138.628C226.903 139.363 226.811 139.731 226.628 140.031C226.467 140.297 226.255 140.524 226.006 140.697C225.725 140.892 225.382 140.991 224.694 141.189L219.063 142.812Z" fill="#491496" fill-opacity="0.6" shape-rendering="crispEdges"/>
</g>
<path d="M252 190.21L257.632 191.833C258.319 192.031 258.663 192.13 258.944 192.325C259.192 192.498 259.404 192.725 259.566 192.991C259.748 193.291 259.841 193.659 260.026 194.394L261.542 200.421L263.059 194.394C263.244 193.659 263.336 193.291 263.519 192.991C263.68 192.725 263.892 192.498 264.141 192.325C264.422 192.13 264.765 192.031 265.453 191.833L271.085 190.21L265.453 188.588C264.765 188.39 264.422 188.291 264.141 188.095C263.892 187.922 263.68 187.696 263.519 187.43C263.336 187.129 263.244 186.761 263.059 186.026L261.542 180L260.026 186.026C259.841 186.761 259.748 187.129 259.566 187.43C259.404 187.696 259.192 187.922 258.944 188.095C258.663 188.291 258.319 188.39 257.632 188.588L252 190.21Z" fill="#491496" fill-opacity="0.6"/>
<path d="M177 65.2098L182.632 66.8323C183.319 67.0303 183.663 67.1293 183.944 67.3247C184.192 67.4976 184.404 67.7243 184.566 67.9904C184.748 68.2909 184.841 68.6586 185.026 69.394L186.542 75.4201L188.059 69.394C188.244 68.6586 188.336 68.2909 188.519 67.9904C188.68 67.7243 188.892 67.4976 189.141 67.3247C189.422 67.1293 189.765 67.0303 190.453 66.8323L196.085 65.2098L190.453 63.5873C189.765 63.3893 189.422 63.2903 189.141 63.0949C188.892 62.922 188.68 62.6952 188.519 62.4292C188.336 62.1287 188.244 61.761 188.059 61.0256L186.542 54.9995L185.026 61.0256C184.841 61.761 184.748 62.1287 184.566 62.4292C184.404 62.6952 184.192 62.922 183.944 63.0949C183.663 63.2903 183.319 63.3893 182.632 63.5873L177 65.2098Z" fill="#491496" fill-opacity="0.6"/>
<path d="M306 57.2103L311.632 58.8328C312.319 59.0308 312.663 59.1298 312.944 59.3252C313.192 59.4981 313.404 59.7248 313.566 59.9909C313.748 60.2914 313.841 60.6591 314.026 61.3944L315.542 67.4205L317.059 61.3944C317.244 60.6591 317.336 60.2914 317.519 59.9909C317.68 59.7248 317.892 59.4981 318.141 59.3252C318.422 59.1298 318.765 59.0308 319.453 58.8328L325.085 57.2103L319.453 55.5877C318.765 55.3898 318.422 55.2907 318.141 55.0954C317.892 54.9224 317.68 54.6957 317.519 54.4297C317.336 54.1291 317.244 53.7615 317.059 53.0261L315.542 47L314.026 53.0261C313.841 53.7615 313.748 54.1291 313.566 54.4297C313.404 54.6957 313.192 54.9224 312.944 55.0954C312.663 55.2907 312.319 55.3898 311.632 55.5877L306 57.2103Z" fill="#491496" fill-opacity="0.6"/>
<path d="M317 228.21L322.632 229.833C323.319 230.031 323.663 230.13 323.944 230.325C324.192 230.498 324.404 230.725 324.566 230.991C324.748 231.291 324.841 231.659 325.026 232.394L326.542 238.421L328.059 232.394C328.244 231.659 328.336 231.291 328.519 230.991C328.68 230.725 328.892 230.498 329.141 230.325C329.422 230.13 329.765 230.031 330.453 229.833L336.085 228.21L330.453 226.588C329.765 226.39 329.422 226.291 329.141 226.095C328.892 225.922 328.68 225.696 328.519 225.43C328.336 225.129 328.244 224.761 328.059 224.026L326.542 218L325.026 224.026C324.841 224.761 324.748 225.129 324.566 225.43C324.404 225.696 324.192 225.922 323.944 226.095C323.663 226.291 323.319 226.39 322.632 226.588L317 228.21Z" fill="#491496" fill-opacity="0.6"/>
<path d="M77.6582 334C77.5963 329.738 80.5555 321.078 92.8876 320.54C92.5161 312.329 105.145 289.178 136.161 305.464C146.237 303.639 148.866 304.536 148.982 305.321C149.288 298.673 153.732 285.235 169.22 283.524C184.821 281.801 192.312 291.421 194.107 296.446C198.936 294.831 210.117 293.243 216.208 299.811C220.294 296.446 228.466 287.293 246.667 288.37C245.181 283.524 246.11 264.142 274.34 269.526C277.312 265.622 288.084 249.334 314.456 257.277C331.729 262.479 331.729 274.703 331.729 280.832C338.105 280.294 351.193 282.663 352.53 296.446C356.059 296.446 363.599 297.9 365.531 303.714C371.102 301.965 388.189 290.927 409.547 308.426C418.833 316.033 418.833 332.071 418.833 334H77.6582Z" fill="#4C1D95"/>
<path d="M25.0273 253.515C2.62019 244.387 -14.9939 262.289 -21 272.381V334H161.503C162.039 332.124 161.432 326.88 154.724 320.916C146.339 313.46 144.02 315.59 139.025 315.59C139.025 298.429 121.423 293.225 112.622 292.769C113.157 287.647 110.945 276.976 97.8145 275.272C81.4017 273.142 77.2985 281.51 74.2657 283.944C68.0217 282.271 63.2049 283.184 58.5665 285.618C51.9657 276.946 45.1865 278.011 41.6185 277.402C41.6185 264.318 33.2337 256.558 25.0273 253.515Z" fill="#4C1D95"/>
<path d="M268.324 334.999C268.374 330.46 266.017 321.239 256.195 320.665C256.491 311.921 246.433 287.266 221.731 304.611C213.706 302.667 211.613 303.622 211.52 304.458C211.277 297.379 207.737 283.068 195.402 281.246C182.977 279.411 177.011 289.655 175.581 295.007C171.735 293.287 162.831 291.595 157.979 298.591C154.725 295.007 148.216 285.26 133.721 286.406C134.904 281.246 134.164 260.605 111.681 266.338C109.314 262.182 100.735 244.836 79.7312 253.294C65.975 258.834 65.975 271.852 65.975 278.379C60.8965 277.806 50.4734 280.329 49.4084 295.007C46.598 295.007 40.5926 296.555 39.0542 302.747C34.6168 300.884 21.0085 289.13 3.99808 307.764C-3.39771 315.866 -3.39771 332.945 -3.39771 334.999H268.324Z" fill="#6D28D9"/>
<path d="M367.13 259.035C385.566 250.419 400.058 267.316 405 276.841V335H254.84C254.399 333.229 254.898 328.28 260.418 322.65C267.316 315.614 269.225 317.624 273.335 317.624C273.335 301.426 287.817 296.515 295.059 296.084C294.618 291.25 296.438 281.178 307.242 279.57C320.746 277.559 324.122 285.458 326.617 287.755C331.755 286.176 335.718 287.037 339.534 289.335C344.965 281.15 350.543 282.155 353.479 281.58C353.479 269.231 360.378 261.907 367.13 259.035Z" fill="#6D28D9"/>
</g>
<defs>
<filter id="filter0_d_4697_3539" x="138.762" y="52.3016" width="179.684" height="181.02" filterUnits="userSpaceOnUse" color-interpolation-filters="sRGB">
<feFlood flood-opacity="0" result="BackgroundImageFix"/>
<feColorMatrix in="SourceAlpha" type="matrix" values="0 0 0 0 0 0 0 0 0 0 0 0 0 0 0 0 0 0 127 0" result="hardAlpha"/>
<feOffset/>
<feGaussianBlur stdDeviation="40.15"/>
<feComposite in2="hardAlpha" operator="out"/>
<feColorMatrix type="matrix" values="0 0 0 0 1 0 0 0 0 1 0 0 0 0 1 0 0 0 1 0"/>
<feBlend mode="normal" in2="BackgroundImageFix" result="effect1_dropShadow_4697_3539"/>
<feBlend mode="normal" in="SourceGraphic" in2="effect1_dropShadow_4697_3539" result="shape"/>
</filter>
<clipPath id="clip0_4697_3539">
<rect width="393" height="335" fill="white"/>
</clipPath>
</defs>
</svg>
