<svg width="393" height="206" viewBox="0 0 393 206" fill="none" xmlns="http://www.w3.org/2000/svg">
<g clip-path="url(#clip0_2972_5490)">
<path fill-rule="evenodd" clip-rule="evenodd" d="M-18.6791 7.98141C-14.3002 5.02025 -8.35516 1 3.1 1C11.8332 1 40.4984 9.07868 76.4324 19.2059C136.781 36.214 217.632 59 259 59C311.8 59 384.333 34 414 21.5V106V108V206H-20V108H-21V9.5C-20.264 9.05316 -19.499 8.53585 -18.6791 7.98141Z" fill="#4C1D95"/>
<path d="M21.0005 30.4998C3.80046 24.0998 -12.8329 38.1665 -18.9995 45.9998C-19.9995 53.1665 -20.1995 66.6 -12.9995 63C-3.99954 58.5 -0.9632 59.5953 35.0005 76C63.5 89 73.2472 82.5 71.5 79.5C62.6667 64.3333 38.2005 36.8998 21.0005 30.4998Z" fill="#6D28D9"/>
<path d="M328.5 77.5C277.3 90.3 158.833 69.5 106 57.5C98 55.3333 85.4 54.9 99 70.5C112.6 86.1 142.232 102.054 161.5 109.5C224.453 133.827 386.005 119.14 392.5 101L403.5 54.5C399.833 56.8333 379.7 64.7 328.5 77.5Z" fill="#6D28D9"/>
</g>
<defs>
<clipPath id="clip0_2972_5490">
<rect width="393" height="206" fill="white"/>
</clipPath>
</defs>
</svg>
