<svg width="393" height="102" viewBox="0 0 393 102" fill="none" xmlns="http://www.w3.org/2000/svg">
<g clip-path="url(#clip0_4785_2121)">
<path d="M3.1 0C-10.5 2.07651e-07 -16.3333 5.66667 -21 8.5V107H414V20.5C384.333 33 311.8 58 259 58C193 58 26.5 0 3.1 0Z" fill="#4C1D95"/>
<path d="M21.0005 29.4998C3.80046 23.0998 -12.8329 37.1665 -18.9995 44.9998C-19.9995 52.1665 -20.1995 65.6 -12.9995 62C-3.99954 57.5 -0.9632 58.5953 35.0005 75C63.5 88 73.2472 81.5 71.5 78.5C62.6667 63.3333 38.2005 35.8998 21.0005 29.4998Z" fill="#6D28D9"/>
<path d="M328.5 76.5C277.3 89.3 158.833 68.5 106 56.5C98 54.3333 85.4 53.9 99 69.5C112.6 85.1 156 99.3333 176 104.5C219.167 106.333 308.6 109.8 321 109C333.4 108.2 373.5 108.333 392.5 100L403.5 53.5C399.833 55.8333 379.7 63.7 328.5 76.5Z" fill="#6D28D9"/>
</g>
<defs>
<clipPath id="clip0_4785_2121">
<rect width="393" height="102" fill="white"/>
</clipPath>
</defs>
</svg>
