<svg width="387" height="503" viewBox="0 0 387 503" fill="none" xmlns="http://www.w3.org/2000/svg">
<g clip-path="url(#clip0_2271_8291)">
<path d="M314.5 0H256C209.2 51.6 228.5 201.5 244 270C212.4 73.6 277.833 8.16667 314.5 0Z" fill="#4C1D95"/>
<path d="M86 472.5C45.2 475.3 11.6667 486.333 0 492V464.5C17.6 458.9 95.5 455 95.5 455C160 444 214.833 399.5 235.5 379C202.5 443 137 469 86 472.5Z" fill="#8B5CF6"/>
<path d="M0 0V466C10 460.4 68.1667 456.667 96 455.5C172.8 436.7 221 396 235.5 378C252.7 344.4 249.333 297 245.5 277.5C206.3 103.5 235.833 20 255.5 0H0Z" fill="#18181B"/>
<g clip-path="url(#clip1_2271_8291)">
<path d="M113.181 311.253C113.037 312.857 110.853 313.926 109.114 313.926C107.374 313.926 105.194 312.857 105.045 311.253C104.887 309.554 107.064 307.865 109.114 307.865C111.163 307.865 113.334 309.554 113.181 311.253Z" fill="#F9FAFB"/>
<path d="M96.5515 303.027C96.5515 304.519 96.1081 305.978 95.2775 307.218C94.4468 308.459 93.2661 309.426 91.8848 309.997C90.5034 310.568 88.9834 310.717 87.5171 310.426C86.0507 310.135 84.7038 309.416 83.6466 308.361C82.5895 307.306 81.8697 305.961 81.5782 304.498C81.2867 303.034 81.4366 301.517 82.0089 300.139C82.5813 298.76 83.5504 297.582 84.7937 296.753C86.037 295.924 87.4986 295.482 88.9937 295.482C89.9864 295.482 90.9693 295.678 91.8863 296.057C92.8034 296.436 93.6366 296.992 94.3384 297.692C95.0402 298.393 95.5969 299.224 95.9766 300.14C96.3563 301.055 96.5517 302.036 96.5515 303.027Z" fill="#F9FAFB"/>
<path d="M89.496 302.811C90.9877 302.811 92.197 301.604 92.197 300.116C92.197 298.627 90.9877 297.42 89.496 297.42C88.0042 297.42 86.7949 298.627 86.7949 300.116C86.7949 301.604 88.0042 302.811 89.496 302.811Z" fill="#2E1065"/>
<path d="M92.1971 307.476C93.1681 307.476 93.9552 306.691 93.9552 305.721C93.9552 304.752 93.1681 303.967 92.1971 303.967C91.2261 303.967 90.439 304.752 90.439 305.721C90.439 306.691 91.2261 307.476 92.1971 307.476Z" fill="#2E1065"/>
<path d="M136.787 303.027C136.787 304.519 136.344 305.977 135.513 307.218C134.683 308.459 133.502 309.426 132.121 309.997C130.74 310.568 129.22 310.717 127.753 310.426C126.287 310.135 124.94 309.416 123.883 308.361C122.826 307.306 122.106 305.962 121.814 304.499C121.523 303.035 121.672 301.518 122.244 300.14C122.816 298.761 123.785 297.583 125.028 296.754C126.272 295.925 127.733 295.482 129.228 295.482C130.221 295.482 131.204 295.678 132.121 296.057C133.038 296.436 133.871 296.992 134.573 297.692C135.275 298.393 135.832 299.224 136.212 300.14C136.592 301.055 136.787 302.036 136.787 303.027Z" fill="#F9FAFB"/>
<path d="M129.73 302.811C131.222 302.811 132.431 301.604 132.431 300.116C132.431 298.627 131.222 297.42 129.73 297.42C128.239 297.42 127.029 298.627 127.029 300.116C127.029 301.604 128.239 302.811 129.73 302.811Z" fill="#2E1065"/>
<path d="M132.431 307.476C133.402 307.476 134.19 306.691 134.19 305.721C134.19 304.752 133.402 303.967 132.431 303.967C131.46 303.967 130.673 304.752 130.673 305.721C130.673 306.691 131.46 307.476 132.431 307.476Z" fill="#2E1065"/>
<path d="M137.682 280.398L135.321 281.194C135.29 281.205 135.262 281.223 135.239 281.246C135.217 281.269 135.199 281.297 135.189 281.328L134.391 283.684C134.377 283.726 134.35 283.762 134.314 283.788C134.278 283.814 134.235 283.828 134.191 283.828C134.146 283.828 134.103 283.814 134.067 283.788C134.031 283.762 134.004 283.726 133.991 283.684L133.193 281.328C133.182 281.297 133.165 281.269 133.141 281.245C133.118 281.222 133.09 281.205 133.059 281.194L130.698 280.398C130.656 280.384 130.62 280.357 130.594 280.321C130.568 280.286 130.554 280.242 130.554 280.198C130.554 280.154 130.568 280.111 130.594 280.075C130.62 280.039 130.656 280.012 130.698 279.998L133.059 279.202C133.09 279.192 133.118 279.174 133.141 279.151C133.164 279.129 133.182 279.101 133.193 279.07L133.992 276.713C134.006 276.671 134.033 276.634 134.069 276.608C134.105 276.582 134.148 276.568 134.192 276.568C134.236 276.568 134.28 276.582 134.316 276.608C134.352 276.634 134.378 276.671 134.392 276.713L135.19 279.07C135.201 279.101 135.218 279.128 135.241 279.151C135.264 279.174 135.292 279.191 135.322 279.202L137.683 279.998C137.725 280.012 137.762 280.039 137.788 280.075C137.813 280.111 137.827 280.154 137.827 280.199C137.827 280.243 137.813 280.286 137.787 280.322C137.761 280.358 137.724 280.384 137.682 280.398Z" fill="#8B5CF6"/>
<path d="M66.0075 307.249L63.6466 308.044C63.6156 308.054 63.5874 308.071 63.5642 308.095C63.5411 308.118 63.5236 308.146 63.5131 308.177L62.7166 310.533C62.7022 310.575 62.6752 310.611 62.6391 310.637C62.6031 310.662 62.5599 310.676 62.5157 310.676C62.4714 310.676 62.4282 310.662 62.3922 310.637C62.3562 310.611 62.3291 310.575 62.3147 310.533L61.5139 308.177C61.5037 308.146 61.4865 308.118 61.4636 308.095C61.4406 308.072 61.4127 308.054 61.3819 308.044L59.021 307.249C58.9791 307.234 58.9427 307.207 58.917 307.171C58.8913 307.135 58.8774 307.092 58.8774 307.048C58.8774 307.004 58.8913 306.961 58.917 306.925C58.9427 306.889 58.9791 306.862 59.021 306.848L61.3819 306.051C61.4127 306.041 61.4408 306.024 61.4638 306.001C61.4867 305.978 61.5039 305.95 61.5139 305.919L62.3119 303.563C62.3262 303.521 62.3533 303.485 62.3893 303.459C62.4254 303.434 62.4685 303.42 62.5128 303.42C62.5571 303.42 62.6002 303.434 62.6363 303.459C62.6723 303.485 62.6994 303.521 62.7137 303.563L63.5103 305.919C63.5206 305.95 63.5381 305.978 63.5613 306.001C63.5845 306.024 63.6127 306.041 63.6437 306.051L66.0046 306.848C66.0466 306.862 66.0832 306.888 66.1092 306.924C66.1352 306.96 66.1493 307.003 66.1496 307.047C66.1499 307.091 66.1364 307.134 66.1109 307.171C66.0854 307.207 66.0493 307.234 66.0075 307.249Z" fill="#8B5CF6"/>
<path d="M135.924 330.11L133.561 330.906C133.53 330.917 133.502 330.934 133.48 330.957C133.457 330.98 133.439 331.007 133.429 331.038L132.631 333.396C132.617 333.438 132.59 333.474 132.554 333.5C132.518 333.525 132.474 333.539 132.43 333.539C132.386 333.539 132.343 333.525 132.307 333.5C132.271 333.474 132.244 333.438 132.229 333.396L131.433 331.038C131.422 331.007 131.404 330.98 131.381 330.957C131.358 330.934 131.33 330.917 131.299 330.906L128.938 330.11C128.896 330.096 128.86 330.069 128.834 330.033C128.808 329.997 128.794 329.954 128.794 329.91C128.794 329.866 128.808 329.823 128.834 329.787C128.86 329.751 128.896 329.724 128.938 329.71L131.299 328.914C131.33 328.904 131.359 328.886 131.382 328.863C131.405 328.84 131.422 328.812 131.433 328.781L132.229 326.424C132.244 326.383 132.271 326.346 132.307 326.321C132.343 326.295 132.386 326.281 132.43 326.281C132.474 326.281 132.518 326.295 132.554 326.321C132.59 326.346 132.617 326.383 132.631 326.424L133.429 328.781C133.439 328.812 133.456 328.84 133.479 328.863C133.502 328.886 133.53 328.904 133.561 328.914L135.922 329.71C135.964 329.724 136.001 329.751 136.027 329.787C136.053 329.822 136.067 329.865 136.067 329.91C136.067 329.954 136.054 329.997 136.028 330.033C136.002 330.069 135.966 330.096 135.924 330.11Z" fill="#F9FAFB"/>
<path d="M142.556 288.423L140.858 288.996C140.835 289.003 140.815 289.015 140.799 289.032C140.782 289.048 140.77 289.068 140.763 289.091L140.189 290.785C140.178 290.815 140.159 290.841 140.133 290.859C140.108 290.877 140.077 290.887 140.045 290.887C140.014 290.887 139.983 290.877 139.957 290.859C139.932 290.841 139.912 290.815 139.902 290.785L139.328 289.091C139.32 289.069 139.307 289.049 139.291 289.032C139.274 289.016 139.254 289.004 139.232 288.996L137.534 288.423C137.504 288.413 137.478 288.393 137.46 288.368C137.442 288.342 137.432 288.311 137.432 288.28C137.432 288.249 137.442 288.218 137.46 288.192C137.478 288.167 137.504 288.147 137.534 288.137L139.232 287.564C139.254 287.556 139.274 287.543 139.291 287.527C139.307 287.51 139.32 287.49 139.328 287.468L139.902 285.773C139.912 285.744 139.932 285.718 139.957 285.7C139.983 285.682 140.014 285.672 140.045 285.672C140.077 285.672 140.108 285.682 140.133 285.7C140.159 285.718 140.178 285.744 140.189 285.773L140.763 287.468C140.77 287.49 140.783 287.51 140.799 287.527C140.816 287.543 140.836 287.556 140.858 287.564L142.556 288.137C142.585 288.147 142.611 288.167 142.629 288.192C142.647 288.218 142.657 288.249 142.657 288.28C142.657 288.311 142.647 288.342 142.629 288.368C142.611 288.393 142.585 288.413 142.556 288.423Z" fill="#F9FAFB"/>
<path d="M86.6918 279.836L84.9939 280.409C84.9717 280.417 84.9515 280.429 84.9349 280.446C84.9182 280.463 84.9055 280.483 84.8978 280.505L84.3237 282.199C84.3132 282.229 84.2938 282.255 84.2681 282.273C84.2424 282.291 84.2117 282.301 84.1802 282.301C84.1487 282.301 84.1179 282.291 84.0922 282.273C84.0665 282.255 84.0471 282.229 84.0366 282.199L83.4626 280.505C83.4549 280.483 83.4424 280.463 83.426 280.446C83.4096 280.43 83.3898 280.417 83.3678 280.409L82.0647 279.971L81.6686 279.837C81.6388 279.827 81.6131 279.808 81.5949 279.782C81.5767 279.756 81.5669 279.726 81.5669 279.694C81.5669 279.663 81.5767 279.632 81.5949 279.606C81.6131 279.581 81.6388 279.561 81.6686 279.551L83.3678 278.978C83.3898 278.971 83.4098 278.958 83.4262 278.942C83.4426 278.925 83.4551 278.905 83.4626 278.883L83.8314 277.798L84.0366 277.193C84.0471 277.164 84.0665 277.138 84.0922 277.12C84.1179 277.102 84.1487 277.092 84.1802 277.092C84.2117 277.092 84.2424 277.102 84.2681 277.12C84.2938 277.138 84.3132 277.164 84.3237 277.193L84.3868 277.381L84.6165 278.061L84.8963 278.888C84.9034 278.91 84.9158 278.931 84.9326 278.947C84.9494 278.964 84.9699 278.976 84.9925 278.982L86.6903 279.555C86.7183 279.567 86.7422 279.586 86.7591 279.611C86.776 279.636 86.7851 279.665 86.7852 279.695C86.7854 279.725 86.7766 279.755 86.7599 279.78C86.7433 279.805 86.7196 279.824 86.6918 279.836Z" fill="#F9FAFB"/>
<path d="M168.068 294.862C167.637 294.274 167.115 293.573 166.519 292.84L168.768 292.181L176 284.572L168.25 283.177L168.735 279.596L168.492 275.329L167.066 262.382L150.175 273.049L149.803 273.872C147.676 270.045 144.591 266.58 142.223 263.92C139.496 260.864 134.946 255.747 127.071 252.837C120.822 250.528 115.323 250.68 112.68 250.754C110.111 250.826 105.813 250.943 100.768 252.787C95.1537 254.833 90.907 258.099 88.3322 260.478C87.3726 261.361 86.4623 262.296 85.6053 263.279L86.2828 259.626L78.7365 253.095L71.2605 258.155L71.1084 260.312L62.7842 251.417L49.0838 246L47.3616 259.619L50.232 265.293L43.808 265.782L44.2615 273.688L48.0878 277.644L45.5834 278.768L43 283.242L46.776 289.172L51.7648 290.353L53.5502 290.164C52.0662 291.485 51.0371 292.816 50.2592 293.814C47.9867 296.765 46.334 300.143 45.4001 303.746C44.4662 307.349 44.2703 311.103 44.8241 314.784C45.0739 316.437 45.7341 320.83 48.6863 325.403C49.9779 327.409 51.439 329.007 52.6087 330.292C53.4411 331.204 54.694 332.584 54.7615 333.079C54.6735 333.21 54.5777 333.336 54.4744 333.455C54.0137 334.028 53.3177 334.903 53.0392 336.451C52.788 337.899 52.964 339.389 53.5459 340.74C54.7198 343.422 57.5328 345.323 60.5482 345.466C62.3164 345.55 63.3669 344.949 64.1362 344.511C64.3729 344.364 64.6221 344.239 64.8811 344.136C64.95 344.113 65.0246 344.089 65.0992 344.071C65.2463 344.035 65.396 344.012 65.547 344C66.2287 343.945 66.5 344.063 67.8878 344.823C68.7159 345.279 69.7536 345.846 71.2404 346.496C73.2842 347.39 76.0828 348.613 79.645 349.075C80.9552 349.238 82.2765 349.295 83.5961 349.246C85.0858 349.216 85.4245 349.246 85.9613 349.633C86.4306 349.973 86.864 350.796 87.7998 352.625C88.3246 353.647 88.7694 354.707 89.1302 355.797C89.5321 356.943 89.9124 358.031 90.9457 359.605C92.2848 361.642 93.6611 362.9 95.1523 363.473C96.0106 363.811 96.9236 363.989 97.8462 364C98.6511 364.005 99.4482 363.841 100.186 363.519C103.972 361.824 104.438 356.553 104.635 354.301C104.722 353.316 104.731 352.325 104.661 351.338C104.641 351.095 104.635 350.851 104.642 350.607L104.662 350.577C105.275 349.718 107.653 349.738 109.074 349.752C110.526 349.768 112.719 349.788 113.285 350.591C113.298 350.612 113.306 350.624 113.31 350.633C113.314 350.872 113.303 351.111 113.276 351.349C113.177 352.345 113.18 353.349 113.285 354.344C113.375 355.184 114.302 362.576 119.04 363.655C121.076 364.117 122.753 363.165 123.977 362.47C126.097 361.267 127.16 359.667 128.282 357.972C129.497 356.213 130.417 354.269 131.009 352.216C131.263 351.331 131.432 350.424 131.515 349.507C131.522 349.428 131.532 349.342 131.54 349.264C131.802 349.209 132.538 349.274 133.04 349.318C134.319 349.459 135.608 349.481 136.891 349.384C142.982 348.857 148.984 344.99 150.125 344.219C150.199 344.17 150.268 344.12 150.346 344.076C150.949 343.665 151.231 343.483 151.637 343.434C151.83 343.408 152.027 343.427 152.212 343.488C152.496 343.593 152.769 343.729 153.024 343.894L153.041 343.904L153.121 343.95C153.287 344.044 153.396 344.111 153.512 344.183C153.533 344.199 153.556 344.21 153.579 344.226C153.602 344.242 153.627 344.253 153.651 344.27C153.772 344.342 153.898 344.414 154.029 344.485L154.046 344.494L154.189 344.568L154.204 344.577L154.26 344.606L154.321 344.637C154.632 344.794 154.952 344.933 155.279 345.053L155.491 345.124L155.713 345.19L155.798 345.214L155.837 345.226L156.009 345.267C156.11 345.29 156.213 345.312 156.318 345.333L156.476 345.359C156.553 345.372 156.631 345.383 156.708 345.392C156.786 345.401 156.833 345.408 156.896 345.413L157.087 345.428C157.146 345.428 157.206 345.435 157.266 345.436H157.375H157.403C157.444 345.436 157.487 345.436 157.529 345.436C157.693 345.436 157.858 345.436 158.024 345.416L158.224 345.401C158.261 345.401 158.3 345.392 158.338 345.386C158.458 345.373 158.585 345.355 158.722 345.335C158.726 345.333 158.73 345.333 158.735 345.335C159.982 345.128 161.892 344.537 163.184 342.847C164.794 340.758 164.527 338.313 164.399 337.137C164.399 337.093 164.389 337.048 164.385 337.008C164.381 336.968 164.385 336.952 164.373 336.922C164.27 336.193 164.092 335.476 163.844 334.782V334.772C163.728 334.462 163.597 334.158 163.451 333.861C163.4 333.741 163.372 333.612 163.369 333.482C163.339 332.569 164.303 331.611 165.235 330.683C165.391 330.528 165.545 330.374 165.691 330.225C170.605 325.193 172.149 318.789 172.655 316.683C173.048 315.054 173.839 310.683 172.705 305.283C171.915 301.521 170.334 297.969 168.068 294.862ZM163.531 288.16L164.418 286.851L166.347 287.778C166.341 287.815 166.324 287.85 166.298 287.877C166.273 287.905 166.24 287.925 166.203 287.934L163.046 288.874L163.531 288.16ZM162.333 288.654C162.33 288.655 162.328 288.655 162.325 288.654C162.147 288.52 161.968 288.388 161.783 288.261C161.506 288.07 161.219 287.883 160.922 287.702C160.896 287.685 160.869 287.669 160.841 287.653L160.893 287.64L162.225 287.294L163.049 287.08L163.468 286.971L162.333 288.654ZM164.198 275.62L164.414 279.419L163.786 284.054L163.514 286.059L163.494 286.202L163.441 286.215L162.617 286.429L161.654 286.678L160.16 287.065L159.996 287.106L162.615 282.571L162.409 277.942L163.857 272.499L164.198 275.62ZM155.233 282.047L157.717 280.807L157.918 280.691L161.715 278.499L161.891 282.414L159.327 286.854C158.257 286.372 157.123 286.048 155.96 285.89C155.655 285.85 155.362 285.824 155.079 285.797C154.607 285.773 154.138 285.701 153.68 285.582L155.233 282.047ZM154.992 277.893L156.804 276.916L157.16 280.289L155.264 281.236L154.992 277.893ZM163.551 269.69L163.644 270.538L161.738 277.655L157.836 279.908L157.473 276.455L162.496 270.35L163.551 269.69ZM160.567 271.573L156.873 276.067L154.72 277.223L153.737 275.885L160.567 271.573ZM152.005 279.469L153.327 276.541L154.264 277.819L154.591 281.723L153.06 285.223C152.301 284.488 152.301 283.008 152.301 282.296V282.12C152.294 281.229 152.198 280.342 152.013 279.47L152.005 279.469ZM81.6069 261.262L81.5437 261.604L78.7365 262.295L78.4781 258.559L81.6069 261.262ZM77.6601 271.773C77.4836 271.801 77.3042 271.833 77.119 271.87L76.3856 263.744L78.5011 263.091H78.5169L81.2323 262.424L77.6601 271.773ZM80.8175 265.517L80.0755 269.491L79.1857 271.532C78.9747 271.568 78.7408 271.602 78.4796 271.641H78.4724L80.8175 265.517ZM75.4097 260.539L77.7849 258.93L78.0318 262.485L76.0814 263.087L75.2776 262.399L75.4097 260.539ZM75.2159 263.289L75.6537 263.664L76.4072 272.023C76.1335 272.089 75.8493 272.167 75.5546 272.257C75.3781 272.311 75.2016 272.37 75.0279 272.434L74.7667 269.647L75.2159 263.289ZM61.0835 255.896L74.0592 269.752L74.2414 271.681L73.2999 270.627L73.2095 270.536L61.8341 259.231L61.0835 256.35L60.94 255.921L61.0835 255.896ZM58.3968 280.153L60.1549 281.537L51.3959 282.812L50.3454 281.341L54.8648 279.317V279.341L58.3968 280.153ZM58.7944 279.555L55.924 276.999L57.263 277.688L61.227 277.897L62.3207 281.919L61.316 281.54L58.7944 279.555ZM53.9262 275.164L53.8716 272.333H57.7582L60.8352 277.16L57.4539 276.982L53.9262 275.164ZM62.0767 278.268L61.8427 277.409L58.6021 272.321L52.0619 259.377L54.0812 260.324L65.1121 275.597L63.2564 276.33L62.0767 278.268ZM63.7085 276.836L65.2786 276.293L65.1423 276.972L64.9873 281.53L65.3446 282.114C65.2284 282.424 65.1408 282.702 65.0662 282.954L63.156 282.237L62.3752 279.374L63.7085 276.836ZM54.9122 260.241L58.3251 259.267L68.2552 271.482L67.2678 271.625L66.7856 271.838C66.3942 272.91 66.0029 273.98 65.6116 275.05L54.9122 260.241ZM59.3441 259.381L61.3361 259.751L72.0728 270.428L70.4554 270.266L68.9857 271.257L59.3441 259.381ZM65.8283 278.002L67.4903 278.387C67.209 278.769 66.9344 279.163 66.6664 279.568C66.312 280.102 65.9941 280.659 65.7149 281.236L65.8283 278.002ZM65.8527 277.273V277.084L66.0823 275.938L67.1401 272.569L70.939 274.749C69.8361 275.64 68.8375 276.652 67.9624 277.767L65.8527 277.273ZM68.017 272.24L69.0216 272.096L70.6434 271.001L72.8665 271.224L74.2271 272.751C73.2854 273.16 72.3913 273.671 71.5605 274.274L68.017 272.24ZM60.386 256.544L61.0218 258.961L58.7413 258.546L58.2346 256.496L60.2224 256.075L60.386 256.544ZM59.8119 254.868L59.9899 255.393L57.8859 255.836L53.6363 252.423L59.8119 254.868ZM52.6001 252.512L57.4797 256.425L58.0179 258.605L54.3481 259.656L51.8451 258.485L52.6001 252.512ZM53.1497 272.135L53.1899 274.477L50.4272 271.604L50.5563 270.601L50.3884 270.064L53.1497 272.135ZM53.355 275.677H53.3693L57.2745 279.155L55.0442 278.644L48.6977 272.086H49.8961L53.355 275.677ZM49.5129 269.661L49.8258 270.674L49.734 271.376H48.4423L48.3476 269.752L49.5129 269.661ZM48.0318 283.126L48.6059 282.123L49.6722 281.646L50.7185 283.098L49.2833 285.089L48.0318 283.126ZM49.889 285.483L51.0371 283.883L51.5538 285.879L49.889 285.483ZM52.3288 285.966L51.6887 283.497L60.9199 282.152L64.8681 283.641C64.7418 284.034 64.5152 284.387 64.2108 284.665L64.1678 284.71L52.3288 285.966ZM168.458 315.68C168.027 317.501 166.686 323.038 162.597 327.225C162.465 327.369 162.327 327.5 162.183 327.641C161.56 328.261 160.784 329.036 160.161 329.985C159.853 329.742 159.543 329.506 159.234 329.269C158.957 329.06 158.67 328.84 158.384 328.619C156.777 327.349 155.288 325.937 153.935 324.399C153.557 323.972 153.025 323.712 152.455 323.677C151.885 323.642 151.324 323.834 150.896 324.211C150.468 324.588 150.208 325.12 150.172 325.688C150.137 326.257 150.329 326.817 150.707 327.244C152.235 328.977 153.916 330.568 155.731 331.998C156.045 332.244 156.346 332.472 156.638 332.693C157.929 333.674 158.872 334.384 159.508 335.618C159.52 335.638 159.531 335.662 159.543 335.685C159.652 335.903 159.747 336.128 159.83 336.358V336.37C159.965 336.752 160.066 337.145 160.131 337.545V337.581C160.213 338.339 160.338 339.488 159.784 340.207C159.784 340.207 159.278 340.851 157.925 341.092C157.802 341.113 157.678 341.124 157.553 341.125C157.239 341.134 156.656 341.099 155.528 340.532C154.942 340.236 154.385 339.886 153.863 339.488C153.641 339.369 152.773 338.815 150.34 336.445C149.93 336.048 149.378 335.83 148.807 335.839C148.235 335.847 147.69 336.082 147.292 336.492C146.894 336.901 146.676 337.452 146.685 338.022C146.693 338.593 146.929 339.136 147.339 339.534C147.639 339.826 147.921 340.097 148.186 340.347L147.936 340.515L147.734 340.658C147.13 341.065 141.677 344.657 136.539 345.098C135.506 345.173 134.468 345.152 133.439 345.035C131.792 344.892 129.923 344.725 128.363 346.324C127.433 347.283 127.331 348.27 127.249 349.065C127.192 349.733 127.07 350.395 126.883 351.04C126.346 352.928 124.709 355.59 124.709 355.59C123.185 358.073 122.517 358.557 122.064 358.825C121.61 359.093 120.956 359.464 120.212 359.317C119.046 359.09 118.446 357.766 118.203 357.215C117.84 356.414 117.754 355.57 117.58 353.883C117.559 353.668 117.533 353.386 117.526 353.037C117.52 352.588 117.539 352.14 117.582 351.693C117.663 350.7 117.765 349.463 116.824 348.124C114.988 345.511 111.463 345.477 109.131 345.454C106.721 345.429 103.079 345.393 101.164 348.091C100.25 349.38 100.318 350.547 100.376 351.58C100.434 352.36 100.429 353.143 100.361 353.922C99.9947 358.061 99.112 359.292 98.4375 359.592C98.2007 359.698 97.661 359.819 96.6908 359.449C96.1168 359.23 95.3346 358.427 94.5581 357.243C93.8147 356.113 93.5535 355.381 93.2076 354.379C92.7838 353.104 92.2642 351.863 91.6533 350.666C90.5051 348.449 89.8263 347.111 88.4958 346.151C87.0205 345.08 85.6757 344.935 84.2964 344.935C84.0381 344.935 83.7798 344.935 83.5186 344.947C82.4119 344.987 81.3037 344.939 80.2047 344.803C77.2539 344.424 74.8815 343.387 72.9742 342.553C71.6595 341.98 70.7209 341.464 69.9674 341.049L69.5943 340.847C70.1347 340.109 70.5636 339.295 70.8673 338.432C71.0576 337.895 71.0262 337.304 70.7801 336.79C70.534 336.275 70.0932 335.88 69.5548 335.69C69.0164 335.5 68.4244 335.531 67.9091 335.777C67.3938 336.023 66.9974 336.462 66.8071 337C66.6721 337.442 66.4724 337.861 66.2144 338.244C65.9111 338.648 65.5465 339.001 65.1337 339.292C64.5142 339.785 63.8324 340.194 63.1057 340.509C62.0795 340.952 61.5184 341.194 60.7549 341.165C59.3943 341.112 57.9964 340.223 57.497 339.017C57.2783 338.435 57.2049 337.809 57.2831 337.193C57.3664 336.722 57.5142 336.536 57.8385 336.132C58.2807 335.623 58.6243 335.037 58.8518 334.403C59.7344 331.721 57.8184 329.619 55.7891 327.394C54.6696 326.167 53.4023 324.779 52.3015 323.071C49.8502 319.273 49.2876 315.543 49.0781 314.139C48.6126 311.034 48.7788 307.866 49.5666 304.826C50.3544 301.786 51.7478 298.936 53.6635 296.445C54.7227 295.08 56.1751 293.209 58.6236 291.718C60.2023 290.757 61.3892 290.455 62.5302 290.163C63.6138 289.885 64.7246 289.601 65.8728 288.842C66.3943 288.496 66.8757 288.094 67.308 287.642C68.558 286.353 68.8637 285.308 69.1336 284.392C69.2488 283.968 69.3956 283.554 69.5727 283.153C69.7737 282.723 70.0069 282.31 70.2702 281.915C72.1905 278.985 74.4022 277.114 76.842 276.355C76.9367 276.325 77.0315 276.297 77.1291 276.272C77.7821 276.104 78.445 275.978 79.1139 275.894C80.1473 275.74 81.2667 275.577 82.3589 275.034C83.0619 274.688 83.6946 274.215 84.2247 273.639C84.9871 272.807 85.5574 271.817 85.8953 270.741L85.911 270.69C87.1568 266.999 93.6898 259.93 102.248 256.809C106.638 255.209 110.35 255.106 112.807 255.037C115.178 254.971 120.113 254.833 125.58 256.853C132.446 259.393 136.396 263.827 139.009 266.764C141.903 270.014 145.999 274.613 147.452 279.082C147.789 280.067 147.971 281.098 147.992 282.139V282.282C147.992 283.399 147.992 286.37 150.145 288.372C151.662 289.786 153.413 289.948 154.692 290.065C154.943 290.088 155.18 290.11 155.396 290.138C157.911 290.474 160.026 292.078 161.72 293.851C162.887 295.076 163.855 296.382 164.615 297.406C166.51 300.013 167.831 302.991 168.49 306.144C169.461 310.838 168.712 314.63 168.458 315.68Z" fill="#F9FAFB"/>
</g>
<g filter="url(#filter0_d_2271_8291)">
<path d="M180 254.807L188.492 258.156C189.276 258.465 189.668 258.62 189.998 258.857C190.291 259.066 190.548 259.323 190.757 259.616C190.994 259.946 191.149 260.338 191.458 261.122L194.807 269.614L198.156 261.122C198.465 260.338 198.62 259.946 198.857 259.616C199.066 259.323 199.323 259.066 199.616 258.857C199.946 258.62 200.338 258.465 201.122 258.156L209.614 254.807L201.122 251.458C200.338 251.149 199.946 250.994 199.616 250.757C199.323 250.548 199.066 250.291 198.857 249.998C198.62 249.668 198.465 249.276 198.156 248.492L194.807 240L191.458 248.492C191.149 249.276 190.994 249.668 190.757 249.998C190.548 250.291 190.291 250.548 189.998 250.757C189.668 250.994 189.276 251.149 188.492 251.458L180 254.807Z" fill="#2D2D32"/>
</g>
<g filter="url(#filter1_d_2271_8291)">
<path d="M326 278.807L334.492 282.156C335.276 282.465 335.668 282.62 335.998 282.857C336.291 283.066 336.548 283.323 336.757 283.616C336.994 283.946 337.149 284.338 337.458 285.122L340.807 293.614L344.156 285.122C344.465 284.338 344.62 283.946 344.857 283.616C345.066 283.323 345.323 283.066 345.616 282.857C345.946 282.62 346.338 282.465 347.122 282.156L355.614 278.807L347.122 275.458C346.338 275.149 345.946 274.994 345.616 274.757C345.323 274.548 345.066 274.291 344.857 273.998C344.62 273.668 344.465 273.276 344.156 272.492L340.807 264L337.458 272.492C337.149 273.276 336.994 273.668 336.757 273.998C336.548 274.291 336.291 274.548 335.998 274.757C335.668 274.994 335.276 275.149 334.492 275.458L326 278.807Z" fill="#521EA0"/>
</g>
<g filter="url(#filter2_d_2271_8291)">
<path d="M141 98.5423L146.632 100.059C147.319 100.244 147.663 100.336 147.944 100.519C148.192 100.68 148.404 100.892 148.566 101.141C148.748 101.422 148.841 101.765 149.026 102.453L150.542 108.085L152.059 102.453C152.244 101.765 152.336 101.422 152.519 101.141C152.68 100.892 152.892 100.68 153.141 100.519C153.422 100.336 153.765 100.244 154.453 100.059L160.085 98.5423L154.453 97.0259C153.765 96.8409 153.422 96.7483 153.141 96.5658C152.892 96.4041 152.68 96.1922 152.519 95.9437C152.336 95.6627 152.244 95.3191 152.059 94.6319L150.542 89L149.026 94.6319C148.841 95.3191 148.748 95.6627 148.566 95.9437C148.404 96.1922 148.192 96.4041 147.944 96.5658C147.663 96.7483 147.319 96.8409 146.632 97.0259L141 98.5423Z" fill="#2D2D32"/>
</g>
<g filter="url(#filter3_d_2271_8291)">
<path d="M348 261.542L353.632 263.059C354.319 263.244 354.663 263.336 354.944 263.519C355.192 263.68 355.404 263.892 355.566 264.141C355.748 264.422 355.841 264.765 356.026 265.453L357.542 271.085L359.059 265.453C359.244 264.765 359.336 264.422 359.519 264.141C359.68 263.892 359.892 263.68 360.141 263.519C360.422 263.336 360.765 263.244 361.453 263.059L367.085 261.542L361.453 260.026C360.765 259.841 360.422 259.748 360.141 259.566C359.892 259.404 359.68 259.192 359.519 258.944C359.336 258.663 359.244 258.319 359.059 257.632L357.542 252L356.026 257.632C355.841 258.319 355.748 258.663 355.566 258.944C355.404 259.192 355.192 259.404 354.944 259.566C354.663 259.748 354.319 259.841 353.632 260.026L348 261.542Z" fill="#521EA0"/>
</g>
<g filter="url(#filter4_d_2271_8291)">
<path d="M129 83.5423L134.632 85.0587C135.319 85.2437 135.663 85.3362 135.944 85.5188C136.192 85.6804 136.404 85.8923 136.566 86.141C136.748 86.4218 136.841 86.7654 137.026 87.4527L138.542 93.0846L140.059 87.4527C140.244 86.7654 140.336 86.4218 140.519 86.141C140.68 85.8923 140.892 85.6804 141.141 85.5188C141.422 85.3362 141.765 85.2437 142.453 85.0587L148.085 83.5423L142.453 82.0259C141.765 81.8409 141.422 81.7483 141.141 81.5658C140.892 81.4041 140.68 81.1922 140.519 80.9437C140.336 80.6627 140.244 80.3191 140.059 79.6319L138.542 74L137.026 79.6319C136.841 80.3191 136.748 80.6627 136.566 80.9437C136.404 81.1922 136.192 81.4041 135.944 81.5658C135.663 81.7483 135.319 81.8409 134.632 82.0259L129 83.5423Z" fill="#2D2D32"/>
</g>
<g filter="url(#filter5_d_2271_8291)">
<path d="M291 415.542L296.632 417.059C297.319 417.244 297.663 417.336 297.944 417.519C298.192 417.68 298.404 417.892 298.566 418.141C298.748 418.422 298.841 418.765 299.026 419.453L300.542 425.085L302.059 419.453C302.244 418.765 302.336 418.422 302.519 418.141C302.68 417.892 302.892 417.68 303.141 417.519C303.422 417.336 303.765 417.244 304.453 417.059L310.085 415.542L304.453 414.026C303.765 413.841 303.422 413.748 303.141 413.566C302.892 413.404 302.68 413.192 302.519 412.944C302.336 412.663 302.244 412.319 302.059 411.632L300.542 406L299.026 411.632C298.841 412.319 298.748 412.663 298.566 412.944C298.404 413.192 298.192 413.404 297.944 413.566C297.663 413.748 297.319 413.841 296.632 414.026L291 415.542Z" fill="#521EA0"/>
</g>
<g filter="url(#filter6_d_2271_8291)">
<path d="M200 269.542L205.632 271.059C206.319 271.244 206.663 271.336 206.944 271.519C207.192 271.68 207.404 271.892 207.566 272.141C207.748 272.422 207.841 272.765 208.026 273.453L209.542 279.085L211.059 273.453C211.244 272.765 211.336 272.422 211.519 272.141C211.68 271.892 211.892 271.68 212.141 271.519C212.422 271.336 212.765 271.244 213.453 271.059L219.085 269.542L213.453 268.026C212.765 267.841 212.422 267.748 212.141 267.566C211.892 267.404 211.68 267.192 211.519 266.944C211.336 266.663 211.244 266.319 211.059 265.632L209.542 260L208.026 265.632C207.841 266.319 207.748 266.663 207.566 266.944C207.404 267.192 207.192 267.404 206.944 267.566C206.663 267.748 206.319 267.841 205.632 268.026L200 269.542Z" fill="#2D2D32"/>
</g>
<g filter="url(#filter7_d_2271_8291)">
<path d="M324 167.542L329.632 169.059C330.319 169.244 330.663 169.336 330.944 169.519C331.192 169.68 331.404 169.892 331.566 170.141C331.748 170.422 331.841 170.765 332.026 171.453L333.542 177.085L335.059 171.453C335.244 170.765 335.336 170.422 335.519 170.141C335.68 169.892 335.892 169.68 336.141 169.519C336.422 169.336 336.765 169.244 337.453 169.059L343.085 167.542L337.453 166.026C336.765 165.841 336.422 165.748 336.141 165.566C335.892 165.404 335.68 165.192 335.519 164.944C335.336 164.663 335.244 164.319 335.059 163.632L333.542 158L332.026 163.632C331.841 164.319 331.748 164.663 331.566 164.944C331.404 165.192 331.192 165.404 330.944 165.566C330.663 165.748 330.319 165.841 329.632 166.026L324 167.542Z" fill="#521EA0"/>
</g>
<g filter="url(#filter8_d_2271_8291)">
<path d="M27.5255 411.219L28.2446 413.89C28.3324 414.216 28.3763 414.379 28.4629 414.512C28.5395 414.63 28.64 414.73 28.7579 414.807C28.8911 414.893 29.0541 414.937 29.38 415.025L32.051 415.744L29.38 416.463C29.0541 416.551 28.8911 416.595 28.7579 416.682C28.64 416.758 28.5395 416.859 28.4629 416.977C28.3763 417.11 28.3324 417.273 28.2446 417.599L27.5255 420.27L26.8063 417.599C26.7186 417.273 26.6747 417.11 26.5881 416.977C26.5114 416.859 26.4109 416.758 26.2931 416.682C26.1598 416.595 25.9969 416.551 25.6709 416.463L23 415.744L25.6709 415.025C25.9969 414.937 26.1598 414.893 26.2931 414.807C26.4109 414.73 26.5114 414.63 26.5881 414.512C26.6747 414.379 26.7186 414.216 26.8063 413.89L27.5255 411.219Z" fill="#2D2D32"/>
</g>
<g filter="url(#filter9_d_2271_8291)">
<path d="M64.9822 392.2L67.3794 393.581C67.6719 393.749 67.8182 393.833 67.9736 393.866C68.1111 393.895 68.2533 393.895 68.3909 393.866C68.5463 393.833 68.6925 393.749 68.9851 393.581L71.3822 392.2L70.0021 394.598C69.8337 394.89 69.7495 395.036 69.7165 395.192C69.6873 395.329 69.6873 395.471 69.7165 395.609C69.7495 395.764 69.8337 395.911 70.0021 396.203L71.3822 398.6L68.9851 397.22C68.6925 397.052 68.5463 396.968 68.3909 396.935C68.2533 396.906 68.1111 396.905 67.9736 396.935C67.8182 396.968 67.6719 397.052 67.3794 397.22L64.9822 398.6L66.3623 396.203C66.5308 395.911 66.615 395.764 66.6479 395.609C66.6771 395.471 66.6771 395.329 66.6479 395.192C66.615 395.036 66.5308 394.89 66.3623 394.598L64.9822 392.2Z" fill="#2D2D32"/>
</g>
<g filter="url(#filter10_d_2271_8291)">
<path d="M266.919 124.263L268.877 126.216C269.116 126.455 269.236 126.574 269.378 126.646C269.503 126.71 269.64 126.746 269.781 126.754C269.939 126.762 270.102 126.719 270.428 126.632L273.101 125.919L271.148 127.877C270.909 128.116 270.79 128.236 270.718 128.377C270.654 128.503 270.617 128.64 270.61 128.78C270.602 128.939 270.645 129.102 270.732 129.428L271.445 132.101L269.486 130.147C269.247 129.909 269.128 129.79 268.986 129.718C268.861 129.654 268.724 129.617 268.583 129.61C268.425 129.601 268.262 129.645 267.935 129.732L265.263 130.445L267.216 128.486C267.455 128.247 267.574 128.128 267.646 127.986C267.71 127.861 267.746 127.724 267.754 127.583C267.762 127.425 267.719 127.261 267.632 126.935L266.919 124.263Z" fill="#521EA0"/>
</g>
<path d="M307.516 154.104C313.633 145.49 310.689 136.366 308.452 132.881C307.672 131.666 306.549 129.011 305.175 130.384C296.593 140.84 295.656 151.919 295.812 155.197C290.975 148.798 273.653 143.181 271 143.181C274.995 154.042 285.149 159.15 289.726 160.346C288.322 160.606 285.825 161.439 287.073 162.687C291.068 168.18 298.621 170.386 301.898 170.802L300.65 163.311C302.522 164.56 306.705 167.056 308.452 167.056C312.073 161.938 311.833 157.017 311.261 155.197C310.845 154.832 309.514 154.104 307.516 154.104Z" fill="#521EA0"/>
<path d="M43.9747 413.019C41.0116 408.802 42.4377 404.335 43.5212 402.629C43.8991 402.034 44.4433 400.735 45.1085 401.407C49.2659 406.525 49.7194 411.949 49.6438 413.554C51.9871 410.422 60.3774 407.671 61.6624 407.671C59.7274 412.988 54.8091 415.489 52.5918 416.075C53.2721 416.202 54.4815 416.61 53.8768 417.221C51.9417 419.91 48.2832 420.99 46.6959 421.193L47.3006 417.526C46.3935 418.137 44.3677 419.36 43.5212 419.36C41.7675 416.854 41.8834 414.445 42.1606 413.554C42.3621 413.376 43.0072 413.019 43.9747 413.019Z" fill="#2D2D32"/>
</g>
<defs>
<filter id="filter0_d_2271_8291" x="99.7" y="159.7" width="190.214" height="190.213" filterUnits="userSpaceOnUse" color-interpolation-filters="sRGB">
<feFlood flood-opacity="0" result="BackgroundImageFix"/>
<feColorMatrix in="SourceAlpha" type="matrix" values="0 0 0 0 0 0 0 0 0 0 0 0 0 0 0 0 0 0 127 0" result="hardAlpha"/>
<feOffset/>
<feGaussianBlur stdDeviation="40.15"/>
<feComposite in2="hardAlpha" operator="out"/>
<feColorMatrix type="matrix" values="0 0 0 0 1 0 0 0 0 1 0 0 0 0 1 0 0 0 1 0"/>
<feBlend mode="normal" in2="BackgroundImageFix" result="effect1_dropShadow_2271_8291"/>
<feBlend mode="normal" in="SourceGraphic" in2="effect1_dropShadow_2271_8291" result="shape"/>
</filter>
<filter id="filter1_d_2271_8291" x="245.7" y="183.7" width="190.214" height="190.213" filterUnits="userSpaceOnUse" color-interpolation-filters="sRGB">
<feFlood flood-opacity="0" result="BackgroundImageFix"/>
<feColorMatrix in="SourceAlpha" type="matrix" values="0 0 0 0 0 0 0 0 0 0 0 0 0 0 0 0 0 0 127 0" result="hardAlpha"/>
<feOffset/>
<feGaussianBlur stdDeviation="40.15"/>
<feComposite in2="hardAlpha" operator="out"/>
<feColorMatrix type="matrix" values="0 0 0 0 1 0 0 0 0 1 0 0 0 0 1 0 0 0 1 0"/>
<feBlend mode="normal" in2="BackgroundImageFix" result="effect1_dropShadow_2271_8291"/>
<feBlend mode="normal" in="SourceGraphic" in2="effect1_dropShadow_2271_8291" result="shape"/>
</filter>
<filter id="filter2_d_2271_8291" x="60.7" y="8.7" width="179.684" height="179.684" filterUnits="userSpaceOnUse" color-interpolation-filters="sRGB">
<feFlood flood-opacity="0" result="BackgroundImageFix"/>
<feColorMatrix in="SourceAlpha" type="matrix" values="0 0 0 0 0 0 0 0 0 0 0 0 0 0 0 0 0 0 127 0" result="hardAlpha"/>
<feOffset/>
<feGaussianBlur stdDeviation="40.15"/>
<feComposite in2="hardAlpha" operator="out"/>
<feColorMatrix type="matrix" values="0 0 0 0 1 0 0 0 0 1 0 0 0 0 1 0 0 0 1 0"/>
<feBlend mode="normal" in2="BackgroundImageFix" result="effect1_dropShadow_2271_8291"/>
<feBlend mode="normal" in="SourceGraphic" in2="effect1_dropShadow_2271_8291" result="shape"/>
</filter>
<filter id="filter3_d_2271_8291" x="267.7" y="171.7" width="179.684" height="179.684" filterUnits="userSpaceOnUse" color-interpolation-filters="sRGB">
<feFlood flood-opacity="0" result="BackgroundImageFix"/>
<feColorMatrix in="SourceAlpha" type="matrix" values="0 0 0 0 0 0 0 0 0 0 0 0 0 0 0 0 0 0 127 0" result="hardAlpha"/>
<feOffset/>
<feGaussianBlur stdDeviation="40.15"/>
<feComposite in2="hardAlpha" operator="out"/>
<feColorMatrix type="matrix" values="0 0 0 0 1 0 0 0 0 1 0 0 0 0 1 0 0 0 1 0"/>
<feBlend mode="normal" in2="BackgroundImageFix" result="effect1_dropShadow_2271_8291"/>
<feBlend mode="normal" in="SourceGraphic" in2="effect1_dropShadow_2271_8291" result="shape"/>
</filter>
<filter id="filter4_d_2271_8291" x="48.7" y="-6.3" width="179.684" height="179.684" filterUnits="userSpaceOnUse" color-interpolation-filters="sRGB">
<feFlood flood-opacity="0" result="BackgroundImageFix"/>
<feColorMatrix in="SourceAlpha" type="matrix" values="0 0 0 0 0 0 0 0 0 0 0 0 0 0 0 0 0 0 127 0" result="hardAlpha"/>
<feOffset/>
<feGaussianBlur stdDeviation="40.15"/>
<feComposite in2="hardAlpha" operator="out"/>
<feColorMatrix type="matrix" values="0 0 0 0 1 0 0 0 0 1 0 0 0 0 1 0 0 0 1 0"/>
<feBlend mode="normal" in2="BackgroundImageFix" result="effect1_dropShadow_2271_8291"/>
<feBlend mode="normal" in="SourceGraphic" in2="effect1_dropShadow_2271_8291" result="shape"/>
</filter>
<filter id="filter5_d_2271_8291" x="210.7" y="325.7" width="179.684" height="179.684" filterUnits="userSpaceOnUse" color-interpolation-filters="sRGB">
<feFlood flood-opacity="0" result="BackgroundImageFix"/>
<feColorMatrix in="SourceAlpha" type="matrix" values="0 0 0 0 0 0 0 0 0 0 0 0 0 0 0 0 0 0 127 0" result="hardAlpha"/>
<feOffset/>
<feGaussianBlur stdDeviation="40.15"/>
<feComposite in2="hardAlpha" operator="out"/>
<feColorMatrix type="matrix" values="0 0 0 0 1 0 0 0 0 1 0 0 0 0 1 0 0 0 1 0"/>
<feBlend mode="normal" in2="BackgroundImageFix" result="effect1_dropShadow_2271_8291"/>
<feBlend mode="normal" in="SourceGraphic" in2="effect1_dropShadow_2271_8291" result="shape"/>
</filter>
<filter id="filter6_d_2271_8291" x="119.7" y="179.7" width="179.684" height="179.684" filterUnits="userSpaceOnUse" color-interpolation-filters="sRGB">
<feFlood flood-opacity="0" result="BackgroundImageFix"/>
<feColorMatrix in="SourceAlpha" type="matrix" values="0 0 0 0 0 0 0 0 0 0 0 0 0 0 0 0 0 0 127 0" result="hardAlpha"/>
<feOffset/>
<feGaussianBlur stdDeviation="40.15"/>
<feComposite in2="hardAlpha" operator="out"/>
<feColorMatrix type="matrix" values="0 0 0 0 1 0 0 0 0 1 0 0 0 0 1 0 0 0 1 0"/>
<feBlend mode="normal" in2="BackgroundImageFix" result="effect1_dropShadow_2271_8291"/>
<feBlend mode="normal" in="SourceGraphic" in2="effect1_dropShadow_2271_8291" result="shape"/>
</filter>
<filter id="filter7_d_2271_8291" x="243.7" y="77.7" width="179.684" height="179.684" filterUnits="userSpaceOnUse" color-interpolation-filters="sRGB">
<feFlood flood-opacity="0" result="BackgroundImageFix"/>
<feColorMatrix in="SourceAlpha" type="matrix" values="0 0 0 0 0 0 0 0 0 0 0 0 0 0 0 0 0 0 127 0" result="hardAlpha"/>
<feOffset/>
<feGaussianBlur stdDeviation="40.15"/>
<feComposite in2="hardAlpha" operator="out"/>
<feColorMatrix type="matrix" values="0 0 0 0 1 0 0 0 0 1 0 0 0 0 1 0 0 0 1 0"/>
<feBlend mode="normal" in2="BackgroundImageFix" result="effect1_dropShadow_2271_8291"/>
<feBlend mode="normal" in="SourceGraphic" in2="effect1_dropShadow_2271_8291" result="shape"/>
</filter>
<filter id="filter8_d_2271_8291" x="-57.3" y="330.919" width="169.651" height="169.651" filterUnits="userSpaceOnUse" color-interpolation-filters="sRGB">
<feFlood flood-opacity="0" result="BackgroundImageFix"/>
<feColorMatrix in="SourceAlpha" type="matrix" values="0 0 0 0 0 0 0 0 0 0 0 0 0 0 0 0 0 0 127 0" result="hardAlpha"/>
<feOffset/>
<feGaussianBlur stdDeviation="40.15"/>
<feComposite in2="hardAlpha" operator="out"/>
<feColorMatrix type="matrix" values="0 0 0 0 1 0 0 0 0 1 0 0 0 0 1 0 0 0 1 0"/>
<feBlend mode="normal" in2="BackgroundImageFix" result="effect1_dropShadow_2271_8291"/>
<feBlend mode="normal" in="SourceGraphic" in2="effect1_dropShadow_2271_8291" result="shape"/>
</filter>
<filter id="filter9_d_2271_8291" x="-15.3176" y="311.901" width="167" height="166.998" filterUnits="userSpaceOnUse" color-interpolation-filters="sRGB">
<feFlood flood-opacity="0" result="BackgroundImageFix"/>
<feColorMatrix in="SourceAlpha" type="matrix" values="0 0 0 0 0 0 0 0 0 0 0 0 0 0 0 0 0 0 127 0" result="hardAlpha"/>
<feOffset/>
<feGaussianBlur stdDeviation="40.15"/>
<feComposite in2="hardAlpha" operator="out"/>
<feColorMatrix type="matrix" values="0 0 0 0 1 0 0 0 0 1 0 0 0 0 1 0 0 0 1 0"/>
<feBlend mode="normal" in2="BackgroundImageFix" result="effect1_dropShadow_2271_8291"/>
<feBlend mode="normal" in="SourceGraphic" in2="effect1_dropShadow_2271_8291" result="shape"/>
</filter>
<filter id="filter10_d_2271_8291" x="184.963" y="43.9617" width="168.438" height="168.44" filterUnits="userSpaceOnUse" color-interpolation-filters="sRGB">
<feFlood flood-opacity="0" result="BackgroundImageFix"/>
<feColorMatrix in="SourceAlpha" type="matrix" values="0 0 0 0 0 0 0 0 0 0 0 0 0 0 0 0 0 0 127 0" result="hardAlpha"/>
<feOffset/>
<feGaussianBlur stdDeviation="40.15"/>
<feComposite in2="hardAlpha" operator="out"/>
<feColorMatrix type="matrix" values="0 0 0 0 1 0 0 0 0 1 0 0 0 0 1 0 0 0 1 0"/>
<feBlend mode="normal" in2="BackgroundImageFix" result="effect1_dropShadow_2271_8291"/>
<feBlend mode="normal" in="SourceGraphic" in2="effect1_dropShadow_2271_8291" result="shape"/>
</filter>
<clipPath id="clip0_2271_8291">
<rect width="387" height="503" fill="white"/>
</clipPath>
<clipPath id="clip1_2271_8291">
<rect width="133" height="118" fill="white" transform="translate(43 246)"/>
</clipPath>
</defs>
</svg>
