<svg width="160" height="142" viewBox="0 0 160 142" fill="none" xmlns="http://www.w3.org/2000/svg">
<g clip-path="url(#clip0_2021_8911)">
<path d="M113.903 41.3937L111.063 42.3521C111.026 42.365 110.992 42.3861 110.965 42.4139C110.937 42.4417 110.916 42.4754 110.904 42.5124L109.944 45.3479C109.927 45.3984 109.895 45.4423 109.851 45.4735C109.808 45.5046 109.756 45.5214 109.703 45.5214C109.65 45.5214 109.598 45.5046 109.554 45.4735C109.511 45.4423 109.479 45.3984 109.462 45.3479L108.502 42.5124C108.49 42.4751 108.469 42.4413 108.441 42.4135C108.413 42.3856 108.379 42.3646 108.342 42.3521L105.501 41.3937C105.451 41.3769 105.407 41.3447 105.376 41.3015C105.344 41.2583 105.328 41.2065 105.328 41.1533C105.328 41.1 105.344 41.0482 105.376 41.005C105.407 40.9618 105.451 40.9296 105.501 40.9128L108.342 39.9544C108.379 39.9419 108.412 39.9211 108.44 39.8937C108.468 39.8662 108.489 39.8327 108.502 39.7958L109.464 36.9586C109.481 36.9081 109.513 36.8642 109.556 36.8331C109.599 36.8019 109.651 36.7852 109.705 36.7852C109.758 36.7852 109.81 36.8019 109.853 36.8331C109.896 36.8642 109.929 36.9081 109.946 36.9586L110.906 39.7958C110.918 39.8325 110.939 39.8658 110.967 39.8932C110.994 39.9207 111.028 39.9416 111.064 39.9544L113.905 40.9128C113.955 40.9298 113.999 40.9622 114.03 41.0055C114.061 41.0487 114.078 41.1007 114.077 41.1539C114.077 41.2071 114.06 41.2589 114.029 41.302C113.998 41.345 113.953 41.3771 113.903 41.3937Z" fill="#F9FAFB"/>
<path d="M27.6781 73.7051L24.8379 74.6617C24.8006 74.6743 24.7667 74.6953 24.7388 74.7231C24.711 74.7509 24.6899 74.7848 24.6774 74.8221L23.7191 77.6575C23.7019 77.7078 23.6693 77.7515 23.6259 77.7824C23.5826 77.8133 23.5307 77.8299 23.4774 77.8299C23.4241 77.8299 23.3722 77.8133 23.3289 77.7824C23.2855 77.7515 23.253 77.7078 23.2357 77.6575L22.2723 74.8221C22.26 74.7849 22.2393 74.7511 22.2117 74.7233C22.1841 74.6955 22.1505 74.6744 22.1134 74.6617L19.2732 73.7051C19.2229 73.6879 19.1791 73.6553 19.1482 73.6121C19.1172 73.5688 19.1006 73.517 19.1006 73.4638C19.1006 73.4106 19.1172 73.3588 19.1482 73.3155C19.1791 73.2722 19.2229 73.2397 19.2732 73.2225L22.1134 72.2641C22.1506 72.2521 22.1843 72.2314 22.212 72.2039C22.2396 72.1763 22.2602 72.1426 22.2723 72.1055L23.2322 69.27C23.2495 69.2197 23.2821 69.1761 23.3254 69.1452C23.3688 69.1143 23.4207 69.0977 23.474 69.0977C23.5272 69.0977 23.5791 69.1143 23.6225 69.1452C23.6658 69.1761 23.6984 69.2197 23.7157 69.27L24.6739 72.1055C24.6864 72.1427 24.7074 72.1764 24.7353 72.2039C24.7632 72.2314 24.7971 72.2521 24.8345 72.2641L27.6747 73.2225C27.7252 73.2393 27.7691 73.2716 27.8004 73.3146C27.8317 73.3577 27.8487 73.4094 27.8491 73.4626C27.8494 73.5157 27.8332 73.5677 27.8025 73.6112C27.7719 73.6547 27.7284 73.6875 27.6781 73.7051Z" fill="#F9FAFB"/>
<path d="M111.788 101.215L108.946 102.173C108.909 102.185 108.875 102.206 108.847 102.234C108.82 102.261 108.799 102.295 108.787 102.332L107.827 105.169C107.81 105.219 107.777 105.263 107.734 105.294C107.69 105.325 107.638 105.341 107.585 105.341C107.532 105.341 107.48 105.325 107.437 105.294C107.393 105.263 107.361 105.219 107.343 105.169L106.385 102.332C106.372 102.295 106.351 102.261 106.323 102.234C106.295 102.207 106.262 102.186 106.225 102.173L103.386 101.215C103.336 101.198 103.292 101.166 103.26 101.123C103.229 101.08 103.212 101.028 103.212 100.974C103.212 100.921 103.229 100.869 103.26 100.826C103.292 100.783 103.336 100.751 103.386 100.734L106.226 99.7756C106.264 99.763 106.298 99.742 106.325 99.7142C106.353 99.6864 106.374 99.6525 106.387 99.6153L107.345 96.7798C107.362 96.7295 107.395 96.6858 107.438 96.6549C107.482 96.624 107.534 96.6074 107.587 96.6074C107.64 96.6074 107.692 96.624 107.735 96.6549C107.779 96.6858 107.811 96.7295 107.829 96.7798L108.789 99.6153C108.801 99.6526 108.821 99.6865 108.849 99.7143C108.876 99.7422 108.91 99.7632 108.947 99.7756L111.788 100.734C111.838 100.751 111.882 100.783 111.913 100.826C111.945 100.869 111.961 100.921 111.961 100.974C111.961 101.028 111.945 101.08 111.913 101.123C111.882 101.166 111.838 101.198 111.788 101.215Z" fill="#F9FAFB"/>
<path d="M119.766 51.0492L117.724 51.7387C117.697 51.747 117.672 51.7617 117.652 51.7815C117.633 51.8013 117.618 51.8257 117.61 51.8525L116.919 53.8916C116.906 53.9273 116.883 53.9582 116.852 53.9801C116.821 54.002 116.784 54.0137 116.746 54.0137C116.708 54.0137 116.671 54.002 116.641 53.9801C116.61 53.9582 116.586 53.9273 116.574 53.8916L115.883 51.8525C115.874 51.826 115.858 51.8019 115.838 51.7822C115.818 51.7625 115.794 51.7476 115.767 51.7387L113.725 51.0492C113.689 51.0367 113.658 51.0134 113.636 50.9825C113.614 50.9516 113.603 50.9147 113.603 50.8769C113.603 50.839 113.614 50.8021 113.636 50.7712C113.658 50.7404 113.689 50.717 113.725 50.7045L115.767 50.015C115.794 50.0055 115.818 49.9902 115.838 49.9702C115.858 49.9502 115.873 49.9261 115.883 49.8995L116.574 47.8604C116.586 47.8247 116.61 47.7938 116.641 47.7719C116.671 47.75 116.708 47.7383 116.746 47.7383C116.784 47.7383 116.821 47.75 116.852 47.7719C116.883 47.7938 116.906 47.8247 116.919 47.8604L117.61 49.8995C117.619 49.9262 117.633 49.9504 117.653 49.9704C117.673 49.9905 117.697 50.0057 117.724 50.015L119.766 50.7045C119.802 50.717 119.833 50.7404 119.855 50.7712C119.877 50.8021 119.888 50.839 119.888 50.8769C119.888 50.9147 119.877 50.9516 119.855 50.9825C119.833 51.0134 119.802 51.0367 119.766 51.0492Z" fill="#F9FAFB"/>
<path d="M52.5617 40.7183L50.5192 41.4078C50.4925 41.4171 50.4682 41.4324 50.4482 41.4524C50.4281 41.4724 50.4129 41.4966 50.4036 41.5233L49.7129 43.5624C49.7004 43.5981 49.677 43.6291 49.6461 43.6509C49.6151 43.6728 49.5782 43.6846 49.5403 43.6846C49.5024 43.6846 49.4654 43.6728 49.4345 43.6509C49.4035 43.6291 49.3802 43.5981 49.3676 43.5624L48.677 41.5233C48.6677 41.4969 48.6527 41.4728 48.633 41.4528C48.6133 41.4328 48.5894 41.4175 48.563 41.4078L46.9953 40.8804L46.5188 40.7201C46.483 40.7075 46.4521 40.6842 46.4302 40.6533C46.4083 40.6224 46.3965 40.5855 46.3965 40.5477C46.3965 40.5099 46.4083 40.473 46.4302 40.4421C46.4521 40.4112 46.483 40.3879 46.5188 40.3753L48.563 39.6859C48.5895 39.6768 48.6135 39.6619 48.6332 39.6422C48.653 39.6225 48.668 39.5985 48.677 39.5721L49.1207 38.2655L49.3676 37.5381C49.3802 37.5024 49.4035 37.4715 49.4345 37.4496C49.4654 37.4278 49.5024 37.416 49.5403 37.416C49.5782 37.416 49.6151 37.4278 49.6461 37.4496C49.677 37.4715 49.7004 37.5024 49.7129 37.5381L49.7889 37.7639L50.0651 38.5827L50.4018 39.5773C50.4103 39.6042 50.4253 39.6287 50.4454 39.6486C50.4656 39.6684 50.4904 39.683 50.5175 39.691L52.56 40.3805C52.5936 40.3941 52.6224 40.4174 52.6427 40.4474C52.663 40.4773 52.674 40.5127 52.6742 40.5489C52.6743 40.585 52.6638 40.6205 52.6437 40.6506C52.6237 40.6808 52.5952 40.7044 52.5617 40.7183Z" fill="#F9FAFB"/>
<path d="M150.457 58.8005C149.939 58.092 149.311 57.2491 148.594 56.3666L151.3 55.5737L160 46.4174L150.677 44.7385L151.26 40.4293L150.968 35.2944L149.252 19.7139L128.932 32.5503L128.485 33.5414C125.926 28.9357 122.214 24.7661 119.365 21.5652C116.085 17.8868 110.612 11.7298 101.138 8.2272C93.6208 5.44861 87.0046 5.63132 83.826 5.72095C80.7355 5.80713 75.5645 5.94848 69.4956 8.16687C62.7413 10.63 57.6325 14.5601 54.535 17.4231C53.3806 18.4856 52.2854 19.6106 51.2546 20.793L52.0695 16.3975L42.9913 8.53747L33.9976 14.6273L33.8146 17.2232L23.8006 6.51902L7.31887 0L5.24701 16.3889L8.70012 23.2165L0.972051 23.806L1.51764 33.3191L6.12064 38.0799L3.1078 39.433L0 44.8161L4.54257 51.9522L10.5441 53.3743L12.6919 53.1467C10.9067 54.736 9.66872 56.3373 8.73292 57.5387C5.99902 61.0897 4.01083 65.1548 2.88735 69.4909C1.76388 73.8269 1.52821 78.3446 2.19445 82.7736C2.49487 84.7628 3.28909 90.0494 6.84062 95.5531C8.39452 97.9663 10.1522 99.8899 11.5593 101.436C12.5607 102.534 14.068 104.194 14.1491 104.79C14.0433 104.948 13.928 105.099 13.8038 105.242C13.2496 105.932 12.4122 106.985 12.0773 108.848C11.775 110.591 11.9868 112.384 12.6867 114.009C14.0991 117.237 17.4831 119.525 21.1106 119.697C23.2377 119.797 24.5016 119.075 25.427 118.547C25.7117 118.371 26.0116 118.219 26.3231 118.096C26.406 118.068 26.4957 118.039 26.5855 118.018C26.7625 117.975 26.9426 117.946 27.1242 117.932C27.9443 117.866 28.2706 118.008 29.9402 118.923C30.9364 119.471 32.1847 120.154 33.9735 120.936C36.4321 122.012 39.7989 123.484 44.0842 124.039C45.6604 124.235 47.25 124.304 48.8374 124.246C50.6295 124.21 51.037 124.246 51.6827 124.711C52.2473 125.12 52.7687 126.111 53.8945 128.312C54.5258 129.541 55.0609 130.817 55.495 132.128C55.9784 133.507 56.436 134.817 57.6791 136.712C59.29 139.163 60.9457 140.676 62.7396 141.366C63.7722 141.772 64.8704 141.987 65.9804 142C66.9488 142.006 67.9076 141.809 68.7946 141.421C73.3493 139.382 73.9104 133.038 74.147 130.329C74.2523 129.143 74.2627 127.95 74.178 126.762C74.1543 126.47 74.1468 126.177 74.1556 125.883L74.1798 125.847C74.917 124.813 77.7779 124.837 79.4872 124.854C81.2345 124.873 83.8727 124.897 84.5529 125.864C84.5685 125.888 84.5788 125.904 84.584 125.914C84.5888 126.202 84.575 126.49 84.5426 126.776C84.4231 127.975 84.4265 129.182 84.5529 130.38C84.6617 131.391 85.7771 140.287 91.4764 141.584C93.9264 142.141 95.943 140.995 97.4158 140.159C99.9659 138.711 101.245 136.786 102.595 134.747C104.056 132.629 105.164 130.29 105.876 127.819C106.181 126.754 106.384 125.663 106.484 124.56C106.492 124.465 106.504 124.361 106.515 124.266C106.829 124.201 107.715 124.279 108.319 124.332C109.857 124.501 111.408 124.528 112.951 124.411C120.279 123.777 127.499 119.123 128.872 118.196C128.962 118.137 129.045 118.077 129.138 118.023C129.863 117.529 130.203 117.31 130.692 117.251C130.924 117.22 131.16 117.242 131.382 117.317C131.725 117.443 132.053 117.606 132.36 117.804L132.38 117.816L132.477 117.872C132.676 117.985 132.807 118.066 132.947 118.153C132.972 118.171 133 118.185 133.028 118.204C133.055 118.223 133.085 118.237 133.114 118.258C133.259 118.344 133.411 118.43 133.568 118.516L133.589 118.527L133.762 118.616L133.779 118.627L133.846 118.661L133.92 118.699C134.294 118.888 134.679 119.055 135.072 119.199L135.327 119.285L135.595 119.364L135.697 119.394L135.744 119.407L135.951 119.457C136.072 119.485 136.196 119.511 136.322 119.537L136.512 119.568C136.605 119.583 136.698 119.597 136.792 119.607C136.885 119.618 136.942 119.626 137.018 119.633L137.247 119.65C137.318 119.65 137.391 119.659 137.463 119.661H137.594H137.627C137.677 119.661 137.729 119.661 137.779 119.661C137.976 119.661 138.175 119.661 138.375 119.637L138.615 119.618C138.66 119.618 138.706 119.607 138.753 119.6C138.896 119.585 139.05 119.562 139.214 119.538C139.219 119.537 139.224 119.537 139.23 119.538C140.73 119.29 143.028 118.578 144.582 116.544C146.519 114.031 146.198 111.089 146.044 109.674C146.044 109.62 146.032 109.567 146.027 109.519C146.022 109.47 146.027 109.451 146.013 109.415C145.889 108.537 145.675 107.675 145.376 106.84V106.828C145.237 106.454 145.079 106.088 144.903 105.73L144.92 105.776C144.914 105.762 144.908 105.748 144.903 105.733C144.842 105.588 144.809 105.434 144.805 105.277C144.768 104.179 145.929 103.025 147.049 101.908C147.237 101.722 147.422 101.536 147.598 101.357C153.51 95.3015 155.368 87.5948 155.975 85.061C156.448 83.1011 157.4 77.8404 156.036 71.3421C155.086 66.8147 153.184 62.54 150.457 58.8005ZM145 50.7353L146.067 49.1598L148.387 50.2751C148.38 50.3198 148.36 50.3613 148.329 50.3947C148.298 50.4281 148.258 50.4518 148.215 50.4629L144.416 51.5937L145 50.7353ZM143.558 51.33C143.555 51.3307 143.552 51.3307 143.549 51.33C143.335 51.1679 143.119 51.0094 142.897 50.8559C142.564 50.6261 142.219 50.402 141.861 50.1837C141.83 50.163 141.797 50.1441 141.764 50.1251L141.826 50.1096L143.428 49.6925L144.42 49.4356L144.924 49.3046L143.558 51.33ZM145.803 35.6443L146.062 40.2156L145.307 45.7935L144.979 48.2066L144.955 48.379L144.891 48.3945L143.9 48.6513L142.741 48.9513L140.944 49.4167L140.747 49.4667L143.898 44.0094L143.65 38.4384L145.392 31.8884L145.803 35.6443ZM135.017 43.3786L138.005 41.8858L138.247 41.7462L142.816 39.109L143.026 43.8198L139.943 49.1633C138.656 48.5835 137.291 48.1928 135.892 48.0032C135.524 47.955 135.172 47.9239 134.832 47.8912C134.264 47.8623 133.699 47.7757 133.149 47.6326L135.017 43.3786ZM134.727 38.3798L136.907 37.2043L137.335 41.2636L135.055 42.4029L134.727 38.3798ZM145.024 28.5082L145.136 29.5286L142.843 38.0937L138.149 40.8051L137.712 36.6492L143.755 29.3028L145.024 28.5082ZM141.434 30.7749L136.99 36.1821L134.4 37.5731L133.218 35.9632L141.434 30.7749ZM131.134 40.2759L132.724 36.7527L133.851 38.2902L134.245 42.989L132.403 47.2C131.489 46.3157 131.489 44.5352 131.489 43.6785V43.4665C131.482 42.3946 131.366 41.3263 131.144 40.2776L131.134 40.2759ZM46.4444 18.366L46.3684 18.778L42.9913 19.6088L42.6805 15.1134L46.4444 18.366ZM41.6963 31.0145C41.484 31.0489 41.2682 31.0869 41.0454 31.1317L40.1632 21.3532L42.7081 20.5672H42.7271L45.9937 19.7639L41.6963 31.0145ZM45.4948 23.4871L44.6021 28.2686L43.5317 30.7249C43.2779 30.768 42.9964 30.8094 42.6822 30.8559H42.6736L45.4948 23.4871ZM38.9891 17.4955L41.8465 15.5598L42.1435 19.838L39.7971 20.562L38.8303 19.7346L38.9891 17.4955ZM38.756 20.805L39.2826 21.2566L40.1891 31.3161C39.8599 31.3954 39.518 31.4891 39.1635 31.5971C38.9511 31.6626 38.7388 31.7333 38.5298 31.8108L38.2156 28.4565L38.756 20.805ZM21.7546 11.909L37.3644 28.5823L37.5837 30.9042L36.4511 29.6355L36.3423 29.5269L22.6576 15.9218L21.7546 12.4554L21.582 11.9383L21.7546 11.909ZM18.5225 41.0998L20.6375 42.7649L10.1004 44.299L8.83652 42.5288L14.2734 40.0932V40.1225L18.5225 41.0998ZM19.0008 40.3793L15.5476 37.3042L17.1585 38.1333L21.9273 38.385L23.2429 43.2251L22.0343 42.7684L19.0008 40.3793ZM13.1443 35.0962L13.0787 31.6884H17.7542L21.4559 37.4973L17.3882 37.2836L13.1443 35.0962ZM22.9494 38.8314L22.668 37.7972L18.7694 31.6747L10.9015 16.0976L13.3307 17.237L26.6011 35.6167L24.3686 36.4993L22.9494 38.8314ZM24.9125 37.1077L26.8013 36.4545L26.6373 37.2715L26.4508 42.7563L26.8808 43.4596C26.7409 43.8319 26.6356 44.1663 26.5458 44.4697L24.2478 43.6078L23.3085 40.1621L24.9125 37.1077ZM14.3304 17.137L18.4362 15.9649L30.3822 30.6646L29.1943 30.8369L28.6142 31.0938C28.1434 32.3831 27.6727 33.6713 27.2019 34.9583L14.3304 17.137ZM19.662 16.1028L22.0585 16.5475L34.9749 29.3959L33.029 29.2011L31.261 30.3939L19.662 16.1028ZM27.4626 38.5108L29.462 38.9745C29.1236 39.4342 28.7932 39.9076 28.4709 40.3948C28.0446 41.0378 27.6621 41.7086 27.3262 42.4029L27.4626 38.5108ZM27.492 37.6335V37.4059L27.7682 36.027L29.0407 31.9729L33.6109 34.5963C32.284 35.6684 31.0828 36.8867 30.03 38.2281L27.492 37.6335ZM30.0956 31.5764L31.3042 31.404L33.2552 30.0854L35.9296 30.3543L37.5664 32.1918C36.4336 32.6843 35.3579 33.2987 34.3585 34.0241L30.0956 31.5764ZM20.9155 12.6881L21.6804 15.5977L18.9369 15.0979L18.3274 12.6312L20.7187 12.1245L20.9155 12.6881ZM20.2249 10.6714L20.439 11.304L17.9078 11.8366L12.7955 7.72906L20.2249 10.6714ZM11.5489 7.83593L17.4192 12.5451L18.0667 15.1685L13.6519 16.4337L10.6408 15.0237L11.5489 7.83593ZM12.2102 31.4506L12.2586 34.2688L8.93493 30.8111L9.09032 29.6045L8.88831 28.9581L12.2102 31.4506ZM12.4571 35.7133H12.4744L17.1723 39.8984L14.4893 39.283L6.85443 31.392H8.2961L12.4571 35.7133ZM7.83511 28.4737L8.2115 29.6924L8.101 30.537H6.5471L6.43315 28.5823L7.83511 28.4737ZM6.05331 44.6765L6.74393 43.4699L8.02676 42.8959L9.28542 44.6437L7.55886 47.0397L6.05331 44.6765ZM8.28747 47.5137L9.66872 45.5883L10.2903 47.9894L8.28747 47.5137ZM11.2226 48.0946L10.4526 45.1229L21.5578 43.5044L26.3075 45.297C26.1555 45.7694 25.883 46.1941 25.5168 46.5295L25.465 46.5829L11.2226 48.0946ZM150.927 83.8527C150.409 86.0435 148.795 92.7073 143.876 97.7457C143.717 97.918 143.551 98.0766 143.378 98.2455C142.629 98.9919 141.695 99.9244 140.946 101.067C140.575 100.774 140.202 100.49 139.83 100.205C139.497 99.9537 139.152 99.6883 138.808 99.4228C136.874 97.895 135.083 96.1954 133.456 94.3448C133.001 93.8308 132.361 93.5181 131.675 93.4756C130.989 93.4331 130.315 93.6642 129.8 94.1182C129.285 94.5721 128.972 95.2117 128.929 95.8962C128.887 96.5807 129.118 97.254 129.573 97.7681C131.41 99.8533 133.433 101.768 135.616 103.489C135.994 103.786 136.357 104.06 136.707 104.325C138.261 105.506 139.395 106.361 140.16 107.845C140.174 107.869 140.188 107.898 140.202 107.926C140.333 108.189 140.448 108.459 140.547 108.736V108.75C140.709 109.209 140.83 109.681 140.908 110.161V110.205C141.006 111.116 141.156 112.499 140.49 113.364C140.49 113.364 139.882 114.14 138.254 114.429C138.106 114.454 137.957 114.468 137.807 114.469C137.429 114.479 136.728 114.438 135.371 113.755C134.666 113.399 133.996 112.978 133.368 112.499C133.1 112.356 132.056 111.689 129.129 108.838C128.635 108.36 127.971 108.098 127.283 108.109C126.596 108.12 125.94 108.403 125.462 108.896C124.983 109.39 124.721 110.052 124.732 110.739C124.743 111.426 125.027 112.08 125.521 112.557C125.881 112.909 126.22 113.235 126.539 113.536L126.239 113.738L125.995 113.91C125.269 114.4 118.709 118.723 112.528 119.254C111.286 119.344 110.037 119.318 108.799 119.178C106.817 119.006 104.569 118.804 102.692 120.729C101.573 121.883 101.451 123.07 101.352 124.027C101.284 124.832 101.137 125.628 100.912 126.404C100.266 128.676 98.2963 131.88 98.2963 131.88C96.4627 134.867 95.6599 135.45 95.1143 135.772C94.5687 136.094 93.7814 136.541 92.887 136.365C91.4833 136.091 90.7616 134.498 90.4698 133.835C90.033 132.871 89.9294 131.856 89.7205 129.825C89.6946 129.567 89.6635 129.227 89.6549 128.807C89.6481 128.267 89.6706 127.727 89.7222 127.19C89.8206 125.995 89.9432 124.506 88.8106 122.894C86.6023 119.75 82.3619 119.709 79.5563 119.681C76.6574 119.652 72.2754 119.609 69.9722 122.855C68.8723 124.406 68.9535 125.811 69.0243 127.054C69.0936 127.992 69.0872 128.935 69.0053 129.872C68.565 134.853 67.5032 136.334 66.6917 136.696C66.4068 136.824 65.7576 136.968 64.5905 136.524C63.8999 136.26 62.9589 135.293 62.0248 133.869C61.1305 132.509 60.8162 131.628 60.4001 130.422C59.8903 128.888 59.2652 127.394 58.5303 125.954C57.149 123.286 56.3324 121.676 54.7318 120.521C52.9569 119.232 51.3392 119.057 49.6799 119.057C49.3692 119.057 49.0584 119.057 48.7441 119.071C47.4128 119.12 46.0797 119.062 44.7575 118.899C41.2077 118.442 38.3537 117.194 36.0591 116.191C34.4776 115.501 33.3484 114.881 32.442 114.381L31.9931 114.138C32.6433 113.249 33.1593 112.27 33.5245 111.232C33.7535 110.585 33.7158 109.874 33.4197 109.255C33.1236 108.637 32.5933 108.16 31.9456 107.932C31.2979 107.703 30.5858 107.741 29.9659 108.037C29.346 108.332 28.8691 108.862 28.6401 109.508C28.4777 110.04 28.2374 110.545 27.9271 111.006C27.5623 111.491 27.1236 111.916 26.627 112.266C25.8818 112.859 25.0615 113.352 24.1873 113.731C22.9528 114.264 22.2778 114.555 21.3592 114.521C19.7225 114.457 18.0408 113.386 17.4399 111.935C17.1769 111.235 17.0886 110.482 17.1827 109.741C17.2828 109.174 17.4607 108.95 17.8509 108.464C18.3828 107.852 18.7961 107.146 19.0698 106.383C20.1316 103.156 17.8267 100.626 15.3853 97.9491C14.0386 96.4719 12.5141 94.8016 11.1898 92.7469C8.24085 88.1757 7.56404 83.6872 7.31197 81.998C6.75204 78.2609 6.95192 74.4494 7.89969 70.7911C8.84745 67.1328 10.5237 63.7026 12.8283 60.7052C14.1025 59.0625 15.8498 56.8113 18.7953 55.017C20.6945 53.8604 22.1224 53.4967 23.495 53.145C24.7985 52.8106 26.1349 52.4693 27.5161 51.5558C28.1436 51.1397 28.7226 50.6553 29.2427 50.1113C30.7465 48.56 31.1143 47.3034 31.4389 46.2002C31.5775 45.6908 31.7541 45.1924 31.9672 44.7092C32.209 44.1925 32.4895 43.6946 32.8063 43.22C35.1164 39.6933 37.7771 37.4421 40.7122 36.5286C40.8262 36.4924 40.9401 36.4596 41.0575 36.4286C41.8431 36.227 42.6406 36.075 43.4453 35.9735C44.6885 35.7891 46.0352 35.5926 47.3491 34.9393C48.1948 34.5231 48.9559 33.9538 49.5936 33.2605C50.5108 32.2588 51.1968 31.0685 51.6033 29.7734L51.6223 29.7114C53.121 25.2694 60.9803 16.763 71.2757 13.007C76.5572 11.0816 81.0221 10.9575 83.978 10.8748C86.8303 10.7955 92.7679 10.63 99.3443 13.0604C107.604 16.1166 112.356 21.4531 115.5 24.9867C118.98 28.8978 123.908 34.4326 125.657 39.8105C126.061 40.9961 126.28 42.2367 126.306 43.4889V43.6612C126.306 45.0057 126.306 48.5807 128.896 50.9904C130.721 52.6917 132.827 52.8865 134.366 53.0278C134.668 53.0554 134.953 53.0812 135.214 53.1157C138.238 53.5191 140.783 55.4496 142.821 57.5835C144.224 59.0573 145.39 60.6293 146.303 61.8618C148.584 64.9983 150.173 68.5819 150.965 72.3763C152.134 78.0249 151.233 82.5892 150.927 83.8527Z" fill="#F9FAFB"/>
<path d="M64.145 67.3678C63.6567 69.2697 62.5646 70.9627 61.032 72.1932C59.4994 73.4236 57.6089 74.1255 55.6434 74.1936C55.5398 74.1936 55.4362 74.1936 55.3309 74.1936C55.2256 74.1936 55.1237 74.1936 55.0201 74.1936C53.0546 74.1255 51.1641 73.4236 49.6315 72.1932C48.099 70.9627 47.0068 69.2697 46.5186 67.3678C46.7301 66.5396 47.0585 65.7456 47.4941 65.0098C48.27 66.328 49.3672 67.4289 50.6836 68.2104C52 68.9918 53.4929 69.4283 55.0236 69.4793C55.1254 69.4793 55.229 69.4793 55.3326 69.4793C55.4362 69.4793 55.5398 69.4793 55.6417 69.4793C57.1723 69.4283 58.6653 68.9918 59.9817 68.2104C61.2981 67.4289 62.3952 66.328 63.1712 65.0098C63.6061 65.7457 63.934 66.5397 64.145 67.3678Z" fill="#F9FAFB"/>
<path d="M112.547 67.3678C112.059 69.2697 110.967 70.9627 109.434 72.1932C107.902 73.4236 106.011 74.1255 104.046 74.1936C103.942 74.1936 103.839 74.1936 103.733 74.1936C103.628 74.1936 103.526 74.1936 103.422 74.1936C101.457 74.1255 99.5664 73.4236 98.0339 72.1932C96.5013 70.9627 95.4091 69.2697 94.9209 67.3678C95.1324 66.5396 95.4609 65.7456 95.8964 65.0098C96.6719 66.3272 97.7683 67.4278 99.0837 68.2091C100.399 68.9905 101.891 69.4274 103.421 69.4793C103.523 69.4793 103.626 69.4793 103.73 69.4793C103.833 69.4793 103.937 69.4793 104.039 69.4793C105.57 69.4283 107.062 68.9918 108.379 68.2104C109.695 67.4289 110.792 66.328 111.568 65.0098C112.005 65.7454 112.335 66.5394 112.547 67.3678Z" fill="#F9FAFB"/>
<path d="M84.4285 78.9926C84.2558 80.9231 81.6263 82.209 79.5337 82.209C77.4411 82.209 74.8202 80.9231 74.6406 78.9926C74.4507 76.9483 77.0699 74.916 79.5337 74.916C81.9975 74.916 84.6149 76.9483 84.4285 78.9926Z" fill="#F9FAFB"/>
</g>
<defs>
<clipPath id="clip0_2021_8911">
<rect width="160" height="142" fill="white"/>
</clipPath>
</defs>
</svg>
