<svg width="393" height="681" viewBox="0 0 393 681" fill="none" xmlns="http://www.w3.org/2000/svg">
<path fill-rule="evenodd" clip-rule="evenodd" d="M-0.000244141 657V107V85C-0.000244141 84.3265 0.0274989 83.6595 0.0819046 83H-0.000244141V0.356162C5.23296 -0.447335 10.9539 0.0411651 17.027 2.51535C25.2334 5.55824 33.6182 13.3177 33.6182 26.4022C34.2086 26.5029 34.8869 26.5577 35.6377 26.6185C39.4247 26.9249 45.0576 27.3806 50.5662 34.618C55.2047 32.1837 60.0215 31.2708 66.2655 32.9444C66.7762 32.5345 67.3172 31.9563 67.9423 31.2883L67.9424 31.2882L67.9424 31.2882C71.0294 27.9894 76.1655 22.5008 89.8143 24.2721C102.945 25.9762 105.157 36.6466 104.622 41.7688C111.362 42.1183 123.264 45.252 128.468 54.4091C138.29 52.6572 140.867 53.5437 140.982 54.3209C141.288 47.6734 145.731 34.2347 161.22 32.5242C176.821 30.8013 184.312 40.4209 186.107 45.446C190.936 43.8308 202.117 42.2426 208.208 48.8112C208.631 48.4634 209.097 48.0537 209.613 47.5999C214.091 43.6632 222.347 36.4045 238.667 37.37C237.181 32.5242 238.11 13.1416 266.34 18.5257C266.462 18.3657 266.597 18.1849 266.745 17.9857C270.221 13.3275 281.165 -1.33997 306.456 6.27683C323.729 11.4786 323.729 23.7028 323.729 29.8321C330.105 29.2937 343.193 31.6628 344.53 45.446C348.059 45.446 355.599 46.8996 357.531 52.7144C358.248 52.4892 359.156 52.1101 360.239 51.6577C366.415 49.079 378.289 44.1209 393 51.7286V83H392.918C392.972 83.6595 393 84.3265 393 85V107V657C393 670.255 382.255 681 369 681H23.9998C10.7449 681 -0.000244141 670.255 -0.000244141 657Z" fill="#4C1D95"/>
<path fill-rule="evenodd" clip-rule="evenodd" d="M6.29425e-05 107L-0.000244141 526.779C42.3668 540.215 95.8692 550.285 145.5 542.499C253.5 525.558 303.719 484.057 353.5 432.999C371.583 414.452 384.125 396.908 393 380.928V85C393 84.4253 392.98 83.8554 392.94 83.2908L393 83.3014V19.5916C386.183 10.6389 373.926 1.11921 359.129 8.03456C352.377 10.9066 345.478 18.2304 345.478 30.5801C344.993 30.6752 344.435 30.727 343.817 30.7843C340.701 31.0735 336.066 31.5037 331.534 38.3346C327.718 36.037 323.754 35.1754 318.617 36.755C318.197 36.3685 317.752 35.8234 317.239 35.1937L317.238 35.193L317.237 35.192L317.237 35.1918C314.697 32.0783 310.471 26.8979 299.241 28.5697C288.438 30.1781 286.618 40.2493 287.058 45.0839C286.501 45.1171 285.902 45.1434 285.269 45.1713C278.187 45.4826 266.978 45.9754 265.498 58.1662L247.863 57.6834C245.925 48.9586 235.53 38.3044 213.73 53.6109C205.706 51.6667 203.612 52.6218 203.519 53.4581C203.276 46.3789 199.737 32.0676 187.401 30.246C174.976 28.4112 169.01 38.6554 167.581 44.0069C163.735 42.2868 154.83 40.5954 149.978 47.5906C149.642 47.2202 149.271 46.7839 148.86 46.3007C145.294 42.1084 138.718 34.3782 125.72 35.4064C126.904 30.246 126.164 9.60478 103.681 15.3385C103.584 15.1681 103.476 14.9755 103.358 14.7634C100.59 9.80273 91.8734 -5.81719 71.7308 2.29421C57.9746 7.8338 57.9746 20.8517 57.9746 27.3791C52.8961 26.8057 42.4729 29.3287 41.4079 44.0069C38.5975 44.0068 32.5921 45.5549 31.0538 51.7473C30.4826 51.5074 29.7594 51.1037 28.8965 50.6219C23.5911 47.6598 13.0054 41.7496 6.29425e-05 52.8649V85.9996L0.00026226 86L6.29425e-05 107ZM393 451.926C358.353 491.858 290.938 521.907 257 534C236.748 541.216 232 544.333 250 552.5C269.753 561.462 338.682 551.507 393 535.916V451.926Z" fill="#8B5CF6"/>
</svg>
