<svg width="393" height="100" viewBox="0 0 393 100" fill="none" xmlns="http://www.w3.org/2000/svg">
<path d="M225.382 65H140.934C135.622 64.4921 125 59.819 125 45.1905C125 30.5619 141.996 25.8889 150.494 25.381C152.087 17.254 161.01 1 183.954 1C212.635 1 209.448 25.381 215.822 25.381C222.195 25.381 241.316 28.4286 242.909 45.1905C244.184 58.6 231.755 63.9841 225.382 65Z" fill="#441989"/>
<path d="M317.326 100H290.131C288.421 99.8333 285 98.3 285 93.5C285 88.7 290.473 87.1667 293.21 87C293.723 84.3333 296.596 79 303.985 79C313.221 79 312.195 87 314.248 87C316.3 87 322.458 88 322.971 93.5C323.381 97.9 319.379 99.6667 317.326 100Z" fill="#441989"/>
<path d="M103.177 25H75.2662C73.5108 24.8333 70 23.3 70 18.5C70 13.7 75.6173 12.1667 78.4259 12C78.9525 9.33333 81.9016 4 89.485 4C98.9641 4 97.9109 12 100.017 12C102.124 12 108.443 13 108.97 18.5C109.391 22.9 105.284 24.6667 103.177 25Z" fill="#441989"/>
</svg>
