<svg width="393" height="301" viewBox="0 0 393 301" fill="none" xmlns="http://www.w3.org/2000/svg">
<g clip-path="url(#clip0_4825_1884)">
<path d="M94.6583 268C94.5964 263.738 97.5556 255.078 109.888 254.54C109.516 246.329 122.145 223.178 153.161 239.464C163.237 237.639 165.866 238.536 165.982 239.321C166.288 232.673 170.732 219.235 186.22 217.524C201.821 215.801 209.312 225.421 211.107 230.446C215.936 228.831 227.117 227.243 233.209 233.811C237.294 230.446 245.466 221.293 263.667 222.37C262.181 217.524 263.11 198.142 291.34 203.526C294.312 199.622 305.084 183.334 331.457 191.277C348.729 196.479 348.729 208.703 348.729 214.832C355.105 214.294 368.193 216.663 369.53 230.446C373.059 230.446 380.599 231.9 382.531 237.714C388.103 235.965 405.189 224.927 426.547 242.426C435.834 250.033 435.834 266.071 435.834 268H94.6583Z" fill="#8B5CF6"/>
<path d="M42.0273 187.515C19.6202 178.387 2.00614 196.289 -4 206.381V268H178.503C179.039 266.124 178.432 260.88 171.724 254.916C163.339 247.46 161.02 249.59 156.025 249.59C156.025 232.429 138.423 227.225 129.622 226.769C130.157 221.647 127.945 210.976 114.815 209.272C98.4017 207.142 94.2985 215.51 91.2657 217.944C85.0217 216.271 80.2049 217.184 75.5665 219.618C68.9657 210.946 62.1865 212.011 58.6185 211.402C58.6185 198.318 50.2337 190.558 42.0273 187.515Z" fill="#8B5CF6"/>
<path d="M77.6583 296C77.5964 291.738 80.5556 283.078 92.8877 282.54C92.5162 274.329 105.145 251.178 136.161 267.464C146.237 265.639 148.866 266.536 148.982 267.321C149.288 260.673 153.732 247.235 169.22 245.524C184.821 243.801 192.312 253.421 194.107 258.446C198.936 256.831 210.117 255.243 216.209 261.811C220.294 258.446 228.466 249.293 246.667 250.37C245.181 245.524 246.11 226.142 274.34 231.526C277.312 227.622 288.084 211.334 314.457 219.277C331.729 224.479 331.729 236.703 331.729 242.832C338.105 242.294 351.193 244.663 352.53 258.446C356.059 258.446 363.599 259.9 365.531 265.714C371.103 263.965 388.189 252.927 409.547 270.426C418.834 278.033 418.834 294.071 418.834 296H77.6583Z" fill="#4C1D95"/>
<path d="M25.0273 215.515C2.62019 206.387 -14.9939 224.289 -21 234.381V296H161.503C162.039 294.124 161.432 288.88 154.724 282.916C146.339 275.46 144.02 277.59 139.025 277.59C139.025 260.429 121.423 255.225 112.622 254.769C113.157 249.647 110.945 238.976 97.8145 237.272C81.4017 235.142 77.2985 243.51 74.2657 245.944C68.0217 244.271 63.2049 245.184 58.5665 247.618C51.9657 238.946 45.1865 240.011 41.6185 239.402C41.6185 226.318 33.2337 218.558 25.0273 215.515Z" fill="#4C1D95"/>
<path d="M272.324 300.999C272.374 296.46 270.017 287.239 260.195 286.665C260.491 277.921 250.433 253.266 225.731 270.611C217.706 268.667 215.612 269.622 215.52 270.458C215.276 263.379 211.737 249.068 199.402 247.246C186.977 245.411 181.011 255.655 179.581 261.007C175.735 259.287 166.83 257.595 161.979 264.591C158.725 261.007 152.216 251.26 137.72 252.406C138.904 247.246 138.164 226.605 115.681 232.338C113.314 228.182 104.735 210.836 83.731 219.294C69.9748 224.834 69.9748 237.852 69.9748 244.379C64.8963 243.806 54.4732 246.329 53.4082 261.007C50.5978 261.007 44.5924 262.555 43.054 268.747C38.6166 266.884 25.0083 255.13 7.99788 273.764C0.602097 281.866 0.602097 298.945 0.602097 300.999H272.324Z" fill="#2E1065"/>
<path d="M371.13 225.035C389.566 216.419 404.058 233.316 409 242.841V301H258.84C258.399 299.229 258.898 294.28 264.418 288.65C271.316 281.614 273.225 283.624 277.335 283.624C277.335 267.426 291.817 262.515 299.059 262.084C298.618 257.25 300.438 247.178 311.242 245.57C324.746 243.559 328.122 251.458 330.617 253.755C335.755 252.176 339.718 253.037 343.534 255.335C348.965 247.15 354.543 248.155 357.479 247.58C357.479 235.231 364.378 227.907 371.13 225.035Z" fill="#2E1065"/>
<mask id="mask0_4825_1884" style="mask-type:alpha" maskUnits="userSpaceOnUse" x="-1" y="-14" width="393" height="251">
<rect x="-1" y="-14" width="393" height="251" rx="24" fill="url(#paint0_linear_4825_1884)"/>
</mask>
<g mask="url(#mask0_4825_1884)">
<g opacity="0.4">
<g opacity="0.4">
<path d="M289.174 65.4453L274.153 37.2016C273.636 36.2299 272.158 36.684 272.276 37.7782L275.305 65.9113C275.349 66.3119 275.628 66.6475 276.014 66.7626L279.22 67.7177C280.158 67.9975 280.238 69.493 279.424 70.0379C276.351 72.0946 274.223 75.4005 273.021 77.9977C272.644 78.8122 273.499 79.536 274.286 79.1049L286.029 72.6746C286.6 72.3618 287.313 72.6698 287.477 73.3001L290.351 84.3524C290.549 85.1161 291.488 85.3316 291.878 84.6455C293.826 81.2177 293.694 76.1478 293.179 72.7988C293.06 72.0227 293.805 71.3556 294.549 71.6069L300.418 73.589C300.755 73.7028 301.127 73.629 301.395 73.3953L321.425 55.9315C322.27 55.1951 321.45 53.8396 320.405 54.2457L290.419 65.9077C289.947 66.0914 289.412 65.8927 289.174 65.4453Z" fill="#8B5CF6"/>
<path d="M191.693 67.6913L148.957 42.5272C147.984 41.9541 148.558 40.4596 149.665 40.6857L206.991 52.3995C207.339 52.4706 207.699 52.3517 207.936 52.087L264.591 -11.1501C265.326 -11.9707 266.654 -11.1733 266.275 -10.1389L243.851 51.0715C243.754 51.3354 243.551 51.5465 243.29 51.6529L233.664 55.5932C232.723 55.9782 232.89 57.358 233.896 57.5078L254.959 60.6458C255.908 60.7872 256.11 62.0142 255.231 62.3993C242.67 67.9038 228.332 65.5795 220.602 63.0312C219.726 62.7423 218.867 63.6778 219.241 64.5213C223.635 74.4152 224.016 82.0952 223.439 86.1429C223.321 86.9735 222.316 87.1232 221.864 86.4162L206.785 62.818C206.524 62.4107 206.01 62.2478 205.563 62.4313L192.58 67.7549C192.291 67.8735 191.962 67.85 191.693 67.6913Z" fill="#8B5CF6"/>
<path d="M121.482 50.2206L108.004 40.2645C107.282 39.7309 106.307 40.3465 106.537 41.2143C108.57 48.8527 113.469 51.6669 117.176 52.3614C118.084 52.5316 118.667 53.8261 118.211 54.6297C116.422 57.7783 117.999 60.0477 119.676 61.2161C120.165 61.5567 120.806 61.277 120.994 60.7114L122.901 54.961C123.152 54.2055 124.142 54.0314 124.635 54.6561L128.374 59.3913C128.778 59.903 129.567 59.8962 129.876 59.3221C131.261 56.7492 130.102 54.8388 128.435 53.6049C127.642 53.0181 127.645 51.3296 128.46 50.7742C132.337 48.1329 132.665 43.6763 132.076 40.5597C131.93 39.7838 130.972 39.6162 130.487 40.2394L122.866 50.0305C122.533 50.4585 121.919 50.5429 121.482 50.2206Z" fill="#8B5CF6"/>
<path d="M97.4146 113.211L79.8195 96.5383C79.1822 95.9344 78.1494 96.3914 78.2072 97.2675C78.8986 107.755 84.206 113.788 88.5778 116.605C89.4392 117.161 89.3006 118.983 88.3885 119.451C84.978 121.199 84.5884 123.875 85.0515 125.752C85.1965 126.34 85.8878 126.522 86.3885 126.181L96.4691 119.318C97.133 118.866 98.0319 119.341 98.0319 120.144V125.66C98.0319 126.376 98.7679 126.859 99.376 126.482C102.551 124.512 102.016 121.726 100.81 119.744C100.393 119.058 100.73 118.052 101.506 117.849C110.918 115.378 114.037 107.934 114.592 103.055C114.684 102.245 113.78 101.798 113.132 102.292L98.7084 113.281C98.3184 113.578 97.7705 113.549 97.4146 113.211Z" fill="#8B5CF6"/>
<path d="M123.079 163.482V158.406C123.079 157.442 121.849 157.036 121.275 157.811L115.539 165.559C115.216 165.996 114.601 166.094 114.157 165.779L106.997 160.702C106.241 160.166 105.288 160.846 105.666 161.692C107.31 165.377 109.988 166.845 111.854 167.25C112.424 167.374 112.879 167.873 112.902 168.456C112.997 170.833 114.107 172.03 115.13 172.545C115.656 172.81 116.175 172.351 116.175 171.762V169.82C116.175 169.044 117.02 168.564 117.687 168.961L122.268 171.691C122.723 171.963 123.343 171.825 123.41 171.3C123.588 169.893 122.339 168.269 121.176 167.157C120.715 166.715 120.698 165.957 121.185 165.545L122.724 164.246C122.949 164.056 123.079 163.776 123.079 163.482Z" fill="#8B5CF6"/>
<path d="M-4.96705 183.362L4.22741 127.163C4.40431 126.082 5.94064 126.032 6.18839 127.099L20.5907 189.14C20.7387 189.777 21.4493 190.103 22.0291 189.799L90.7496 153.779C91.7001 153.28 92.6612 154.426 92.0055 155.275L60.1988 196.49C59.9943 196.755 59.6708 196.9 59.3369 196.877L38.1388 195.385C37.2202 195.321 36.6966 196.453 37.2907 197.157C46.8687 208.501 42.0567 218.635 37.6068 223.167C37.1653 223.616 36.4308 223.491 36.118 222.944L20.4242 195.499C20.0661 194.873 19.1831 194.82 18.7531 195.4L1.50691 218.633C1.07232 219.219 0.174894 219.149 -0.147913 218.495C-7.71406 203.171 1.95441 194.379 9.96288 190.875C10.8778 190.475 10.855 189.02 9.89845 188.733L-4.26767 184.481C-4.74884 184.336 -5.04817 183.857 -4.96705 183.362Z" fill="#8B5CF6"/>
<path d="M80.156 198.959C80.2546 198.703 80.6173 198.703 80.7159 198.959L81.5473 201.119C81.5919 201.235 81.7032 201.311 81.8273 201.311H84.3943C84.697 201.311 84.8092 201.709 84.5511 201.867L82.5667 203.084C82.4434 203.16 82.3916 203.313 82.4435 203.448L83.2211 205.468C83.3241 205.736 83.0288 205.981 82.7843 205.832L80.5928 204.487C80.4966 204.428 80.3753 204.428 80.2791 204.487L78.0876 205.832C77.8431 205.981 77.5477 205.736 77.6508 205.468L78.4283 203.448C78.4803 203.313 78.4285 203.16 78.3052 203.084L76.3207 201.867C76.0627 201.709 76.1749 201.311 76.4776 201.311H79.0446C79.1687 201.311 79.28 201.235 79.3246 201.119L80.156 198.959Z" fill="#8B5CF6"/>
<path d="M182.5 179.072C182.599 178.816 182.961 178.816 183.06 179.072L184.074 181.706C184.118 181.822 184.229 181.898 184.354 181.898H187.511C187.813 181.898 187.926 182.296 187.668 182.454L185.206 183.964C185.082 184.04 185.031 184.193 185.083 184.328L186.042 186.822C186.145 187.09 185.85 187.335 185.606 187.185L182.937 185.548C182.84 185.489 182.719 185.489 182.623 185.548L179.954 187.185C179.71 187.335 179.414 187.09 179.517 186.822L180.477 184.328C180.529 184.193 180.477 184.04 180.354 183.964L177.892 182.454C177.634 182.296 177.746 181.898 178.049 181.898H181.206C181.33 181.898 181.442 181.822 181.486 181.706L182.5 179.072Z" fill="#8B5CF6"/>
<path d="M188.186 141.358C188.284 141.102 188.647 141.102 188.746 141.358L189.942 144.466C189.986 144.581 190.098 144.658 190.222 144.658L193.969 144.658C194.272 144.658 194.384 145.055 194.126 145.214L191.186 147.016C191.063 147.092 191.011 147.245 191.063 147.38L192.206 150.348C192.309 150.616 192.013 150.861 191.769 150.711L188.622 148.782C188.526 148.723 188.405 148.723 188.309 148.782L185.162 150.711C184.918 150.861 184.623 150.616 184.726 150.348L185.868 147.38C185.92 147.245 185.868 147.092 185.745 147.016L182.805 145.214C182.547 145.055 182.66 144.658 182.962 144.658L186.71 144.658C186.834 144.658 186.945 144.581 186.99 144.466L188.186 141.358Z" fill="#8B5CF6"/>
<path d="M215.396 168.788C215.495 168.532 215.857 168.532 215.956 168.788L216.514 170.237C216.558 170.353 216.67 170.43 216.794 170.43H218.476C218.778 170.43 218.891 170.827 218.633 170.985L217.364 171.763C217.241 171.839 217.189 171.992 217.241 172.127L217.745 173.436C217.848 173.704 217.553 173.95 217.308 173.8L215.833 172.895C215.737 172.836 215.615 172.836 215.519 172.895L214.044 173.8C213.799 173.95 213.504 173.704 213.607 173.436L214.111 172.127C214.163 171.992 214.111 171.839 213.988 171.763L212.72 170.985C212.462 170.827 212.574 170.43 212.876 170.43H214.558C214.682 170.43 214.794 170.353 214.838 170.237L215.396 168.788Z" fill="#8B5CF6"/>
<path d="M192.247 147.531C192.345 147.274 192.708 147.274 192.807 147.531L193.638 149.691C193.683 149.807 193.794 149.883 193.918 149.883H196.485C196.788 149.883 196.9 150.281 196.642 150.439L194.658 151.656C194.534 151.732 194.482 151.884 194.534 152.019L195.312 154.04C195.415 154.308 195.12 154.553 194.875 154.403L192.684 153.059C192.587 153 192.466 153 192.37 153.059L190.178 154.403C189.934 154.553 189.639 154.308 189.742 154.04L190.519 152.019C190.571 151.884 190.519 151.732 190.396 151.656L188.412 150.439C188.154 150.281 188.266 149.883 188.568 149.883H191.135C191.26 149.883 191.371 149.807 191.415 149.691L192.247 147.531Z" fill="#8B5CF6"/>
<path d="M199.151 126.959C199.25 126.703 199.612 126.703 199.711 126.959L199.904 127.461C199.949 127.576 200.06 127.653 200.184 127.653L200.686 127.653C200.988 127.653 201.1 128.05 200.842 128.209L200.529 128.401C200.406 128.477 200.354 128.629 200.406 128.764L200.545 129.126C200.648 129.394 200.353 129.64 200.108 129.49L199.588 129.171C199.492 129.112 199.37 129.112 199.274 129.171L198.754 129.49C198.509 129.64 198.214 129.394 198.317 129.126L198.456 128.764C198.508 128.629 198.456 128.477 198.333 128.401L198.02 128.209C197.761 128.05 197.874 127.653 198.176 127.653L198.678 127.653C198.802 127.653 198.913 127.576 198.958 127.461L199.151 126.959Z" fill="#8B5CF6"/>
<path d="M195.506 110.6C195.605 110.343 195.967 110.343 196.066 110.6L196.897 112.76C196.942 112.876 197.053 112.952 197.177 112.952H199.744C200.047 112.952 200.159 113.349 199.901 113.508L197.917 114.725C197.793 114.8 197.742 114.953 197.794 115.088L198.571 117.109C198.674 117.376 198.379 117.622 198.134 117.472L195.943 116.128C195.847 116.069 195.725 116.069 195.629 116.128L193.438 117.472C193.193 117.622 192.898 117.376 193.001 117.109L193.778 115.088C193.83 114.953 193.779 114.8 193.655 114.725L191.671 113.508C191.413 113.349 191.525 112.952 191.828 112.952H194.395C194.519 112.952 194.63 112.876 194.675 112.76L195.506 110.6Z" fill="#8B5CF6"/>
<path d="M222.559 105.329C222.658 105.073 223.021 105.073 223.119 105.329L223.951 107.489C223.995 107.605 224.106 107.681 224.231 107.681H226.798C227.1 107.681 227.213 108.079 226.954 108.237L224.97 109.454C224.847 109.53 224.795 109.683 224.847 109.818L225.624 111.838C225.727 112.106 225.432 112.352 225.188 112.202L222.996 110.857C222.9 110.798 222.779 110.798 222.682 110.857L220.491 112.202C220.246 112.352 219.951 112.106 220.054 111.838L220.832 109.818C220.884 109.683 220.832 109.53 220.709 109.454L218.724 108.237C218.466 108.079 218.578 107.681 218.881 107.681H221.448C221.572 107.681 221.683 107.605 221.728 107.489L222.559 105.329Z" fill="#8B5CF6"/>
<path d="M254.384 78.2724C254.483 78.0161 254.845 78.0161 254.944 78.2724L255.684 80.1956C255.729 80.3114 255.84 80.3879 255.964 80.3879H258.236C258.539 80.3879 258.651 80.7853 258.393 80.9436L256.647 82.0144C256.524 82.09 256.472 82.2429 256.524 82.3779L257.211 84.1613C257.314 84.429 257.018 84.6747 256.774 84.5248L254.821 83.327C254.725 83.268 254.603 83.268 254.507 83.327L252.554 84.5248C252.31 84.6747 252.015 84.429 252.118 84.1613L252.804 82.3779C252.856 82.2429 252.804 82.09 252.681 82.0144L250.935 80.9436C250.677 80.7853 250.789 80.3879 251.092 80.3879H253.364C253.488 80.3879 253.599 80.3114 253.644 80.1956L254.384 78.2724Z" fill="#8B5CF6"/>
<path d="M328.299 -7.44393C328.398 -7.70025 328.76 -7.70025 328.859 -7.44393L330.146 -4.09922C330.191 -3.9834 330.302 -3.90698 330.426 -3.90698H334.469C334.771 -3.90698 334.884 -3.50953 334.626 -3.35125L331.448 -1.40195C331.324 -1.32632 331.272 -1.17347 331.324 -1.03847L332.558 2.16643C332.661 2.43412 332.366 2.67988 332.121 2.52991L328.736 0.453632C328.64 0.394603 328.519 0.394603 328.422 0.453633L325.037 2.52991C324.793 2.67988 324.497 2.43412 324.6 2.16643L325.834 -1.03847C325.886 -1.17347 325.834 -1.32632 325.711 -1.40195L322.533 -3.35125C322.275 -3.50953 322.387 -3.90698 322.69 -3.90698H326.732C326.856 -3.90698 326.967 -3.9834 327.012 -4.09922L328.299 -7.44393Z" fill="#8B5CF6"/>
<path d="M288.093 102.958C288.191 102.702 288.554 102.702 288.653 102.958L288.937 103.697C288.982 103.813 289.093 103.889 289.217 103.889L290.014 103.889C290.316 103.889 290.429 104.287 290.17 104.445L289.618 104.784C289.495 104.859 289.443 105.012 289.495 105.147L289.726 105.746C289.829 106.014 289.533 106.26 289.289 106.11L288.53 105.644C288.433 105.585 288.312 105.585 288.216 105.644L287.457 106.11C287.212 106.26 286.917 106.014 287.02 105.746L287.25 105.147C287.302 105.012 287.251 104.859 287.127 104.784L286.575 104.445C286.317 104.287 286.429 103.889 286.732 103.889L287.529 103.889C287.653 103.889 287.764 103.813 287.809 103.697L288.093 102.958Z" fill="#8B5CF6"/>
<path d="M293.778 105.014C293.877 104.758 294.24 104.758 294.338 105.014L294.623 105.753C294.667 105.869 294.779 105.945 294.903 105.945H295.699C296.002 105.945 296.114 106.342 295.856 106.501L295.304 106.839C295.181 106.915 295.129 107.068 295.181 107.203L295.411 107.802C295.514 108.069 295.219 108.315 294.975 108.165L294.215 107.7C294.119 107.641 293.998 107.641 293.902 107.7L293.142 108.165C292.898 108.315 292.603 108.069 292.706 107.802L292.936 107.203C292.988 107.068 292.936 106.915 292.813 106.839L292.261 106.501C292.003 106.342 292.115 105.945 292.418 105.945H293.214C293.338 105.945 293.45 105.869 293.494 105.753L293.778 105.014Z" fill="#8B5CF6"/>
<path d="M301.089 96.1C301.187 95.8437 301.55 95.8437 301.649 96.1L301.933 96.8387C301.978 96.9545 302.089 97.0309 302.213 97.0309H303.01C303.312 97.0309 303.425 97.4284 303.166 97.5867L302.614 97.9254C302.491 98.001 302.439 98.1538 302.491 98.2888L302.722 98.8877C302.825 99.1554 302.529 99.4012 302.285 99.2512L301.526 98.7855C301.429 98.7265 301.308 98.7265 301.212 98.7855L300.453 99.2512C300.208 99.4012 299.913 99.1554 300.016 98.8877L300.246 98.2888C300.298 98.1538 300.247 98.001 300.123 97.9254L299.571 97.5867C299.313 97.4284 299.425 97.0309 299.728 97.0309H300.524C300.649 97.0309 300.76 96.9545 300.804 96.8387L301.089 96.1Z" fill="#8B5CF6"/>
<path d="M352.261 89.2445C352.359 88.9882 352.722 88.9882 352.821 89.2445L353.47 90.9309C353.514 91.0467 353.626 91.1231 353.75 91.1231H355.727C356.029 91.1231 356.141 91.5206 355.883 91.6788L354.376 92.6032C354.253 92.6788 354.201 92.8317 354.253 92.9667L354.848 94.5132C354.951 94.7809 354.656 95.0267 354.412 94.8767L352.698 93.8254C352.601 93.7663 352.48 93.7663 352.384 93.8254L350.67 94.8767C350.425 95.0267 350.13 94.7809 350.233 94.5132L350.828 92.9667C350.88 92.8317 350.828 92.6788 350.705 92.6032L349.198 91.6788C348.94 91.5206 349.052 91.1231 349.355 91.1231H351.332C351.456 91.1231 351.567 91.0467 351.612 90.9309L352.261 89.2445Z" fill="#8B5CF6"/>
<path d="M344.95 61.1293C345.049 60.873 345.412 60.873 345.51 61.1293L346.524 63.7633C346.569 63.8791 346.68 63.9555 346.804 63.9555H349.961C350.264 63.9555 350.376 64.353 350.118 64.5113L347.656 66.0213C347.533 66.0969 347.481 66.2498 347.533 66.3848L348.493 68.8789C348.596 69.1466 348.301 69.3924 348.056 69.2424L345.387 67.6054C345.291 67.5464 345.17 67.5464 345.073 67.6054L342.404 69.2424C342.16 69.3924 341.865 69.1466 341.968 68.8789L342.928 66.3848C342.98 66.2498 342.928 66.0969 342.804 66.0213L340.343 64.5113C340.085 64.353 340.197 63.9555 340.499 63.9555H343.657C343.781 63.9555 343.892 63.8791 343.937 63.7633L344.95 61.1293Z" fill="#8B5CF6"/>
<path d="M375.816 57.0151C375.915 56.7587 376.277 56.7587 376.376 57.0151L377.572 60.1228C377.617 60.2387 377.728 60.3151 377.852 60.3151H381.599C381.902 60.3151 382.014 60.7125 381.756 60.8708L378.817 62.6737C378.693 62.7493 378.642 62.9022 378.694 63.0372L379.836 66.0052C379.939 66.2729 379.644 66.5186 379.399 66.3686L376.253 64.4388C376.156 64.3798 376.035 64.3798 375.939 64.4388L372.793 66.3686C372.548 66.5186 372.253 66.2729 372.356 66.0052L373.498 63.0372C373.55 62.9022 373.498 62.7493 373.375 62.6737L370.436 60.8708C370.178 60.7125 370.29 60.3151 370.592 60.3151H374.34C374.464 60.3151 374.575 60.2387 374.62 60.1228L375.816 57.0151Z" fill="#8B5CF6"/>
<path d="M355.104 62.4999C355.202 62.2436 355.565 62.2436 355.664 62.4999L356.039 63.4755C356.084 63.5913 356.195 63.6678 356.319 63.6678H357.411C357.714 63.6678 357.826 64.0652 357.568 64.2235L356.777 64.7086C356.653 64.7842 356.602 64.9371 356.654 65.0721L356.975 65.9079C357.078 66.1755 356.783 66.4213 356.539 66.2713L355.541 65.6592C355.444 65.6002 355.323 65.6002 355.227 65.6592L354.229 66.2713C353.984 66.4213 353.689 66.1755 353.792 65.9079L354.114 65.0721C354.166 64.9371 354.114 64.7842 353.991 64.7086L353.2 64.2235C352.942 64.0652 353.054 63.6678 353.357 63.6678H354.448C354.572 63.6678 354.684 63.5913 354.728 63.4755L355.104 62.4999Z" fill="#8B5CF6"/>
<path d="M310.023 155.072C310.122 154.815 310.485 154.815 310.583 155.072L310.868 155.81C310.912 155.926 311.023 156.003 311.148 156.003H311.944C312.247 156.003 312.359 156.4 312.101 156.558L311.549 156.897C311.426 156.973 311.374 157.126 311.426 157.261L311.656 157.859C311.759 158.127 311.464 158.373 311.219 158.223L310.46 157.757C310.364 157.698 310.243 157.698 310.146 157.757L309.387 158.223C309.143 158.373 308.847 158.127 308.95 157.859L309.181 157.261C309.233 157.126 309.181 156.973 309.058 156.897L308.506 156.558C308.248 156.4 308.36 156.003 308.662 156.003H309.459C309.583 156.003 309.694 155.926 309.739 155.81L310.023 155.072Z" fill="#8B5CF6"/>
<path d="M290.936 113.243C291.034 112.987 291.397 112.987 291.496 113.243L291.689 113.745C291.733 113.861 291.845 113.937 291.969 113.937L292.47 113.937C292.773 113.937 292.885 114.335 292.627 114.493L292.314 114.685C292.19 114.761 292.138 114.914 292.19 115.049L292.33 115.411C292.433 115.678 292.137 115.924 291.893 115.774L291.372 115.455C291.276 115.396 291.155 115.396 291.059 115.455L290.538 115.774C290.294 115.924 289.998 115.678 290.101 115.411L290.241 115.049C290.293 114.914 290.241 114.761 290.118 114.685L289.804 114.493C289.546 114.335 289.658 113.937 289.961 113.937L290.462 113.937C290.587 113.937 290.698 113.861 290.742 113.745L290.936 113.243Z" fill="#8B5CF6"/>
<path d="M262.961 107.086C263.06 106.83 263.422 106.83 263.521 107.086L264.079 108.535C264.124 108.651 264.235 108.728 264.359 108.728H266.041C266.343 108.728 266.456 109.125 266.198 109.283L264.929 110.061C264.806 110.137 264.754 110.29 264.806 110.425L265.31 111.734C265.413 112.002 265.118 112.248 264.873 112.098L263.398 111.193C263.302 111.134 263.181 111.134 263.084 111.193L261.609 112.098C261.364 112.248 261.069 112.002 261.172 111.734L261.676 110.425C261.728 110.29 261.676 110.137 261.553 110.061L260.285 109.283C260.027 109.125 260.139 108.728 260.442 108.728H262.123C262.247 108.728 262.359 108.651 262.403 108.535L262.961 107.086Z" fill="#8B5CF6"/>
<path d="M238.445 117.627C238.544 117.371 238.907 117.371 239.005 117.627L239.199 118.129C239.243 118.245 239.354 118.321 239.479 118.321L239.98 118.321C240.283 118.321 240.395 118.719 240.137 118.877L239.823 119.069C239.7 119.145 239.648 119.298 239.7 119.433L239.84 119.795C239.943 120.062 239.647 120.308 239.403 120.158L238.882 119.839C238.786 119.78 238.665 119.78 238.569 119.839L238.048 120.158C237.804 120.308 237.508 120.062 237.611 119.795L237.751 119.433C237.803 119.298 237.751 119.145 237.627 119.069L237.314 118.877C237.056 118.719 237.168 118.321 237.471 118.321L237.972 118.321C238.096 118.321 238.208 118.245 238.252 118.129L238.445 117.627Z" fill="#8B5CF6"/>
<path d="M244.637 93.3588C244.736 93.1025 245.098 93.1025 245.197 93.3588L245.39 93.8606C245.435 93.9764 245.546 94.0528 245.67 94.0528L246.172 94.0528C246.474 94.0528 246.587 94.4503 246.328 94.6085L246.015 94.8008C245.892 94.8764 245.84 95.0293 245.892 95.1643L246.031 95.5263C246.134 95.7939 245.839 96.0397 245.594 95.8897L245.074 95.5705C244.978 95.5115 244.856 95.5115 244.76 95.5705L244.24 95.8897C243.995 96.0397 243.7 95.7939 243.803 95.5263L243.942 95.1643C243.994 95.0293 243.942 94.8764 243.819 94.8008L243.506 94.6085C243.247 94.4503 243.36 94.0528 243.662 94.0528L244.164 94.0528C244.288 94.0528 244.399 93.9764 244.444 93.8606L244.637 93.3588Z" fill="#8B5CF6"/>
<path d="M69.5964 137.244C69.695 136.987 70.0577 136.987 70.1563 137.244L70.9877 139.404C71.0323 139.52 71.1436 139.596 71.2677 139.596H73.8347C74.1375 139.596 74.2496 139.993 73.9916 140.152L72.0071 141.369C71.8838 141.445 71.832 141.597 71.884 141.732L72.6616 143.753C72.7646 144.02 72.4692 144.266 72.2247 144.116L70.0332 142.772C69.937 142.713 69.8158 142.713 69.7195 142.772L67.528 144.116C67.2835 144.266 66.9882 144.02 67.0912 143.753L67.8688 141.732C67.9207 141.597 67.8689 141.445 67.7456 141.369L65.7612 140.152C65.5031 139.993 65.6153 139.596 65.918 139.596H68.485C68.6091 139.596 68.7204 139.52 68.765 139.404L69.5964 137.244Z" fill="#8B5CF6"/>
<path d="M149.902 60.5297C150 60.2734 150.363 60.2734 150.462 60.5297L151.567 63.4006C151.611 63.5164 151.722 63.5928 151.847 63.5928H155.299C155.601 63.5928 155.714 63.9903 155.456 64.1486L152.755 65.805C152.632 65.8807 152.58 66.0335 152.632 66.1685L153.683 68.8996C153.786 69.1673 153.491 69.413 153.246 69.2631L150.338 67.4796C150.242 67.4206 150.121 67.4206 150.025 67.4796L147.117 69.2631C146.873 69.413 146.577 69.1673 146.68 68.8996L147.731 66.1685C147.783 66.0335 147.732 65.8807 147.608 65.805L144.908 64.1486C144.65 63.9903 144.762 63.5928 145.065 63.5928H148.517C148.641 63.5928 148.752 63.5164 148.797 63.4006L149.902 60.5297Z" fill="#8B5CF6"/>
<path d="M201.182 72.0995C201.28 71.8432 201.643 71.8432 201.742 72.0995L202.573 74.2597C202.618 74.3755 202.729 74.4519 202.853 74.4519H205.42C205.723 74.4519 205.835 74.8494 205.577 75.0076L203.592 76.2249C203.469 76.3005 203.417 76.4533 203.469 76.5883L204.247 78.6087C204.35 78.8764 204.055 79.1221 203.81 78.9722L201.619 77.628C201.522 77.5689 201.401 77.5689 201.305 77.628L199.113 78.9722C198.869 79.1221 198.574 78.8764 198.677 78.6087L199.454 76.5883C199.506 76.4533 199.454 76.3005 199.331 76.2249L197.347 75.0076C197.088 74.8494 197.201 74.4519 197.503 74.4519H200.07C200.194 74.4519 200.306 74.3755 200.35 74.2597L201.182 72.0995Z" fill="#8B5CF6"/>
<path d="M135.795 96.7856C135.894 96.5292 136.256 96.5292 136.355 96.7856L136.731 97.7612C136.775 97.877 136.887 97.9534 137.011 97.9534H138.102C138.405 97.9534 138.517 98.3508 138.259 98.5091L137.468 98.9942C137.345 99.0699 137.293 99.2227 137.345 99.3577L137.667 100.193C137.77 100.461 137.474 100.707 137.23 100.557L136.232 99.9449C136.136 99.8859 136.015 99.8859 135.918 99.9449L134.92 100.557C134.676 100.707 134.381 100.461 134.484 100.193L134.805 99.3577C134.857 99.2227 134.805 99.0699 134.682 98.9942L133.891 98.5091C133.633 98.3508 133.745 97.9534 134.048 97.9534H135.14C135.264 97.9534 135.375 97.877 135.42 97.7612L135.795 96.7856Z" fill="#8B5CF6"/>
<path d="M121.175 96.1C121.273 95.8437 121.636 95.8437 121.735 96.1L122.11 97.0756C122.155 97.1914 122.266 97.2679 122.39 97.2679L123.482 97.2679C123.784 97.2679 123.897 97.6653 123.639 97.8236L122.848 98.3087C122.724 98.3843 122.673 98.5372 122.725 98.6722L123.046 99.508C123.149 99.7757 122.854 100.021 122.609 99.8714L121.611 99.2594C121.515 99.2003 121.394 99.2003 121.298 99.2594L120.3 99.8714C120.055 100.021 119.76 99.7757 119.863 99.508L120.185 98.6722C120.237 98.5372 120.185 98.3843 120.062 98.3087L119.271 97.8236C119.013 97.6653 119.125 97.2679 119.427 97.2679L120.519 97.2679C120.643 97.2679 120.755 97.1914 120.799 97.0756L121.175 96.1Z" fill="#8B5CF6"/>
<path d="M250.312 199.646L237.263 176.039C236.863 175.316 237.462 174.465 238.264 174.664C247.157 176.868 252.656 184.643 254.989 189.784C255.34 190.556 256.452 190.662 256.892 189.937L271.296 166.209C271.741 165.476 272.836 165.609 273.075 166.433C278.334 184.552 273.632 193.653 269.031 197.156C268.261 197.743 268.331 199.327 269.21 199.735C273.811 201.869 277.04 205.109 278.849 207.55C279.38 208.267 278.692 209.12 277.843 208.845L250.879 200.114C250.638 200.036 250.435 199.868 250.312 199.646Z" fill="#8B5CF6"/>
<path d="M216.316 190.536C216.415 190.28 216.778 190.28 216.876 190.536L217.708 192.696C217.752 192.812 217.863 192.888 217.988 192.888H220.555C220.857 192.888 220.969 193.286 220.711 193.444L218.727 194.661C218.604 194.737 218.552 194.89 218.604 195.025L219.381 197.045C219.484 197.313 219.189 197.559 218.945 197.409L216.753 196.064C216.657 196.005 216.536 196.005 216.439 196.064L214.248 197.409C214.003 197.559 213.708 197.313 213.811 197.045L214.589 195.025C214.641 194.89 214.589 194.737 214.465 194.661L212.481 193.444C212.223 193.286 212.335 192.888 212.638 192.888H215.205C215.329 192.888 215.44 192.812 215.485 192.696L216.316 190.536Z" fill="#8B5CF6"/>
<path d="M0.961075 72.0995C1.05973 71.8432 1.42238 71.8432 1.52103 72.0995L2.07888 73.5489C2.12345 73.6648 2.23475 73.7412 2.35886 73.7412H4.04066C4.34339 73.7412 4.45557 74.1386 4.19752 74.2969L2.92919 75.0749C2.80588 75.1505 2.7541 75.3033 2.80606 75.4383L3.31009 76.7479C3.41312 77.0156 3.11776 77.2614 2.87326 77.1114L1.39791 76.2065C1.30167 76.1475 1.18044 76.1475 1.0842 76.2065L-0.39115 77.1114C-0.635653 77.2614 -0.93101 77.0156 -0.827983 76.7479L-0.323951 75.4383C-0.271993 75.3033 -0.323769 75.1505 -0.447076 75.0749L-1.71541 74.2969C-1.97346 74.1386 -1.86128 73.7412 -1.55855 73.7412H0.123253C0.24736 73.7412 0.358655 73.6648 0.403233 73.5489L0.961075 72.0995Z" fill="#8B5CF6"/>
<path d="M62.6924 65.2441C62.791 64.9877 63.1537 64.9877 63.2523 65.2441L63.8102 66.6935C63.8547 66.8093 63.966 66.8857 64.0901 66.8857H65.7719C66.0747 66.8857 66.1868 67.2832 65.9288 67.4414L64.6605 68.2194C64.5372 68.295 64.4854 68.4479 64.5373 68.5829L65.0414 69.8925C65.1444 70.1602 64.849 70.4059 64.6045 70.256L63.1292 69.351C63.0329 69.292 62.9117 69.292 62.8155 69.351L61.3401 70.256C61.0956 70.4059 60.8003 70.1602 60.9033 69.8925L61.4073 68.5829C61.4593 68.4479 61.4075 68.295 61.2842 68.2194L60.0159 67.4414C59.7578 67.2832 59.87 66.8857 60.1727 66.8857H61.8545C61.9786 66.8857 62.0899 66.8093 62.1345 66.6935L62.6924 65.2441Z" fill="#8B5CF6"/>
</g>
</g>
</g>
</g>
<defs>
<linearGradient id="paint0_linear_4825_1884" x1="182.5" y1="376" x2="178.5" y2="-111.5" gradientUnits="userSpaceOnUse">
<stop stop-opacity="0"/>
<stop offset="1"/>
</linearGradient>
<clipPath id="clip0_4825_1884">
<rect width="393" height="301" fill="white"/>
</clipPath>
</defs>
</svg>
