<svg width="393" height="282" viewBox="0 0 393 282" fill="none" xmlns="http://www.w3.org/2000/svg">
<g clip-path="url(#clip0_4648_5562)">
<path d="M315.342 211.001C315.404 206.738 312.445 198.079 300.112 197.54C300.484 189.33 287.855 166.178 256.839 182.465C246.763 180.639 244.134 181.536 244.018 182.321C243.712 175.674 239.268 162.235 223.78 160.525C208.179 158.802 200.688 168.421 198.893 173.447C194.064 171.831 182.883 170.243 176.792 176.812C172.706 173.447 164.534 164.294 146.333 165.371C147.819 160.525 146.89 141.142 118.66 146.526C115.688 142.623 104.916 126.335 78.5435 134.277C61.2711 139.479 61.2711 151.703 61.2711 157.833C54.8946 157.294 41.8073 159.663 40.4701 173.447C36.9413 173.447 29.4009 174.9 27.4693 180.715C21.8976 178.965 4.81097 167.928 -16.5473 185.426C-25.8335 193.034 -25.8335 209.071 -25.8335 211.001H315.342Z" fill="#4C1D95"/>
<path d="M367.973 130.516C390.38 121.387 407.994 139.29 414 149.382V211H231.497C230.961 209.124 231.568 203.88 238.276 197.916C246.661 190.461 248.98 192.591 253.975 192.591C253.975 175.429 271.577 170.226 280.378 169.769C279.843 164.647 282.055 153.977 295.185 152.273C311.598 150.143 315.701 158.511 318.734 160.945C324.978 159.271 329.795 160.184 334.434 162.618C341.034 153.946 347.814 155.011 351.382 154.403C351.382 141.318 359.766 133.559 367.973 130.516Z" fill="#4C1D95"/>
<g filter="url(#filter0_d_4648_5562)">
<path d="M32.7719 118.544L37.4702 106.631C37.9039 105.532 38.1206 104.982 38.4527 104.518C38.747 104.107 39.1068 103.747 39.5179 103.453C39.9815 103.121 40.5313 102.904 41.6311 102.47L53.5437 97.7721L41.6311 93.0737C40.5313 92.64 39.9815 92.4233 39.5179 92.0912C39.1068 91.7969 38.747 91.4371 38.4527 91.0261C38.1206 90.5624 37.9039 90.0126 37.4702 88.9129L32.7719 77.0002L28.0735 88.9129C27.6398 90.0126 27.423 90.5624 27.091 91.0261C26.7966 91.4371 26.4368 91.7969 26.0258 92.0912C25.5622 92.4233 25.0124 92.6401 23.9127 93.0737L12 97.7721L23.9127 102.47C25.0124 102.904 25.5622 103.121 26.0258 103.453C26.4368 103.747 26.7966 104.107 27.091 104.518C27.423 104.982 27.6398 105.532 28.0735 106.631L32.7719 118.544Z" fill="#441989"/>
</g>
<g filter="url(#filter1_d_4648_5562)">
<path d="M56.3863 130.772L58.5135 122.871C58.7731 121.907 58.9029 121.425 59.1591 121.031C59.3857 120.682 59.6831 120.385 60.0318 120.158C60.4259 119.902 60.9079 119.772 61.872 119.513L69.7726 117.386L61.872 115.258C60.9079 114.999 60.4259 114.869 60.0318 114.613C59.6831 114.386 59.3857 114.089 59.1591 113.74C58.9029 113.346 58.7731 112.864 58.5135 111.9L56.3863 103.999L54.2591 111.9C53.9995 112.864 53.8697 113.346 53.6136 113.74C53.3868 114.089 53.0895 114.386 52.7408 114.613C52.3468 114.869 51.8647 114.999 50.9006 115.258L43 117.386L50.9006 119.513C51.8647 119.772 52.3468 119.902 52.7408 120.158C53.0895 120.385 53.3868 120.682 53.6136 121.031C53.8697 121.425 53.9995 121.907 54.2591 122.871L56.3863 130.772Z" fill="#441989"/>
</g>
<g filter="url(#filter2_d_4648_5562)">
<path d="M244.386 155.774L246.514 147.873C246.773 146.909 246.903 146.427 247.159 146.033C247.386 145.684 247.683 145.387 248.032 145.16C248.426 144.904 248.908 144.774 249.872 144.515L257.773 142.388L249.872 140.26C248.908 140.001 248.426 139.871 248.032 139.615C247.683 139.388 247.386 139.091 247.159 138.742C246.903 138.348 246.773 137.866 246.514 136.902L244.386 129.001L242.259 136.902C242 137.866 241.87 138.348 241.614 138.742C241.387 139.091 241.09 139.388 240.741 139.615C240.347 139.871 239.865 140.001 238.901 140.26L231 142.388L238.901 144.515C239.865 144.774 240.347 144.904 240.741 145.16C241.09 145.387 241.387 145.684 241.614 146.033C241.87 146.427 242 146.909 242.259 147.873L244.386 155.774Z" fill="#441989"/>
</g>
<path fill-rule="evenodd" clip-rule="evenodd" d="M396.391 211.001H414V282.001H-21V211.001H-12V153.842C-7.05826 144.316 7.43423 127.419 25.8703 136.035C32.6224 138.907 39.5213 146.231 39.5213 158.581C40.007 158.676 40.5651 158.727 41.1828 158.785C44.2987 159.074 48.9334 159.504 53.4658 166.335C57.2822 164.038 61.2453 163.176 66.3828 164.756C66.803 164.369 67.2482 163.823 67.7625 163.192L67.7625 163.192C70.3024 160.079 74.5283 154.898 85.7583 156.57C96.5616 158.179 98.3817 168.25 97.9414 173.084C105.183 173.515 119.665 178.426 119.665 194.625C120.445 194.625 121.145 194.552 121.815 194.483C124.548 194.201 126.78 193.971 131.837 198.906C133.23 198.226 134.873 197.778 136.805 197.666C136.509 188.922 146.567 164.267 171.269 181.611C179.294 179.667 181.388 180.622 181.48 181.459C181.724 174.379 185.263 160.068 197.598 158.246C210.023 156.412 215.989 166.656 217.419 172.007C221.265 170.287 230.17 168.596 235.021 175.591C235.357 175.221 235.728 174.785 236.139 174.302L236.14 174.301C239.706 170.109 246.282 162.379 259.28 163.407C258.096 158.246 258.836 137.605 281.319 143.339C281.416 143.169 281.524 142.976 281.642 142.764C284.41 137.803 293.126 122.183 313.269 130.295C327.025 135.834 327.025 148.852 327.025 155.38C332.104 154.806 342.527 157.329 343.592 172.007C346.402 172.007 352.408 173.555 353.946 179.748C354.517 179.508 355.24 179.104 356.103 178.622C361.943 175.362 374.181 168.529 389.002 184.765C395.681 192.081 396.328 206.718 396.391 211.001Z" fill="#8B5CF6"/>
</g>
<defs>
<filter id="filter0_d_4648_5562" x="-68.3" y="-3.3" width="202.144" height="202.144" filterUnits="userSpaceOnUse" color-interpolation-filters="sRGB">
<feFlood flood-opacity="0" result="BackgroundImageFix"/>
<feColorMatrix in="SourceAlpha" type="matrix" values="0 0 0 0 0 0 0 0 0 0 0 0 0 0 0 0 0 0 127 0" result="hardAlpha"/>
<feOffset/>
<feGaussianBlur stdDeviation="40.15"/>
<feComposite in2="hardAlpha" operator="out"/>
<feColorMatrix type="matrix" values="0 0 0 0 1 0 0 0 0 1 0 0 0 0 1 0 0 0 1 0"/>
<feBlend mode="normal" in2="BackgroundImageFix" result="effect1_dropShadow_4648_5562"/>
<feBlend mode="normal" in="SourceGraphic" in2="effect1_dropShadow_4648_5562" result="shape"/>
</filter>
<filter id="filter1_d_4648_5562" x="-37.3" y="23.6995" width="187.372" height="187.372" filterUnits="userSpaceOnUse" color-interpolation-filters="sRGB">
<feFlood flood-opacity="0" result="BackgroundImageFix"/>
<feColorMatrix in="SourceAlpha" type="matrix" values="0 0 0 0 0 0 0 0 0 0 0 0 0 0 0 0 0 0 127 0" result="hardAlpha"/>
<feOffset/>
<feGaussianBlur stdDeviation="40.15"/>
<feComposite in2="hardAlpha" operator="out"/>
<feColorMatrix type="matrix" values="0 0 0 0 1 0 0 0 0 1 0 0 0 0 1 0 0 0 1 0"/>
<feBlend mode="normal" in2="BackgroundImageFix" result="effect1_dropShadow_4648_5562"/>
<feBlend mode="normal" in="SourceGraphic" in2="effect1_dropShadow_4648_5562" result="shape"/>
</filter>
<filter id="filter2_d_4648_5562" x="150.7" y="48.7015" width="187.372" height="187.372" filterUnits="userSpaceOnUse" color-interpolation-filters="sRGB">
<feFlood flood-opacity="0" result="BackgroundImageFix"/>
<feColorMatrix in="SourceAlpha" type="matrix" values="0 0 0 0 0 0 0 0 0 0 0 0 0 0 0 0 0 0 127 0" result="hardAlpha"/>
<feOffset/>
<feGaussianBlur stdDeviation="40.15"/>
<feComposite in2="hardAlpha" operator="out"/>
<feColorMatrix type="matrix" values="0 0 0 0 1 0 0 0 0 1 0 0 0 0 1 0 0 0 1 0"/>
<feBlend mode="normal" in2="BackgroundImageFix" result="effect1_dropShadow_4648_5562"/>
<feBlend mode="normal" in="SourceGraphic" in2="effect1_dropShadow_4648_5562" result="shape"/>
</filter>
<clipPath id="clip0_4648_5562">
<rect width="393" height="282" fill="white"/>
</clipPath>
</defs>
</svg>
