<svg width="200" height="190" viewBox="0 0 200 190" fill="none" xmlns="http://www.w3.org/2000/svg">
<g filter="url(#filter0_d_4550_2328)">
<path d="M75.5255 100.219L76.2446 102.89C76.3324 103.216 76.3763 103.379 76.4629 103.512C76.5395 103.63 76.64 103.73 76.7579 103.807C76.8911 103.893 77.0541 103.937 77.38 104.025L80.051 104.744L77.38 105.463C77.0541 105.551 76.8911 105.595 76.7579 105.682C76.64 105.758 76.5395 105.859 76.4629 105.977C76.3763 106.11 76.3324 106.273 76.2446 106.599L75.5255 109.27L74.8063 106.599C74.7186 106.273 74.6747 106.11 74.5881 105.977C74.5114 105.859 74.4109 105.758 74.2931 105.682C74.1598 105.595 73.9969 105.551 73.6709 105.463L71 104.744L73.6709 104.025C73.9969 103.937 74.1598 103.893 74.2931 103.807C74.4109 103.73 74.5114 103.63 74.5881 103.512C74.6747 103.379 74.7186 103.216 74.8063 102.89L75.5255 100.219Z" fill="#F9FAFB"/>
</g>
<g filter="url(#filter1_d_4550_2328)">
<path d="M112.982 81.2004L115.379 82.5805C115.672 82.7489 115.818 82.8331 115.974 82.8661C116.111 82.8953 116.253 82.8953 116.391 82.8661C116.546 82.8331 116.693 82.7489 116.985 82.5805L119.382 81.2004L118.002 83.5975C117.834 83.8901 117.749 84.0363 117.717 84.1918C117.687 84.3293 117.687 84.4715 117.717 84.609C117.749 84.7644 117.834 84.9107 118.002 85.2032L119.382 87.6004L116.985 86.2203C116.693 86.0518 116.546 85.9676 116.391 85.9347C116.253 85.9055 116.111 85.9055 115.974 85.9347C115.818 85.9676 115.672 86.0518 115.379 86.2203L112.982 87.6004L114.362 85.2032C114.531 84.9107 114.615 84.7644 114.648 84.609C114.677 84.4715 114.677 84.3293 114.648 84.1918C114.615 84.0363 114.531 83.8901 114.362 83.5976L112.982 81.2004Z" fill="#F9FAFB"/>
</g>
<path d="M91.9747 102.019C89.0116 97.802 90.4377 93.3354 91.5212 91.6293C91.8991 91.0341 92.4433 89.7347 93.1085 90.407C97.2659 95.5254 97.7194 100.949 97.6438 102.554C99.9871 99.4216 108.377 96.6714 109.662 96.6714C107.727 101.988 102.809 104.489 100.592 105.075C101.272 105.202 102.481 105.61 101.877 106.221C99.9417 108.91 96.2832 109.99 94.6959 110.193L95.3006 106.526C94.3935 107.137 92.3677 108.36 91.5212 108.36C89.7675 105.854 89.8834 103.445 90.1606 102.554C90.3621 102.376 91.0072 102.019 91.9747 102.019Z" fill="#F9FAFB" stroke="#F9FAFB"/>
<defs>
<filter id="filter0_d_4550_2328" x="-9.3" y="19.9187" width="169.651" height="169.651" filterUnits="userSpaceOnUse" color-interpolation-filters="sRGB">
<feFlood flood-opacity="0" result="BackgroundImageFix"/>
<feColorMatrix in="SourceAlpha" type="matrix" values="0 0 0 0 0 0 0 0 0 0 0 0 0 0 0 0 0 0 127 0" result="hardAlpha"/>
<feOffset/>
<feGaussianBlur stdDeviation="40.15"/>
<feComposite in2="hardAlpha" operator="out"/>
<feColorMatrix type="matrix" values="0 0 0 0 1 0 0 0 0 1 0 0 0 0 1 0 0 0 1 0"/>
<feBlend mode="normal" in2="BackgroundImageFix" result="effect1_dropShadow_4550_2328"/>
<feBlend mode="normal" in="SourceGraphic" in2="effect1_dropShadow_4550_2328" result="shape"/>
</filter>
<filter id="filter1_d_4550_2328" x="32.6824" y="0.900436" width="167" height="167" filterUnits="userSpaceOnUse" color-interpolation-filters="sRGB">
<feFlood flood-opacity="0" result="BackgroundImageFix"/>
<feColorMatrix in="SourceAlpha" type="matrix" values="0 0 0 0 0 0 0 0 0 0 0 0 0 0 0 0 0 0 127 0" result="hardAlpha"/>
<feOffset/>
<feGaussianBlur stdDeviation="40.15"/>
<feComposite in2="hardAlpha" operator="out"/>
<feColorMatrix type="matrix" values="0 0 0 0 1 0 0 0 0 1 0 0 0 0 1 0 0 0 1 0"/>
<feBlend mode="normal" in2="BackgroundImageFix" result="effect1_dropShadow_4550_2328"/>
<feBlend mode="normal" in="SourceGraphic" in2="effect1_dropShadow_4550_2328" result="shape"/>
</filter>
</defs>
</svg>
