<svg width="393" height="273" viewBox="0 0 393 273" fill="none" xmlns="http://www.w3.org/2000/svg">
<g opacity="0.4">
<mask id="mask0_4648_2746" style="mask-type:alpha" maskUnits="userSpaceOnUse" x="0" y="0" width="393" height="273">
<rect width="393" height="273" rx="24" fill="url(#paint0_linear_4648_2746)"/>
</mask>
<g mask="url(#mask0_4648_2746)">
<g opacity="0.4">
<path d="M302.087 88.2753L288.051 57.0146C287.589 55.9847 286.041 56.3904 286.143 57.5147L289 88.9416C289.035 89.3309 289.295 89.6639 289.663 89.794L293.044 90.9873C293.919 91.296 293.985 92.6439 293.238 93.1933C290.099 95.5003 287.955 99.4588 286.783 102.501C286.455 103.352 287.378 104.04 288.143 103.543L298.985 96.5112C299.571 96.1311 300.356 96.4535 300.505 97.1357L303.198 109.403C303.379 110.228 304.388 110.428 304.741 109.66C306.528 105.767 306.369 100.088 305.872 96.3922C305.766 95.6051 306.549 94.9639 307.287 95.2589L312.631 97.3965C313.008 97.5473 313.438 97.4553 313.721 97.1637L332.963 77.2907C333.733 76.4954 332.831 75.2237 331.826 75.6869L303.417 88.7739C302.912 89.0066 302.314 88.7826 302.087 88.2753Z" fill="#8B5CF6"/>
<path d="M209.845 90.7796L168.987 62.2821C168.08 61.6494 168.719 60.2298 169.794 60.49L224.283 73.6783C224.67 73.772 225.076 73.6272 225.316 73.3096L278.709 2.7155C279.385 1.82252 280.793 2.54455 280.462 3.61419L259.23 72.2655C259.148 72.5302 258.96 72.749 258.711 72.8699L249.207 77.4776C248.335 77.9007 248.515 79.1937 249.47 79.3622L270.031 82.9907C270.927 83.1488 271.145 84.2997 270.343 84.7285C258.427 91.0981 244.734 88.5127 237.337 85.6431C236.477 85.3094 235.562 86.1946 235.888 87.0577C240.081 98.1381 240.484 106.765 239.959 111.365C239.857 112.256 238.774 112.402 238.348 111.612L224.223 85.4297C223.969 84.9582 223.388 84.7709 222.906 85.0049L210.854 90.8589C210.528 91.0172 210.142 90.9869 209.845 90.7796Z" fill="#8B5CF6"/>
<path d="M143.404 71.1564L130.925 60.2375C130.228 59.6277 129.179 60.2123 129.38 61.1162C131.313 69.8043 136.035 72.9456 139.56 73.6845C140.433 73.8673 141.036 75.0499 140.617 75.8367C138.684 79.4684 140.108 82.1032 141.705 83.4847C142.19 83.9051 142.897 83.6123 143.07 82.9936L144.833 76.6976C145.063 75.8744 146.154 75.7012 146.628 76.4125L149.952 81.3992C150.351 81.9978 151.236 81.9871 151.522 81.3268C152.829 78.3038 151.481 76.1106 149.751 74.7656C149.013 74.1917 149.013 72.7069 149.769 72.1562C153.726 69.2723 154.11 64.1575 153.563 60.5622C153.435 59.7225 152.39 59.5522 151.924 60.262L144.898 70.953C144.565 71.4601 143.86 71.556 143.404 71.1564Z" fill="#8B5CF6"/>
<path d="M120.68 141.727L104.277 123.316C103.666 122.629 102.552 123.067 102.603 123.985C103.284 136.114 108.62 142.919 112.823 145.931C113.618 146.501 113.483 148.12 112.623 148.587C109.071 150.514 108.628 153.621 109.061 155.804C109.19 156.456 109.96 156.656 110.478 156.239L119.722 148.784C120.376 148.256 121.35 148.722 121.35 149.562V155.839C121.35 156.582 122.135 157.06 122.726 156.609C125.749 154.303 125.048 151.04 123.812 148.834C123.445 148.179 123.77 147.279 124.489 147.062C133.505 144.34 136.483 135.937 137.01 130.443C137.092 129.591 136.113 129.155 135.478 129.728L122.097 141.804C121.685 142.176 121.049 142.141 120.68 141.727Z" fill="#8B5CF6"/>
<path d="M145.036 198.24V192.54C145.036 191.535 143.72 191.158 143.188 192.01L137.965 200.367C137.642 200.882 136.939 200.993 136.473 200.602L129.964 195.135C129.237 194.524 128.211 195.166 128.541 196.056C130.082 200.205 132.606 201.873 134.379 202.344C134.938 202.493 135.396 202.987 135.408 203.565C135.464 206.274 136.498 207.652 137.468 208.255C137.974 208.57 138.507 208.119 138.507 207.523V205.193C138.507 204.382 139.421 203.908 140.083 204.376L144.137 207.237C144.619 207.577 145.306 207.415 145.355 206.827C145.491 205.195 144.212 203.315 143.087 202.085C142.702 201.663 142.685 201.005 143.089 200.601L144.743 198.947C144.93 198.76 145.036 198.505 145.036 198.24Z" fill="#8B5CF6"/>
<path d="M23.9244 220.567L32.5948 157.793C32.7493 156.675 34.3495 156.629 34.5667 157.738L48.1143 226.865C48.2489 227.552 49.0288 227.891 49.6231 227.522L114.472 187.259C115.381 186.695 116.421 187.758 115.837 188.654L85.5885 235.083C85.3877 235.391 85.0341 235.564 84.6676 235.534L64.5925 233.861C63.7093 233.787 63.1655 234.832 63.6875 235.548C72.9594 248.269 68.5275 259.676 64.317 264.857C63.8792 265.396 63.0519 265.263 62.7501 264.638L48.0275 234.141C47.6855 233.432 46.6973 233.378 46.2796 234.045L30.1698 259.752C29.7482 260.424 28.7505 260.354 28.4475 259.62C21.2802 242.254 30.822 232.407 38.4433 228.627C39.2931 228.206 39.275 226.871 38.3812 226.553L24.58 221.646C24.1333 221.487 23.8595 221.036 23.9244 220.567Z" fill="#8B5CF6"/>
<path d="M216.954 157.286C217.044 157.009 217.435 157.009 217.524 157.286L217.689 157.793C217.729 157.916 217.844 158 217.974 158H218.507C218.798 158 218.919 158.372 218.684 158.543L218.253 158.856C218.147 158.932 218.103 159.068 218.144 159.191L218.308 159.698C218.398 159.975 218.082 160.204 217.847 160.034L217.415 159.72C217.31 159.644 217.168 159.644 217.063 159.72L216.632 160.034C216.397 160.204 216.08 159.975 216.17 159.698L216.335 159.191C216.375 159.068 216.331 158.932 216.226 158.856L215.795 158.543C215.559 158.372 215.68 158 215.971 158H216.504C216.634 158 216.749 157.916 216.789 157.793L216.954 157.286Z" fill="#8B5CF6"/>
<path d="M213.507 138.961C213.597 138.684 213.988 138.684 214.078 138.961L214.846 141.325C214.886 141.449 215.001 141.532 215.131 141.532H217.617C217.908 141.532 218.029 141.904 217.794 142.075L215.782 143.536C215.677 143.613 215.633 143.748 215.673 143.872L216.442 146.236C216.531 146.513 216.215 146.743 215.98 146.572L213.969 145.11C213.863 145.034 213.721 145.034 213.616 145.11L211.605 146.572C211.369 146.743 211.053 146.513 211.143 146.236L211.911 143.872C211.951 143.748 211.907 143.613 211.802 143.536L209.791 142.075C209.556 141.904 209.677 141.532 209.967 141.532H212.453C212.583 141.532 212.699 141.449 212.739 141.325L213.507 138.961Z" fill="#8B5CF6"/>
<path d="M239.09 133.057C239.18 132.78 239.571 132.78 239.661 133.057L240.429 135.421C240.469 135.545 240.584 135.629 240.714 135.629H243.201C243.491 135.629 243.612 136.001 243.377 136.171L241.366 137.633C241.26 137.709 241.216 137.844 241.257 137.968L242.025 140.333C242.115 140.609 241.798 140.839 241.563 140.668L239.552 139.207C239.447 139.13 239.304 139.13 239.199 139.207L237.188 140.668C236.953 140.839 236.636 140.609 236.726 140.333L237.494 137.968C237.535 137.844 237.491 137.709 237.385 137.633L235.374 136.171C235.139 136.001 235.26 135.629 235.55 135.629H238.037C238.167 135.629 238.282 135.545 238.322 135.421L239.09 133.057Z" fill="#8B5CF6"/>
<path d="M265.365 238.665L252.902 211.958C252.561 211.227 253.181 210.431 253.955 210.658C262.288 213.099 267.471 221.668 269.714 227.428C270.042 228.272 271.266 228.375 271.68 227.569L285.096 201.391C285.513 200.577 286.704 200.708 286.92 201.596C291.96 222.314 287.16 232.463 282.719 236.148C282.015 236.732 282.074 238.133 282.884 238.559C287.519 240.997 290.727 244.859 292.456 247.683C292.919 248.439 292.175 249.249 291.347 248.931L265.913 239.176C265.672 239.083 265.475 238.9 265.365 238.665Z" fill="#8B5CF6"/>
<path d="M29.5326 95.8342C29.6224 95.5578 30.0134 95.5578 30.1032 95.8342L30.6128 97.4025C30.653 97.5261 30.7682 97.6098 30.8982 97.6098H32.5472C32.8379 97.6098 32.9587 97.9817 32.7236 98.1525L31.3894 99.1219C31.2843 99.1982 31.2403 99.3337 31.2805 99.4573L31.7901 101.026C31.8799 101.302 31.5635 101.532 31.3284 101.361L29.9943 100.392C29.8891 100.315 29.7467 100.315 29.6416 100.392L28.3074 101.361C28.0723 101.532 27.756 101.302 27.8458 101.026L28.3554 99.4573C28.3956 99.3337 28.3516 99.1982 28.2464 99.1219L26.9123 98.1525C26.6772 97.9817 26.798 97.6098 27.0886 97.6098H28.7377C28.8677 97.6098 28.9828 97.5261 29.023 97.4025L29.5326 95.8342Z" fill="#8B5CF6"/>
</g>
</g>
</g>
<defs>
<linearGradient id="paint0_linear_4648_2746" x1="196" y1="57.9583" x2="196" y2="322.833" gradientUnits="userSpaceOnUse">
<stop/>
<stop offset="1" stop-opacity="0"/>
</linearGradient>
</defs>
</svg>
