<svg width="393" height="201" viewBox="0 0 393 201" fill="none" xmlns="http://www.w3.org/2000/svg">
<g opacity="0.4">
<mask id="mask0_4640_2325" style="mask-type:alpha" maskUnits="userSpaceOnUse" x="0" y="-45" width="393" height="252">
<rect y="-45" width="393" height="252" rx="24" fill="url(#paint0_linear_4640_2325)"/>
</mask>
<g mask="url(#mask0_4640_2325)">
<g opacity="0.4">
<path d="M302.087 43.2753L288.051 12.0146C287.589 10.9847 286.041 11.3904 286.143 12.5147L289 43.9416C289.036 44.3309 289.295 44.6639 289.663 44.794L293.044 45.9873C293.919 46.296 293.985 47.6439 293.238 48.1933C290.099 50.5003 287.955 54.4588 286.783 57.5011C286.456 58.3523 287.378 59.0397 288.143 58.5434L298.985 51.5112C299.571 51.1311 300.356 51.4535 300.506 52.1357L303.198 64.4027C303.38 65.2281 304.388 65.4277 304.741 64.6598C306.528 60.7673 306.369 55.0878 305.872 51.3922C305.767 50.6051 306.55 49.9639 307.287 50.2589L312.631 52.3965C313.008 52.5473 313.439 52.4553 313.721 52.1637L332.963 32.2907C333.733 31.4954 332.832 30.2237 331.826 30.6869L303.418 43.7739C302.912 44.0066 302.315 43.7826 302.087 43.2753Z" fill="#8B5CF6"/>
<path d="M209.845 45.7796L168.987 17.2821C168.08 16.6494 168.719 15.2298 169.794 15.49L224.283 28.6783C224.67 28.772 225.076 28.6272 225.316 28.3096L278.709 -42.2845C279.385 -43.1775 280.793 -42.4555 280.462 -41.3858L259.23 27.2655C259.148 27.5302 258.96 27.749 258.711 27.8699L249.207 32.4776C248.335 32.9007 248.515 34.1937 249.47 34.3622L270.031 37.9907C270.927 38.1488 271.145 39.2997 270.343 39.7285C258.427 46.0981 244.734 43.5127 237.337 40.6431C236.477 40.3094 235.562 41.1946 235.888 42.0577C240.081 53.1381 240.484 61.7652 239.959 66.3652C239.857 67.2563 238.774 67.4016 238.348 66.6123L224.223 40.4297C223.969 39.9582 223.388 39.7709 222.906 40.0049L210.854 45.8589C210.528 46.0172 210.142 45.9869 209.845 45.7796Z" fill="#8B5CF6"/>
<path d="M143.404 26.1564L130.925 15.2375C130.228 14.6277 129.179 15.2123 129.38 16.1162C131.314 24.8043 136.035 27.9456 139.561 28.6845C140.433 28.8673 141.036 30.0499 140.617 30.8367C138.684 34.4684 140.109 37.1032 141.705 38.4847C142.191 38.9051 142.897 38.6123 143.07 37.9936L144.833 31.6976C145.063 30.8744 146.154 30.7012 146.628 31.4125L149.952 36.3992C150.351 36.9978 151.236 36.9871 151.522 36.3268C152.829 33.3038 151.481 31.1106 149.751 29.7656C149.013 29.1917 149.014 27.7069 149.769 27.1562C153.726 24.2723 154.11 19.1575 153.563 15.5622C153.435 14.7225 152.39 14.5522 151.924 15.262L144.898 25.953C144.565 26.4601 143.861 26.556 143.404 26.1564Z" fill="#8B5CF6"/>
<path d="M120.68 96.7268L104.277 78.3155C103.666 77.6294 102.552 78.0673 102.603 78.9848C103.284 91.1144 108.62 97.9192 112.823 100.931C113.618 101.501 113.483 103.12 112.623 103.587C109.072 105.514 108.628 108.621 109.061 110.804C109.19 111.456 109.96 111.656 110.478 111.239L119.722 103.784C120.376 103.256 121.35 103.722 121.35 104.562V110.839C121.35 111.582 122.135 112.06 122.726 111.609C125.749 109.303 125.048 106.04 123.812 103.834C123.445 103.179 123.77 102.279 124.489 102.062C133.505 99.3401 136.483 90.9374 137.01 85.4426C137.092 84.5914 136.113 84.1551 135.478 84.728L122.097 96.804C121.685 97.1757 121.049 97.141 120.68 96.7268Z" fill="#8B5CF6"/>
<path d="M145.036 153.24V147.54C145.036 146.535 143.72 146.158 143.188 147.01L137.965 155.367C137.642 155.882 136.939 155.993 136.473 155.602L129.964 150.135C129.237 149.524 128.211 150.166 128.541 151.056C130.082 155.205 132.606 156.873 134.379 157.344C134.938 157.493 135.396 157.987 135.408 158.565C135.464 161.274 136.498 162.652 137.468 163.255C137.974 163.57 138.507 163.119 138.507 162.523V160.193C138.507 159.382 139.421 158.908 140.084 159.376L144.137 162.237C144.619 162.577 145.306 162.415 145.355 161.827C145.491 160.195 144.212 158.315 143.088 157.085C142.702 156.663 142.685 156.005 143.089 155.601L144.743 153.947C144.931 153.76 145.036 153.505 145.036 153.24Z" fill="#8B5CF6"/>
<path d="M23.9246 175.567L32.595 112.793C32.7495 111.675 34.3498 111.629 34.5669 112.738L48.1145 181.865C48.2491 182.552 49.029 182.891 49.6234 182.522L114.472 142.259C115.381 141.695 116.421 142.758 115.838 143.654L85.5887 190.083C85.3879 190.391 85.0343 190.564 84.6678 190.534L64.5927 188.861C63.7095 188.787 63.1657 189.832 63.6877 190.548C72.9596 203.269 68.5277 214.676 64.3172 219.857C63.8794 220.396 63.0521 220.263 62.7503 219.638L48.0277 189.141C47.6857 188.432 46.6975 188.378 46.2798 189.045L30.17 214.752C29.7484 215.424 28.7507 215.354 28.4478 214.62C21.2805 197.254 30.8222 187.407 38.4435 183.627C39.2933 183.206 39.2752 181.871 38.3815 181.553L24.5802 176.646C24.1335 176.487 23.8597 176.036 23.9246 175.567Z" fill="#8B5CF6"/>
<path d="M216.954 112.286C217.044 112.009 217.435 112.009 217.524 112.286L217.689 112.793C217.729 112.916 217.845 113 217.974 113H218.507C218.798 113 218.919 113.372 218.684 113.543L218.253 113.856C218.147 113.932 218.103 114.068 218.144 114.191L218.308 114.698C218.398 114.975 218.082 115.204 217.847 115.034L217.416 114.72C217.31 114.644 217.168 114.644 217.063 114.72L216.632 115.034C216.397 115.204 216.08 114.975 216.17 114.698L216.335 114.191C216.375 114.068 216.331 113.932 216.226 113.856L215.795 113.543C215.559 113.372 215.68 113 215.971 113H216.504C216.634 113 216.749 112.916 216.789 112.793L216.954 112.286Z" fill="#8B5CF6"/>
<path d="M213.507 93.9606C213.597 93.6842 213.988 93.6842 214.078 93.9606L214.846 96.3251C214.886 96.4488 215.001 96.5324 215.131 96.5324H217.617C217.908 96.5324 218.029 96.9043 217.794 97.0751L215.782 98.5365C215.677 98.6129 215.633 98.7483 215.673 98.8719L216.442 101.236C216.532 101.513 216.215 101.743 215.98 101.572L213.969 100.11C213.864 100.034 213.721 100.034 213.616 100.11L211.605 101.572C211.37 101.743 211.053 101.513 211.143 101.236L211.911 98.8719C211.951 98.7483 211.907 98.6129 211.802 98.5365L209.791 97.0751C209.556 96.9043 209.677 96.5324 209.967 96.5324H212.453C212.583 96.5324 212.699 96.4488 212.739 96.3251L213.507 93.9606Z" fill="#8B5CF6"/>
<path d="M239.09 88.0568C239.18 87.7804 239.571 87.7804 239.661 88.0568L240.429 90.4213C240.469 90.5449 240.585 90.6286 240.714 90.6286H243.201C243.491 90.6286 243.612 91.0005 243.377 91.1713L241.366 92.6327C241.261 92.7091 241.217 92.8445 241.257 92.9681L242.025 95.3326C242.115 95.609 241.798 95.8388 241.563 95.668L239.552 94.2067C239.447 94.1303 239.304 94.1303 239.199 94.2067L237.188 95.668C236.953 95.8388 236.636 95.609 236.726 95.3326L237.495 92.9681C237.535 92.8445 237.491 92.7091 237.386 92.6327L235.374 91.1713C235.139 91.0005 235.26 90.6286 235.55 90.6286H238.037C238.167 90.6286 238.282 90.5449 238.322 90.4213L239.09 88.0568Z" fill="#8B5CF6"/>
<path d="M265.365 193.665L252.902 166.958C252.561 166.227 253.181 165.431 253.955 165.658C262.288 168.099 267.471 176.668 269.714 182.428C270.042 183.272 271.267 183.375 271.68 182.569L285.096 156.391C285.513 155.577 286.704 155.708 286.92 156.596C291.96 177.314 287.16 187.463 282.719 191.148C282.015 191.732 282.074 193.133 282.884 193.559C287.519 195.997 290.727 199.859 292.456 202.683C292.919 203.439 292.175 204.249 291.347 203.931L265.914 194.176C265.672 194.083 265.475 193.9 265.365 193.665Z" fill="#8B5CF6"/>
<path d="M29.5326 50.8342C29.6224 50.5578 30.0134 50.5578 30.1032 50.8342L30.6128 52.4025C30.653 52.5261 30.7682 52.6098 30.8981 52.6098H32.5472C32.8378 52.6098 32.9587 52.9817 32.7235 53.1525L31.3894 54.1219C31.2843 54.1982 31.2403 54.3337 31.2804 54.4573L31.79 56.0256C31.8798 56.302 31.5635 56.5319 31.3284 56.361L29.9942 55.3917C29.8891 55.3153 29.7467 55.3153 29.6416 55.3917L28.3074 56.361C28.0723 56.5319 27.756 56.302 27.8458 56.0256L28.3554 54.4573C28.3955 54.3337 28.3515 54.1982 28.2464 54.1219L26.9122 53.1525C26.6771 52.9817 26.798 52.6098 27.0886 52.6098H28.7377C28.8676 52.6098 28.9828 52.5261 29.023 52.4025L29.5326 50.8342Z" fill="#8B5CF6"/>
<path d="M5.72105 41.6169C5.81086 41.3405 6.20188 41.3405 6.29168 41.6169L6.80128 43.1853C6.84144 43.3089 6.95663 43.3926 7.0866 43.3926H8.73569C9.0263 43.3926 9.14714 43.7644 8.91202 43.9353L7.57788 44.9046C7.47274 44.981 7.42874 45.1164 7.4689 45.24L7.9785 46.8084C8.0683 47.0848 7.75196 47.3146 7.51684 47.1438L6.1827 46.1745C6.07756 46.0981 5.93518 46.0981 5.83003 46.1745L4.49589 47.1438C4.26078 47.3146 3.94443 47.0847 4.03424 46.8084L4.54384 45.24C4.584 45.1164 4.54 44.981 4.43485 44.9046L3.10071 43.9353C2.8656 43.7644 2.98643 43.3926 3.27705 43.3926H4.92614C5.05611 43.3926 5.17129 43.3089 5.21145 43.1853L5.72105 41.6169Z" fill="#8B5CF6"/>
</g>
</g>
</g>
<defs>
<linearGradient id="paint0_linear_4640_2325" x1="196" y1="8.50001" x2="196" y2="253" gradientUnits="userSpaceOnUse">
<stop/>
<stop offset="1" stop-opacity="0"/>
</linearGradient>
</defs>
</svg>
