<svg width="170" height="170" viewBox="0 0 170 170" fill="none" xmlns="http://www.w3.org/2000/svg">
<g filter="url(#filter0_d_4550_2327)">
<path d="M82.9192 81.2627L84.8775 83.2162C85.1164 83.4546 85.2359 83.5738 85.3775 83.6458C85.5028 83.7096 85.6401 83.7464 85.7806 83.7538C85.9392 83.7622 86.1023 83.7187 86.4284 83.6318L89.1011 82.9191L87.1476 84.8774C86.9092 85.1163 86.79 85.2358 86.7179 85.3774C86.6541 85.5027 86.6173 85.64 86.6099 85.7805C86.6015 85.9391 86.645 86.1022 86.732 86.4283L87.4447 89.101L85.4864 87.1475C85.2474 86.9091 85.1279 86.7899 84.9863 86.7178C84.861 86.6541 84.7237 86.6173 84.5833 86.6098C84.4246 86.6015 84.2616 86.6449 83.9354 86.7319L81.2627 87.4446L83.2163 85.4863C83.4547 85.2473 83.5738 85.1278 83.6459 84.9862C83.7097 84.8609 83.7465 84.7236 83.7539 84.5832C83.7623 84.4245 83.7188 84.2615 83.6318 83.9353L82.9192 81.2627Z" fill="#F9FAFB"/>
</g>
<path d="M123.516 111.104C129.633 102.49 126.689 93.3664 124.452 89.8813C123.672 88.6656 122.549 86.0112 121.175 87.3845C112.593 97.8399 111.656 108.919 111.812 112.197C106.975 105.798 89.653 100.181 87.0002 100.181C90.9951 111.042 101.149 116.15 105.726 117.346C104.322 117.606 101.825 118.439 103.073 119.687C107.068 125.18 114.621 127.386 117.898 127.802L116.65 120.311C118.522 121.56 122.705 124.056 124.452 124.056C128.073 118.938 127.833 114.017 127.261 112.197C126.845 111.832 125.514 111.104 123.516 111.104Z" fill="#F9FAFB" stroke="#F9FAFB"/>
<defs>
<filter id="filter0_d_4550_2327" x="0.962692" y="0.962692" width="168.438" height="168.438" filterUnits="userSpaceOnUse" color-interpolation-filters="sRGB">
<feFlood flood-opacity="0" result="BackgroundImageFix"/>
<feColorMatrix in="SourceAlpha" type="matrix" values="0 0 0 0 0 0 0 0 0 0 0 0 0 0 0 0 0 0 127 0" result="hardAlpha"/>
<feOffset/>
<feGaussianBlur stdDeviation="40.15"/>
<feComposite in2="hardAlpha" operator="out"/>
<feColorMatrix type="matrix" values="0 0 0 0 1 0 0 0 0 1 0 0 0 0 1 0 0 0 1 0"/>
<feBlend mode="normal" in2="BackgroundImageFix" result="effect1_dropShadow_4550_2327"/>
<feBlend mode="normal" in="SourceGraphic" in2="effect1_dropShadow_4550_2327" result="shape"/>
</filter>
</defs>
</svg>
